<mxfile host="app.diagrams.net" agent="Mozilla/5.0 (X11; Linux x86_64) AppleWebKit/537.36 (KHTML, like Gecko) Chrome/135.0.0.0 Safari/537.36" version="26.2.12">
  <diagram name="Страница — 1" id="RBE6qpB1zsMPYN1sAsRD">
    <mxGraphModel dx="955" dy="648" grid="0" gridSize="10" guides="1" tooltips="1" connect="1" arrows="1" fold="1" page="1" pageScale="1" pageWidth="827" pageHeight="1169" math="0" shadow="0">
      <root>
        <mxCell id="0" />
        <mxCell id="1" parent="0" />
        <mxCell id="LUPjz9wr3VQtJ9ooE-Ok-5" value="" style="edgeStyle=orthogonalEdgeStyle;rounded=0;orthogonalLoop=1;jettySize=auto;html=1;" edge="1" parent="1" source="LUPjz9wr3VQtJ9ooE-Ok-3" target="LUPjz9wr3VQtJ9ooE-Ok-4">
          <mxGeometry relative="1" as="geometry" />
        </mxCell>
        <mxCell id="LUPjz9wr3VQtJ9ooE-Ok-3" value="Комп&lt;div&gt;(запрос к сайту http://www.cnn.com)&lt;/div&gt;" style="rounded=0;whiteSpace=wrap;html=1;" vertex="1" parent="1">
          <mxGeometry x="48" y="260" width="120" height="60" as="geometry" />
        </mxCell>
        <mxCell id="LUPjz9wr3VQtJ9ooE-Ok-6" style="edgeStyle=orthogonalEdgeStyle;rounded=0;orthogonalLoop=1;jettySize=auto;html=1;exitX=0.75;exitY=0;exitDx=0;exitDy=0;entryX=0.75;entryY=1;entryDx=0;entryDy=0;" edge="1" parent="1" source="LUPjz9wr3VQtJ9ooE-Ok-4" target="LUPjz9wr3VQtJ9ooE-Ok-3">
          <mxGeometry relative="1" as="geometry" />
        </mxCell>
        <mxCell id="LUPjz9wr3VQtJ9ooE-Ok-4" value="Смотрит кеш" style="whiteSpace=wrap;html=1;rounded=0;" vertex="1" parent="1">
          <mxGeometry x="48" y="400" width="120" height="60" as="geometry" />
        </mxCell>
        <mxCell id="LUPjz9wr3VQtJ9ooE-Ok-12" style="edgeStyle=orthogonalEdgeStyle;rounded=0;orthogonalLoop=1;jettySize=auto;html=1;exitX=1;exitY=0.5;exitDx=0;exitDy=0;" edge="1" parent="1" source="LUPjz9wr3VQtJ9ooE-Ok-7" target="LUPjz9wr3VQtJ9ooE-Ok-11">
          <mxGeometry relative="1" as="geometry" />
        </mxCell>
        <mxCell id="LUPjz9wr3VQtJ9ooE-Ok-7" value="&amp;nbsp;&lt;span style=&quot;background-color: transparent; color: light-dark(rgb(0, 0, 0), rgb(255, 255, 255));&quot;&gt;локальная пересылка&amp;nbsp;&lt;/span&gt;" style="ellipse;whiteSpace=wrap;html=1;" vertex="1" parent="1">
          <mxGeometry x="238" y="130" width="120" height="80" as="geometry" />
        </mxCell>
        <mxCell id="LUPjz9wr3VQtJ9ooE-Ok-9" value="" style="endArrow=classic;html=1;rounded=0;entryX=0;entryY=0.5;entryDx=0;entryDy=0;" edge="1" parent="1" target="LUPjz9wr3VQtJ9ooE-Ok-7">
          <mxGeometry width="50" height="50" relative="1" as="geometry">
            <mxPoint x="165" y="259" as="sourcePoint" />
            <mxPoint x="438" y="332" as="targetPoint" />
          </mxGeometry>
        </mxCell>
        <mxCell id="LUPjz9wr3VQtJ9ooE-Ok-10" value="" style="shape=image;verticalLabelPosition=bottom;labelBackgroundColor=default;verticalAlign=top;aspect=fixed;imageAspect=0;image=data:image/png,iVBORw0KGgoAAAANSUhEUgAABhcAAAFPCAYAAABONZ/NAAAABHNCSVQICAgIfAhkiAAAABl0RVh0U29mdHdhcmUAZ25vbWUtc2NyZWVuc2hvdO8Dvz4AAAAuaVRYdENyZWF0aW9uIFRpbWUAAAAAANCh0LEgMTIg0LDQv9GAIDIwMjUgMTA6NDQ6MDKIdyiNAAAgAElEQVR4nOzdd1hT5/s/8HcSIISNoIIoqIBbRNwb61ZU6l51VWvVb7W2trZSV1u3to5qh3a4Rx21Ks6qdRZRHNW6ERVkCzKDIcnvD36cTyJJSCCA6Pt1XVzXSfLk5D45h3NOnvsZoho1aqhBRERERERERERERERkJHFZB0BEREREREREREREROULkwtERERERERERERERGQSJheIiIiIiIiIiIiIiMgkTC4QEREREREREREREZFJmFwgIiIiIiIiIiIiIiKTMLlAREREREREREREREQmYXKBiIiIiIiIiIiIiIhMwuQCERERERERERERERGZhMkFIiIiIiIiIiIiIiIyCZMLRERERERERERERERkEiYXiIiIiIiIiIiIiIjIJEwuEBERERERERERERGRSZhcICIiIiIiIiIiIiIikzC5QEREREREREREREREJmFygYiIiIiIiIiIiIiITGJR1gGUJ9bW1rC1tYVMJoOlpWVZh0NERPRKUygUyM7ORmZmJuRyeVmHQ0RERERERERmxOSCkVxcXODg4FDWYRAREZUblpaWsLS0hIODA9LS0pCcnFzWIRERERERERGRmXBYJCO4ubkxsUBERFQMDg4OcHNzK+swiIiIiIiIiMhMmFwohIuLC2QyWVmHQUREVO7JZDK4uLiUdRhEREREREREZAZMLhhgbW3NHgtERERm5ODgAGtr67IOg4iIiIiIiIiKickFA2xtbcs6BCIiotcOr69ERERERERE5R+TCwZwOCQiIiLz4/WViIiIiIiIqPxjcsEAS0vLsg6BiIjotcPrKxEREREREVH5x+QCERERERERERERERGZhMkFIiIiIiIiIiIiIiIyCZMLRESlzNraGtbW1mUdRpmytraGhYVFWYdhFAsLC0il0rIOo8yIRCLY2NjAysqqrEMhIiIiIiIioldI+ajZISIqA1KpFJ9//rmQCFi+fDkSExNNXo+9vT169eqFNm3awMfHR6ikVSqVePz4Ma5du4ZDhw7h/v37BtcTGBiI7t27m74h/9/p06cRGhpa5PcXh7Ozs/AdeHp6wtraGmq1Gmlpabhx4wZOnDiBv//+G2q1ukzi02RhYYHu3bujXbt2qF27Nuzt7QEAWVlZiIyMxOnTp3Hw4EHI5fIyi3H+/PmQSCQmv2/x4sVISUkptFz16tURFBQEf39/eHl5QSzOa4uQk5ODyMhIXLp0CaGhoUhISDA5BiIiIiIiIiJ6PYhq1KhR9jU5r6gaNWqUdQhEVEbEYjFCQkIQGBgoPDdmzBg8fvzYpPW0adMG06dPh4ODg8FyarUaBw8exOrVq5Gbm6uzzNChQzFu3DiTPl/T77//jh9++KHI7y+qjh07YurUqUIlvT7Xrl3D/PnzkZycXEqRFeTj44OQkBB4enoaLBcXF4cFCxbg5s2bpRTZ/1hZWeHQoUNFeu/w4cMRFxen93WJRIL3338fb7/9NkQikcF1vXjxAuvXr8fu3buLFMvDhw+L9D4iIiIiIiIiejW8Uj0X1BIrWFRtA6gUUEZfANTKsg6JiN5Abm5u+OSTT+Dv71+s9bRt2xZz5swRWn0rlUpERETg0aNHwucEBATAxsYGIpEIQUFBsLOzw1dffaVzfampqYiKijIpBhcXF6FSX6FQFH1jiqhdu3YICQkRKqqzsrIQFhaG2NhYSKVS1KpVCw0bNgQANGrUCAsXLsSHH36IrKysUo/Vw8MDixcvhpOTEwBApVLh8uXLiIqKQm5uLjw9PdG8eXNYWlrCzc0NCxcuxNSpU0u9klwzSaNWq4XjyRiGjgGRSIRZs2ahXbt2wnOpqam4fPkykpKSYGlpCS8vL/j7+0MikcDKygqTJk2CSCTCrl27irYxRERERERERFRuvTLJBbXYAjK/YbCq3Q9KeRbkYhmUj44DYMcKIip5IpEI9erVQ/fu3dGlSxdYWloiNTVVqGg2lZOTE6ZPny4kFqKiojB79mzExMRolbOxscHHH38s9JAIDAzE0aNHERYWVmCdhw4dMqnFuoODA37++WcAQEZGBv74448ibUtROTg44NNPPxUSC2fPnsWSJUuQmZmpVc7Pzw9z586Fo6MjvL29MWbMGKxZs6ZUYwWATz/9VNjfjx49wty5cwv0VKlYsSK+/PJL1KpVC7a2tvj8888xYcKEUh3Oyc7OTlhOS0vDu+++a5b19uzZUyuxsHXrVmzYsKFATxo3NzfMmzcPPj4+AIB3330XJ0+eLNMeJ0RERERERERU+l6J5IJabAGnJoPh2+t9xGZIkZmYDPi9g2ylHKqYc4BaVdYhGk0sFgsVaUqlds8LNzc3eHh4wMnJCRkZGbh//36RK2MqV64MT09PoZIpLS0NkZGRRo2lLRKJhApPlUoFtVoNiUSC+vXrw8nJCVFRUQUq1Nzc3ODt7Q0A+Pfff5GWlmZSvJ6enqhcuTIcHByQmZmJ5ORkPHjwACpV0fetVCqFp6cnHBwcYGlpiczMTDx9+rTYFVwuLi7w8vKCo6MjFAoFUlNTce/ePeTk5Bi9Ds3vWK1WF9hOkUgEb29vuLm5wdraGjk5OUhLS8PTp08LjOmvuS6g4HFVGM1jMn9/F8Yc+0vXcabJysoKtWvXRoUKFWBhYQG5XI5nz54hOjoa6enpJmxh8Xz22WeoVq0aPD09YWNjIzyfnp6OL7/8Et98802R1tuzZ0+tsfp1JRbyX5s/fz68vLyEodi6dOmiM7lgqg8//BAVKlQAAKxdu7bUK3+HDBkifKf37t3DV199pXPIp+vXr2PhwoVYtGgRAKBPnz7YuXNnkea3KKrmzZujQYMGAPL2ycyZM3UOH5SYmIgvvvgCP//8M+zt7eHt7Y0OHTrg1KlTpRarZnIhIyPDLOsUiUQYPHiw8Hjfvn1CYuplcXFxmD17NjZu3AgLCwtYWVmhbdu22Ldvn1liISIiIiIiIqLyocyTC2qxBRxbjUfnweMghxSxmUpYV6gAkQhAk4mQW9pBGXWk3CQYfvzxR9SsWRNAXmvOqKgo+Pv7Y8yYMULFlaYrV65g1apVRo3jbmFhgb59+6Jv377w8PDQWebOnTvYuHEj/vnnH73rqVu3LlavXg0AWLZsGS5duoRFixahevXqQpnt27dj3bp1EIlE+OCDD9CnTx+hgjonJwcLFy7EmTNnDMZrbW2NgQMHIigoCK6urgVez8jIwIkTJ7Bp0yY8e/assM0XNGvWDIMGDYK/v79WpXu+mJgYhIaGYu/evUYnBEQiEd566y0MGTJE2H+acnNzcenSJfz666+FTroLAFWrVsVvv/0GIK8ycsiQIcJrPXr0wJgxY+Di4lLgffHx8Rg2bJjWc+3atcOcOXOEx5MmTcKdO3eM2q5KlSph69atwr5buXIl/vzzT51lzb2/evXqhWnTpgEAjh8/joULFwLISyqMHj0awcHBkEqlBd539OhRLF682KjtM4fGjRtrba9CocCRI0ewceNGpKamFnm9rVq1Epb//vtvnYmFfCqVCseOHcN7770HAEIirzg6deqEDh06AADCw8Nx5MiRYq/TFCKRCJ06dRIeb9q0Se9cEkBejP/99x/q1asHCwsLvPXWW9ixY0dphAogL6GT7/DhwwbnJUhOTsb+/fuF/9WuXbuWanJBc1gkUxO9+lStWlXrurJt2zaD5ePj43Hjxg1h6DAvLy+zxEFERERERERE5UeZJhfyeyx0HjwOVlJrXIzMhUoNiCQSSCu4QK1UAg1HIFuRAVX0WZSHIZLkcrmwLJVK0atXL0ydOhUSiURn+caNG2PVqlWYNGkSnj59qne9UqkUCxcuRKNGjQx+fu3atTF//nz8/PPP2Lp1q84ymhXuMpkMs2fP1kosAHktjk+fPo0mTZqgb9++BWKZMWMGrly5orfVrLu7O5YsWYIqVapoPa9Wq4WKbjs7O/Tp0wcdO3ZESEiIUROjTpo0Cf379zdYxsPDA+PHj0enTp3wySefFFpBLJVKMXv2bLRs2VJvrBYWFmjZsiVatGiB1atXF9pCNzo6GnK5HNbW1qhYsSLc3d0RGxuLiRMnYsCAAYVup6bz58/j2bNnQgv0Hj16GJ1c6NGjh7AN2dnZOH78uM5yJbG/Hjx4ICznH7dSqRRLlizRmWgrK0lJSUhNTcXDhw9x5coVnDt3Tjiu9f3fGuP48eP4999/UaFCBZw4ccKoOPLZ2toW+XOBvMrnSZMmAchLjOUnE0tTrVq1hKRNTk6OUT0xTp48iXr16gEAWrduXWrJBYlEgubNmwuPjUkUnDp1SkguBAQEQCaTITs7u6RC1KJ5fJir54JcLsfatWvh4OAAiURiVK8RzXOrpaWlWeIgIiIiIiIiovKjzJILaokVnFuOQbt+7+KFSIqLkbnI1RjtRSQWw7piJYgkEogCxkNuaYvcqGOv/CTPmkPWNGzYEOPHj0dWVhZ27NiBf/75B2lpaXB1dUW3bt2ESnt7e3tMnjwZISEhetc7ceJEoYI2NzcXmzdvxpkzZ5CQkACJRILq1atj6NChaNGiBQBg7NixuH79Om7cuFFgXZqth1u2bIm6deti5cqVCAsLw7BhwxAUFAQgr2K6U6dOCAsLw5o1a1CpUiXMmTMH9vb2kMlkaNWqFY4dO1Zg/XZ2dvj2229RsWJFAHmtfDdu3ChUktvY2KBRo0YYOXIkatWqBXt7eyxZsgTjxo1DbGys3u+gS5cuQmIhPT0d27ZtQ3h4OBISEpCbmwtHR0fUqVMHw4cPh7e3N2rWrImQkBB88sknetcJALNmzRISCy9evMDvv/+Oo0eP4unTpxCLxfD19cWAAQMQGBgIkUiEKVOm4Pnz5wYrINVqNSIjI4WK0rp168Lb21tILKjVaty8eRNRUVHIzs6GtbU1KlSooLMyOzc3F0eOHMHQoUMBAB07dsTatWvx4sULg9slEonQo0cP4fHx48d1TpJbUvsrMjISKpUKYrEYFStWhIuLC4YMGSIkFnJycnDlyhXExsZCpVJBJpOhYsWKSEhIMLhd5jZ58uQSWa+pQ8Ro9p7QTDQUxfjx44W5A3bu3Gmw10RJqVWrlrB869Ytg70W8mmer2rVqgWRSFQqcxl4eHgIQw0pFAqjkneRkZHIysqCjY0NLC0tUaNGDfz3338lHSqAkum5kJiYiN27d5v0nqpVqwrLxvS+IyIiIiIiIqLXS5kkF9RiCzi1mYhew8YiWynBpcdKrcRCPpFYDKlzBajValj7j4VcYoXcBwde6SGSNCvCxo0bh5SUFEybNk2rEjY5ORl37txBZmam0PK1RYsWcHJy0tnK3snJSauSeN26ddi1a5dWmX///Rc3btzAihUr0KBBA4hEIgwYMEBnckEzxiZNmuD48ePCUDnff/89unXrBktLSwQFBSE7OxsLFixARkYGYmJicODAAaGSu3bt2jqTC++//75QUR0bG4upU6dqjfWelZWFCxcu4PLly1i0aBEaNWoEa2trfPjhh5gxY4be77Zfv37C8syZMwtU5MnlcsTHxyM8PBxr1qyBp6cnAgICULt2bb2VhV26dBGGr8nNzcWMGTNw/fp14XWVSoVbt27hq6++QmxsrLDtU6ZMwcWLF3VW1ud78OCBkFzw9PRE586dAQDXrl3D8uXLTarwPXjwIIYMGQKRSAQ7Ozu0bdu20NbwzZo1E/YDAL3DIZXU/srJyUF0dDQ8PT0B5I1pHxwcLMSyfv36AhP7vsneeustYfnKlStFXk+dOnXQs2dPAHnnmi1bthQ7tqLI3+9AXk8eY2iWs7Kygpubm8EElrloxhofH29UIkStVuPp06fCpMZeXl6lllzQnHNBc34SGxsbVKtWDTY2NsjKykJ8fHyxhvYypFWrVsK25+bmluqwUERERERERET0aig4YH0psGnwNqq1H4Yn6WKEPVJCYaAzgkgigbWLKyS2DpDWHQixW9PSC7QINCvuLS0tsWjRIr2VYzt37hR6OohEIq2Wvpq8vLwQFxeHzMxMqFQqHD58WO9na1Yg54+FXRjNsdjlcjkePXokxHThwgWtYTfu3r0rLFeqVKnAupycnLTGLl+6dKneSWRfvHiBJUuWCJMEN23aVKslrCaRSCRUZKWlpRmsxMvKysK6deuwYcMGLF682OD8AIMGDRKWt2zZopVYeNkvv/wiJAQcHR3RsWNHvWUBaLXADw4Ohru7O8LDw/Hpp5+a3JI8NjYWERERwuPu3bsX+p78CmYgr0V4ZGRkgTIltb/yaX4HEyZMgFgsxm+//YaVK1cysaChZ8+eWhW1+/fvL/K63nvvPWEoqy1btmgN1VaaKleuLCxrHgdSqRQeHh7Cn+Z5JCsrS+u4cHd3L9NYRSKRVqweHh5a87zEx8cLy25ubqUSK6DdcyE9PR3t27cX5lNZu3Ytli1bhrVr12L37t345Zdf0K9fP1hZWZnls8ViMYKCgjBr1izhufXr15fq5NtERERERERE9Gook54Ltg16wVIqw71443ogiMRiSJ2coZTLYVG1NV7EXizhCM3j/v37uHr1qt7X09PT8eTJE2G+A10T/AJ5Ld1HjRoFIG/sf0Otah8+fCgs29vbQyqVGpzUWK1WF6ioT0lJEZY1kwkAtCrqZTJZgfV16NABFhYWQizXrl3T+9kAEBcXh8uXL6NZs2bC+3W1tJZIJEKFqb29vd5eHvnOnz+P8+fPG/xsLy8vYfLmlxMzuqhUKoSGhmL8+PEAgMDAQBw8eFBvec3vyt7eHs+fP8eiRYuMahWty4EDB9CkSRMAeWO8V6pUSe8QQk5OTloTCuvbtpLaX/le/g6uXbuGzZs3G/yMN029evXwf//3f8Ljbdu2GZxM2JBmzZoJw6clJCQYPD5Lmo2NjbCs2cPHz88PixYtEh4/efIEo0eP1iqbP6eArnNMSdCMVTO5YWlpiY0bN2qVHThwoHBca26X5jpKmmbPheDgYK1kw8u8vLwwefJk9OjRA3PmzDE4t48uXbt2hZOTE2QyGdzc3NCkSRPhWqVQKLB+/foCPemIiIiIiIiI6M1QJsmF52G/QuxcExKZo1HlVbm5yE5KhCorETn3DkBUwvGZi6HEQr7nz58Ly8ZUpBVWMf3yMD2FJRdSUlIKtGzWLP/y2O+ar+lqCVu3bl1h2VAvAE1Xr14VKqtr166ts0xubi5iY2NRpUoViEQizJkzB4sXLy5yJSwAYcgiIG+8cGOGD9GsfPf19TVY9uXvdd++fcUaokRzYmeRSIRu3bph06ZNOst269ZNSBo8f/4cp0+f1lmupPZXvpe/gw0bNpTKGPrlRZ06dbBw4UJIpVIAecMhvVyZbQrNSvqtW7cWOZFlDprns8LmB9GkWba0kgvlKVZAO7mQn1j4999/cfHiRcTFxUEsFqNq1aro0KGDMORTzZo1sXTpUkyePNmk89CAAQPg7e2t9VxiYiKOHDmC0NBQrd4bRERERERERPRmKZPkgiLyDJ6f+gaOgR8VmmBQKl4gJykJyrR4ZEX8AFHq/VKKsviMmZRVcwLo/Jb5hfHw8ICvry8qVqwIOzs7WFlZwcLCAhKJpEAL1sLWqTnkUb78YW+AgpXDhVUMa45dbm1tjYCAAIPl88vl8/Ly0ltu165dmDJlCoC81s+bNm3CjRs3cPHiRURERODevXtasRemWrVqwrJCoTAq1pcr9VxcXPQOI/RyLCdPnjQ6Nl1yc3Nx+PBhYZ6Obt26YfPmzTr3ieYcHYcPH4ZCodC5zpLcX4D28ZKamlpoz4g3SbNmzTBnzhyhUvru3buYM2eOScewJj8/P9SpUwdAXq+oo0ePmi3WotA895iyTZrnRM0hiEqSZqymJL80t6u0YgW0h0WKi4vDokWL8O+//xYot2HDBgwZMgTjxo0DkDd006RJk7BgwYJifX7FihURFBQEFxcX7NixA0+ePCnW+oiIiIiIiIiofCqT5ALUKuT89ydS5Klw6hwCC/uCY/cDeT0WcpKS8CLxAeSXVgPPdE/K+6rSV6FbFCKRCN27d8egQYO0KoSLq7AYNSv6jKFZ+d6tWzd069atyO9/2b59+1CxYkVhYmOxWAw/Pz/4+fkByEuURERE4Ny5czh79myhY81rVtD5+Phg6dKlJsWaH6++5IKmrKwss1TAHTx4EEOHDoVIJIK7uzv8/PwKVNj7+fkJiZPChnsqyf31stu3b5u07tdZv379MHHiRKFC+vr16/jiiy+KNQ/FgAEDhOXQ0FCDPZZKg+b/nynj/Wsmr7Kzs80akz5FjTW/xwlQsNdYSZo1a5bQMykrK0vveVytVmPbtm1wdHTEwIEDAeRNHP7TTz8ZlfwGgNWrV8PW1hbW1tZwcnJCvXr10KJFCzg5OaFHjx7o0qULVq9ejQMHDphn44iIiIiIiIio3Cib5AIAqFVQPDiF52IxnLt/CbFUu8W9SpmLrLhYKNPiIb+0GupyllgwJ4lEgpkzZyIwMFDr+fj4eCQmJiI9PR0KhQIKhQKWlpZo37592QQK7cq2oihs3PL169fj7NmzePvtt9G6dWut8nZ2dmjfvj3at2+PjIwMbNq0Cbt379bbErm4sRoTb77nz5+bZTig/DkPmjbNm9i8e/fuBZILvXr1EpbDw8MNDh1V0vtLk+ZcHm8qCwsLfPjhhwV6lnz77bfFGsLIxcUFrVu3Fh6HhoYWK05z0EwMaA4ZdPv2bXz00UfC45eTIJplSyu5oJkY0Px8hUKhFSuQN6G8rrKlFSsAk5NQmzZtwttvvw0LCwuIRCIEBAQY3bPl5R4Rf/zxB2xsbDBmzBj069dPOKafP3+OM2fOmBQXEREREREREZVvZZdc+P9e3D+F1BPL4BQ4DWKZEwBApVBAnpwEZVossiJ+KHc9FsxtwIABWomFU6dOYd26dTorjd3c3Mo0uaBZSbdlyxYcP37cpPcbUwF/+/ZtLFy4EBYWFvDz80PTpk3RuHFj+Pr6CsOb2NnZYeLEiahduzYWLFigc72asV6+fBnfffedSbECMHq8cXO2Ij948KCQXOjQoQNWr14tbIudnR3atWsnlC1skurS2F/5TBnL/nVkZ2eHL7/8UphwWalU4vvvv8fevXuLve5OnToJx/7du3cRHR1d7HUWV2JiorBcqdL/eqelp6frHR7L2tpaq0eRvgnLzU0z1ooVKwrLarXa4FBemttVWrEWRWZmJh48eCDMkeLm5las9WVlZWHNmjWQSCTo27cvRCIRJk2ahLNnz3JOFSIiIiIiIqI3SJknF/KHSHqW/QzO3eZCJHWEPCkRitRYZF38Fkj6r6wjLFMikQj9+/cXHp87dw5ff/213goczSFFyoJmq16FQoHHjx+X2Gfl5uYiIiICERERAAAHBwe0adMGAwcOFOYCeOuttxAeHq6zla5mrGKxuERjNadz584JEztLpVIEBgYKLdU7deok9EZISEhAWFiYwXWV5v56k7m4uGDx4sWoUaMGgLwK9rlz5xo16bsxOnXqJCyfOnXKLOssrkePHgnLVapUMeo9VatWFZZzc3MRExNj9rh00YzV3d0dYrG40HkiRCKR1nZFRUWVVHhmodmzwlzXiR07dqBv374A8hIt3t7euH+//MyLRERERERERETFU3ozUBqiVkEReQYpxxYi4+F/yE15CvnVdW98YgHIq5RzcXERHhsa5gfIm+y5LD18+FBYLmyyX3NLS0vDoUOHMH78eJw9e1Z4vmvXrjrLR0ZGCsulHWtxKJVKHD58WHisOU9C9+7dheUDBw4UWkFalvvrTeHi4oJvv/1WSCzExMRg8uTJZkssODs7w8fHR3gcHh5ulvUW171794TlevXqGTVhfcOGDYXlBw8emDznS1E9efJE6F0klUrh7e1d6HuqV68u9LJQKpVa55NXUYUKFYRlzaRivmbNmmHo0KGYNGmS3nPmyxISErSuR5qfQURERERERESvv7LvuSBQQ/HgLyhSYyBSKaFOuVf4W94ATk5OWo+fPn1qsHzHjh1LMpxC3bx5E7179wYABAQEwMLColhjyReFUqnE5s2b0bZtWwDaQ5do+u+//yWvKlSoAB8fn3LT6lZzYuf69esLvRhq1aoFIK/VtzHj7r8K++t1JpPJsHjxYiHpd+/ePcyYMQPPnz8322cEBAQIy8+fP9dKGBWHSCQSJkvPd/PmTaOPj5s3byI1NRVOTk6wtbVF48aNhV5G+mgO6aWZIDSGr6+v1hwgjx49QmpqqlHvzc3NxcWLF4XPb9u2rVZyRBfN4eeuXr1q0jwI7u7uWuel5ORko4eyatiwIXr37o3KlStDLBZjypQphQ5F5OrqKkzyDuQlbl7WsmVLBAcHA8gbWsuYORkqVKiglTTKyMgwahuIiIiIiIiI6PXwavRcyKdWAUn/5U3erDbc4vpN8fJY/Y6OjnrL1qtXDx06dNB6zsKidPNH586dE4bfcHR01GpVr8+4ceOwYMECvP3221q9NDR16NAB06dPx48//mhU7wzN701fhVdCQoLWeOqDBg0qdL2tW7fG6tWrMXLkSKElelnIn9gZyKsEbtq0qVZl59mzZ42aQLmk9hfl7ZfPP/9cq8fCZ599ZtbEAgA0aNBAWL5165bZxry3tLTEN998o/Xn4OBg9PvVajX+/vtv4fHQoUMNlq9fv74wH4VKpcLJkydNinfq1KlasTZu3Nik9584cUJYDgoK0pr74WX29vZCUg6AyXOVBAUFacU6cOBAo9/74sULdOrUCQ0aNEC9evWMmmNn5MiRQhIgMzNT5zwSly5dEpZr1aol7AtDNIfjys3NfeWHhiIiIiIiIiIi83q1kgtUQExMjNbQIPp6Jvj4+GDOnDm4d++e1lA4rq6uJR6jpqysLK1JhCdMmABfX1+95du2bYuBAweiRYsWmDx5st7KS19fX/To0QM+Pj4YNWpUoUOs9OrVS1g2NPzMjh07hOVOnTqhR48eemhMyQIAACAASURBVMt6enpiypQpqFevHkaNGlWgVXdpO3jwoLDcvHlztG7dWnhc2ETO+UpqfxHQs2dPtGnTBkBeb5o5c+YY3ZLeFJpJLs25A14FW7duFRJ9AQEBGDNmjM7/XXd3d8ycOVN4HBoaitjY2FKLEwDOnDkj9FxycnJCSEgIZDJZgXLW1taYOXMmnJ2dAeR956YmF4rjzp07uH37tvB4+vTpqFevnt7yQ4cO1Tof7tixQ+fk6mFhYVo940JCQgwOD9W8eXOMHj1aeHz+/HmtCeKJiIiIiIiI6PX3Cg2LRLpkZ2cjLCxMqDgeOHAgFAoFTp06hYyMDLi7u6Njx47o3r270FJ63rx5wkSjb7/9Nr799lsolcpSG+5mw4YNaNmyJby8vGBra4uVK1dix44dOHnyJBISEmBnZwcvLy90794dHTt2FCob9+zZo3dIlz179qBv376wsbERJi3ev38/IiMjkZaWBpVKBXt7e3h7e6Nnz55CEiYzMxO7d+/WG2tYWBgOHz4szFUwffp0+Pn5Yf/+/YiKioKFhYXwHffq1UsYduXOnTtalftlQXNi52bNmgmxPX78WGfLZH1KYn+VJ0FBQVoTCWt6uSJ88ODBSE9PL1Dur7/+0hpGx8bGBmPHjhUeJycno2fPnibFFRoaatT3qznczZMnT0z6jJKWlJSE9evXY/LkyQCAESNGoHHjxjh69ChiY2NhbW2Nhg0bomfPnrC1tQUAxMbG4pdffin1WNVqNVasWIHly5dDKpWiWbNmWL9+PQ4ePIgHDx5ArVajRo0aCAoKEs6vL168wPLlywud28Tcvv32W3z33XewtLSEjY0NVq1ahbNnzyI8PBwJCQkA8uaE6Ny5s9Z8HJcvX8bWrVt1rlOlUmHp0qVYunQpLCws4OLigrVr1+Ls2bOIiIhAUlISRCIR3N3d0aJFCzRr1kx4b0ZGBn766aeS3WgiIiIiIiIieuUwuVAO/Pjjj/D394eNjQ0kEgneeecdvPPOO1plcnNzMX/+fERGRuLcuXPCMBtdunRB586dkZSUhCFDhpRKvDk5Ofj444+xaNEi+Pj4QCqVYuTIkRg5cqTe9+zbtw/ff/+93tefPXuGefPmYe7cuZDJZGjbtq0wp4I+6enp+OKLL5CcnGyw3DfffAOxWCxMYtq1a1eDE5reuHEDs2bNKvO5CfIndh42bBjs7OyE543ttZCvJPZXedKhQweteQsM0ZwwW9P9+/e1kgvVq1fXmi+lUqVK6Nevn0lxXb16tdDkgkgk0hoqTddEvWVtz549cHR0xPDhw4U5QurXr6+zbGxsrNnnpDDFrVu38PXXX2PmzJmQyWRwc3PDu+++q7NsdnY2FixYgJs3b5ZylHnH28yZMzFnzhzY2dlBJBKhXbt2WnNWvOzEiRNYsWKFwWGzrl+/jtmzZ2PmzJmws7ODhYUFAgMDERgYqPc9SUlJmD17dqn3NCEiIiIiIiKissdhkcqB6OhoTJ06VWsC4nwqlQoXLlzABx98gNOnTwMANm7ciJMnTwqVSCKRSOcwGCUpJSUFkydPxpo1a/ROVJqbm4uwsDB89NFHWLVqVaFjxV+6dAnjx4/HoUOHdLYez5eamoo9e/Zg9OjRuHHjRqGxKpVKLF68GCEhIbhx44beOO7evYulS5fiww8/fGUqcQ8ePKgVb05OjlETsb6sJPYXlTyZTKbVu+JVHZbm119/xccff4xr167pPG6Sk5Oxfft2jBs3DjExMWUQ4f+cP38e48aNw8mTJwvMeQMAcrkcf/31F959912cP3++DCLMExERgVGjRmHXrl16h9tSqVRCwmD+/PlGTTodFhaGUaNGYefOnQYTs3FxcdiwYQPGjBmDO3fuFHk7iIiIiIiIiKj8EtWoUYM1hHqU5YS9+ri7u8PLywtSqRTJycmIjo7WW7EklUpRsWJFyOVyJCcnl2llcOXKleHh4QEHBwcolUokJSXh4cOHkMvlRVqfSCSCh4cH3N3dYWNjA5FIhKysLDx9+hQxMTHF2lZ7e3vUqFEDjo6OEIvFeP78OaKiokpkvPxXlbn3F1E+JycnVKtWDc7OzpDL5cKx9Somq6RSKWrWrIkKFSoAyEuCPHz4UGfSoSyJRCJUqVIFHh4esLGxgUqlwrNnz/Dw4UOjEgqGuLm5oWrVqrC1tYVarUZGRgYeP36MpKSkYsf9OgyrRkRERERERPQmY3LBgFcxuUBERPQ6YHKBiIiIiIiIqHzjsEhERERERERERERERGQSJheIiIiIiIiIiIiIiMgkTC4QEREREREREREREZFJmFwgIiIiIiIiIiIiIiKTMLlAREREREREREREREQmYXKBiIiIiIiIiIiIiIhMwuQCERERERERERERERGZhMkFAxQKRVmHQERE9Nrh9ZWIiIiIiIio/GNywYDs7OyyDoGIiOi1w+srERERERERUfnH5IIBmZmZZR0CERHRa4fXVyIiIiIiIqLyj8kFA+RyOdLS0so6DCIiotdGWloa5HJ5WYdBRERERERERMXE5EIhkpOTOXwDERGRGWRnZyM5ObmswyAiIiIiIiIiM2BywQhxcXHswUBERFQMaWlpiIuLK+swiIiIiIiIiMhMLMo6gPIiOTkZmZmZsLW1hUwmg6WlZVmHRERE9EpTKBTIzs5GZmYmh0IiIiIiIiIies0wuWACuVzOyhEiIiIiIiIiIiIieuNxWCQiIiIiIiIiIiIiIjIJkwtERERERERERERERGQSJheIiIiIiIiIiIiIiMgkTC4QEREREREREREREZFJmFwgIiIiIiIiIiIiIiKTMLlAREREREREREREREQmYXKBiIiIiIiIiIiIiIhMwuQCERERERERERERERGZhMkFIiIiIiIiIiIiIiIyCZMLRERERERERERERERkEiYXiIiIiIiIiIiIiIjIJEwuEBERERERERERERGRSZhcICIiIiIiIiIiIiIikzC5QEREREREREREREREJmFygYiIiIiIiIiIiIiITMLkAhERERERERERERERmYTJBSIiIiIiIiIiIiIiMgmTC0REREREREREREREZBImF4iIiIiIiIiIiIiIyCRMLhARERERERERERERkUmYXCAiIiIiIiIiIiIiIpMwuUBERERERERERERERCZhcoGIiIiIiIiIiIiIiEzC5AIREREREREREREREZmEyQUiIiIiIiIiIiIiIjIJkwtERERERERERERERGQSJheIiIiIiIiIiIiIiMgkTC4QEREREREREREREZFJmFwgIiIiIiIiIiIiIiKTMLlAREREREREREREREQmYXKBiIiIiIiIiIiIiIhMwuQCERERERERERERERGZxKKsAyAiIiKiwkkkEnh6esLLywteXl7w8fEBAMyaNauMIyMiIiIiIqI3kahGjRrqsg6CiIiI6FVXoUIFvP3221Cr1fjll1+0XqtRowZGjBiBo0ePIiwszGyf6eTkhODgYHTp0gUBAQGQSqVar8fFxaF169Zm+zwiIiIiInozuLm54cWLF3j27JnwnFgsRvXq1REdHY0XL16UYXRUXrDnQjH4+vqiUaNG8Pb2hoODA2QyGTIzM/H48WNcvnwZV65cgVr9euRuHB0dUblyZQDAgwcPoFQqdZZzdnZGlSpV4OjoCHt7e8hkMsjlcmRkZODx48d48uTJa/OdvMlsbGxQrVo1VKhQAXZ2drCxsUFubi7S0tLw5MkTPHnyRO8xok/+MZaWloa4uDiT3uvh4QFbW1tkZ2fjyZMnBsvWqVMHbdq0gbu7O5ydnSGXy5GcnIwbN27g4sWLSE1NNemziejNIZPJEBISgvT0dPz5559ISkoSXhs7diyGDx8OiURituTCqFGjMH36dNja2grPqVQqREdH4+nTp3jy5An+++8/s3wWERERERG9Obp164Y1a9ZAoVBg+PDhiIiIAACsXr0aPXr0wL1799C7d28mGKhQTC4UwYQJEzB8+HBUrVrVYLno6Gh8//332L59e7mvUA8KCsJXX30FAGjRogUSExO1Xvfw8MDu3btRqVIlg+vJyMjA8ePHsXnzZuHEReXL7t274e/vD5FIpLdMRkYG/vnnH/z55584fPgwcnNzC11v/jGWnZ2N4cOH4+rVq0bHNH/+fLRv3x5hYWEYOnSozjIBAQGYO3cuGjRooHc9ubm5+Pvvv7Fs2TLcuXPH6M8nojdDTEwMTpw4gbfeegs7duzA+vXrkZqaisDAQAwcOBAqlQrbtm0r9udIJBKsWrUKPXr0AAAkJydj586dOHHiBG7duoWsrKxifwYREREREb252rdvD7FYDKlUitatWwt1dIGBgQDyGlRXq1YNDx48KMMoqTxgcqEIGjdujKpVq0KtViMqKgq3bt1CSkoKVCoV3N3d4evrCy8vL1StWhXz589H7969MXHiRDx//rysQy8x1tbWQmIhNzcXiYmJSE1NhUKhgI2NDVxcXODs7Aw7OzsEBwcjODgYO3fuREhIiMkt3KlsVatWDSKRCCqVCgkJCUhJSYFCoYC1tTUcHR3h6uoKOzs7dO7cGZ07d8bjx4/x9ddf4/jx40atXyaT4eeff0ZwcHChvRCM1apVK/z666+wsrICANy+fRv//vsv4uPjIZVK4eHhgYCAALi5uaFTp07YsmULkwtEpNOMGTOwadMm1KlTB/PnzxeeVygUmD17tlnOHbNmzRISC5s3b8bXX3/NFkNERERERGQ2Bw4cQHBwMORyOY4ePSo8//vvv2PkyJEICwtDVFRU2QVI5QaTC0Wwc+dOXLlyBfv27dM7fEuLFi3w0UcfoVmzZmjZsiW2bduGAQMGvBGtDT/++GPs37+/wPNVqlRBt27dMHr0aFSrVg2DBg2CTCbD1KlTyyBKKq7t27fjiy++KPC8jY0NAgIC0LdvXwQHB8PT0xM//fQTfvzxRyxevNiodTs7O2PdunXo378/MjMzixWnRCLB8uXLYWVlhfj4eEybNg3//PNPgXIikQjNmzfHsGHDcPr06WJ9JhG9vpKTk9G3b18EBQWhadOmsLGxQVRUFPbt22eWm+9WrVph5MiRAIDvvvsO33zzTbHXSUREREREpOnChQto3LgxlEqlVqPfuXPnYsmSJW9E/SWZh7isAyiPTpw4gR9//NHguPBhYWEYNmwYNm/eDCBvnPcFCxaUVoivpKdPn+LXX39Fr169cOHCBQBA7969hS5X9HrIysrC2bNn8cknn6BLly64e/cugLzhxD788EOj1qFUKlGrVi0sXbq02PEEBgbCzc0NAPDFF1/oTCwAgFqtRlhYGKZOnQqVSlXszyWi15dCocDevXsREhKCadOmYeXKlWZr1TN58mQAwM2bN7Fy5UqzrJOIiIiIiOhlL1680DmaCBMLZAomF0qQUqnE3LlzhcrMPn36oGXLlmUcVdnLyMjA9OnTIZfLAQCDBg0q44iopERFRaFfv37CMCEffPABWrRoUej7vvzySwBA9+7dMW7cuGLF4O3tLSyzRwIRvcqqVq2K1q1bAwA2btzIYQOJiIiIiIjolcZhkUqYSqXCjBkzcPLkSYjFYrz33ntaLadnz54NiURi0jp//vlnPH78uMDzLi4uGDFiBNq1awcvLy+IxWLExcUhLCwM27Ztw71794q9PeYSGxuLGzduoGnTpvDz8yvSOmxtbTF69Gg0adIE1atXh6OjI0QiEZKSkhAZGYm9e/fi6NGjRk2mPWDAADRs2NCouH/44YcCz8tkMjRv3hz+/v7w9fWFu7s77OzsYGNjg6ysLERFReHcuXP4448/kJaWZtT2icVidOzYEQMGDICvry+cnZ0RHx+PmzdvYseOHbh06ZJR67G2tkb//v3RpUsX+Pr6wsbGBs+fP0dSUhLu3buH/fv34/z580atqyiysrIwadIkHD58GJaWlvj8888RHBxs8D379u2Dh4cH3nvvPcyYMQPXrl1DeHh4kT7f1tYWQF7PBIlEAoVCUaT1mKpy5coYOnQo2rZtC09PT0gkEjx79gyJiYm4fv06du7cicjISJ3vdXNzE95brVo1yOVyxMTE4OjRo9izZ4/B+Vtq1KiBVq1aoU6dOqhZsyYcHR1hb28PAEhKSsKNGzdw8ODBQr9PZ2dn9OzZEw0aNICXlxdcXV1ha2sLCwsLpKenIyUlBbdv38axY8eMTtoUZ7tcXFzQunVr1K9fH76+vnBxcYGdnR2srKzw/Plz3L17FydOnMDhw4cLrZBt1aoV+vbtizp16qBy5cqwsbFBZmYm4uPjcebMGWzfvh1Pnz41aptM1b17d7Rq1QqJiYn47rvvdJaxt7fH1KlTYWlpicePH+Pnn3/WWa5OnToYOnQomjdvjsqVKyM3NxePHj3CqVOnsHXrVqSkpBR4j6enJ959912TYlYqlULCzxwxaDLX8ZofBwAsWbLE5OHUqlevjjFjxgAAvv32W6Smpmq9nr/f9F0DNLVu3RrdunWDQqHA119/bVIc+YkFpVKJQ4cOAcgb2s3Pzw/VqlWDWq3G06dPcePGDeTk5OhcR36sCoUC8+fPL/QaGBISAisrK4SGhiIsLKzA65988gns7OwKjf3ChQs4fPiwwTINGjTAsGHD0KhRI7i5uSElJQUPHz7EH3/8gSNHjiA3N1erfPv27dGpU6dCP1vTgwcPsHHjRqPKltR+bdCgAQYPHowmTZoI/xfJycmIi4vDxYsXsW3bNq3z3fvvvw93d3ejYs63YsUKg/9f5rwn/OyzzyCTyQotd+bMmQLzK1lbW+Pzzz8HkDd+740bN4z+XABwdXVF165d0bx5c/j4+MDJyQmWlpZIS0tDdHQ0wsPDsWvXLiQkJBi1vsDAQPTr1w9+fn5wcnJCVlYWbt++jUOHDmHv3r0FjkFN5rouFvX+tbj/D8XdFy8r6n1O1apV0adPH7Ro0QJVqlSBg4MD5HI5nj9/jtjYWDx58gS3b9/G0aNHjb5nflnTpk3Ru3dvo8ouXLhQaPCkz5AhQ1C3bt1C1/XkyROsX79e7+sBAQHo1q0bAgICULFiRchkMmRmZiIlJQUxMTF4/Pgxbty4gSNHjhj1+yWfRCJBw4YN0axZM2HuP3t7e9ja2iI3NxdPnz7FpUuX8Mcff+DRo0eFrm/QoEFo3749vL294erqCktLS6SmpiImJgaHDx/G7t27dbZotba2RseOHdGmTRvUqVNHaxsTExMRERGB/fv34+bNm3o/25z3e/mK85vKmPu2tm3bokuXLsjMzMSSJUt0lvHz80P//v0BAPPmzTPYS7o498v515Pw8HAcOHBAbzngf9f3kydP4tSpU1qvad5XLViwQO89BwB4eHhg/PjxEIlEWLduHaKjo3WWs7W1RXBwMFq3bo2aNWvCyckJSqUS6enpiI+PR3R0NO7fv48TJ07orOswhqurKz744AOjym7btg23b982WKY41wzgf+dtpVKJZcuWGd0SfOzYsfDy8ir0nAIU7/g25f5Z87w6Z86cAq8b87+SL7/uJSoqCr/++qvWa+a4Vs2bNw8AsHfvXly9elV4vnnz5ujVqxeAvCGeb926pXcdAwcORIMGDZCamooVK1YYfU42971lfn2hMffZ+WrWrIlRo0YBADZt2oT79+8bLP8qnHOo/BPVqFHD+DsXKrINGzagXbt2UKlUaNq0qVBxce/ePZOTC4MGDSpwkejatSu++eYb2NjY6HyPSqXCypUrsXr16iLFP3z4cHz11VcA8uaTSExM1Hrd29sbx44dAwBMnTpV55wLL1uxYgX69OkDuVyOevXqmRyTq6srLl68aLDM0aNHMXXqVIM3RACwZs0aYfJMQ27duiVckDTNmjVLqJgyJCMjA1988QX+/PNPg+UqVaqENWvWoEmTJnrLbNmyBXPnzjV4Y12vXj389NNPqFKlit4yu3fvxieffFJo7PkuXrwIV1dXbN26VeecC/osXLgQgwcPBpDXi+flGwXNY8zf3x+ZmZnYuHEjWrVqhYSEBAQFBSEpKUnnun/77Te0b98eYWFhwg1SviFDhghDko0dO7ZULmR9+/bFwoULYW1trbfMp59+il27dhV4fsiQIZg7d64w+fTL4uPjMWHCBFy/fr3Aaw4ODlo3UIb8/fff+Pjjj/Hs2TOdr3ft2rXQG6J84eHhmDBhQoEKWU3F2S4AOHjwoFE/7KOiovDBBx8Y/OH61VdfYfjw4Xpfz8jIwOTJk3HmzJlCP89U+eeKyMhIdO7cucDrMpkMv/32G5o1a4b4+HgMHjy4wA8skUiEadOmYdKkSRCLdXdATE9Px9SpUwsc702bNsXOnTtNilmpVMLX19dsMeQrqeNV1zWqMC1btsTWrVsB5P0QfPmHcf5++++//xAUFKR3PfXr18eOHTtgY2ODFy9eoE6dOibFsXTpUvTv3x/379/HwIEDMWHCBAwbNgwODg5a5TIzM7Ft2zYsW7aswETPvXv3FoZT6tmzp8EfztWrV8eJEycA5P3Qi4iIKFDm8uXLcHZ2LjT2X3/9VTiHv8zS0hKzZ882+H93+fJlvP/++0hOThae+7//+z989NFHhX62pvPnz2PEiBFGlTX3fpVIJPj8888xZswYiEQivevr0KEDnjx5Ijw29vymqWPHjnorCc19T3jt2jUh6WfIDz/8UKBiTfP/3Nj7Q01Tp04tdG6unJwczJ07Fzt27NBbxs7ODqtWrTI4FOf9+/cxfvx4g9+rOa6LRb1/Le7/Q3H3haai3udMnz4d7733HiwsCm/fNmbMGPz9999Fiu+dd94RKpcK4+/vX2gS48cff0SXLl0KXdfVq1fRr1+/As/b2tpixYoVRieH6tatW+hvF03GHptKpRK//PILlixZYvD3w7Fjx7R6/r7s/v37ePfdd7XOY0De9Xfbtm2FxrF9+3bMmjVLZwzmvN8Div+bqrD7NiCvcu3TTz9FSkqK3s8JDg4W5lDy9fXV+/2b637ZmN9p+b/pVq5cWWAYRs1jqlGjRkhPT9e5Dnt7e+zevRs+Pj4AgP79++PKlSsFynXv3h3z58836n5C17XEWL6+vjhy5IhRZd9//32tCWw1meOaAeRVwudX8q5ZswbLly8vNC5/f3/s2bMHAPDo0SN07NhRb9niHt+m3D9r/lavWbNmgdeN+V/Jt2rVKgQFBen87W6Oa1V+Yvvl65C1tTX+/PNP+Pj44O7du+jdu7fOhof+/v74/fffIZFITI7BnPeWTk5Owr15eno6AgMDC224BeTdk3fo0AEAMG3aNOzbt09v2VflnEPlH3sulJLQ0FC0a9cOYrEYLVu2FLKO8+fPL1Ax06tXLzRu3BgxMTEFMrkACtzIDRw4EIsWLYJIJEJ8fDw2btyIf//9Fy9evICvry+GDx+OOnXqYNq0aXBzc0NISEjJbagJKlasCADIzs4u0vuTkpKwe/duhIeH4+7du0hLS4NYLEbVqlUxfPhwdOrUCV27dsWUKVMKHbs/fx9cvHhR501Gz549ERAQUGhM6enp+OmnnxAZGYlnz55BqVSicuXKaNy4Mfr37w9HR0esWLECtWrVwrJly3Suw9nZGXv37oW7uztycnKwZcsWHD16FM+ePUO1atUwYsQIdOzYEcOHD0dWVhYWLlyocz0BAQHYuHGjcMH6/fffcfr0aSQkJEAikaBKlSpo3749QkNDC90uc/j999+F5EKnTp0KbYWgVCoxZcoUHDx4EJUqVcKyZcswZswYk1pyAXlzpOTm5sLCwgJffvklRowYUeTWMMYYPXo0Zs+eDQBITEzE1q1bcfnyZaSmpkImk8Hb2xudO3cWKvQ0TZgwATNmzACQN976zz//jFu3bkEqlaJly5aYMGECKleujM2bN6NLly6Ij4/XG8fJkydx7NgxPH36FFlZWZDJZPD09ETfvn3RtGlTdOjQAQcOHMDgwYMLnFNeNnnyZNy5cweZmZlQKBRwcnJC5cqV0alTJ4wcORLNmjXD8uXL9baIN+d23bt3D9u3b8fjx4+RlpYmHMsdO3ZEt27dUL16dezevRuTJ0/GX3/9pXMdFy5cQEpKCq5cuYKYmBjk5OTA2dkZTZo0wcSJE1GhQgWsXr0anTt31pvQKglSqRTr1q1Ds2bNkJSUpPdYXbJkidD67ebNm9iyZQsePHgAmUwGPz8/jBw5Eq6urli/fj2mT5+OP/74Q3jvkydPdLaMmTx5MpydnXH+/PkCx6au1nXFiUEXcx6vJcnQ+cfFxQXr1q3TW6FrDE9PTwCAXC7Hvn37hMf5x3vlypWF1tLjxo2Dn58f3nvvPa2KsbNnz0KlUkEsFqNt27YGkwtNmzYFkNfD7Nq1azrL5F8ff//9d2GIO00TJ06Ei4uL3s8QiUT48ccfhR/oR48exfbt2xEdHS20BB8xYgSaNGmC9evXo3///sIxd+bMmQKt/PJ79gDA1q1bC7SMjomJ0RuLPubar9999x26desGIO//Iv87y8rKgoODA+rXr4+6devqPYYjIiIMXpOrVKmCsWPHGoyhJO8JQ0NDdSagJkyYINzTmds///yDzp0749ChQ7h69SqSkpKgVCrh7u6OevXqYfTo0XBzc8PChQtx7949nfHZ2tpi165dqFWrFtRqNY4fP479+/fj6dOncHFxQfv27TFgwAD4+Phg7969GDx4cKE9O4pzXSzq/Wtp/T8Upqj3OVOnTsWkSZMA5DXW2bx5M65evYqUlBSIxWI4OzvD399fb5LSFPkNt+Lj47Fu3boCr9erV09nEqAwN2/exN69ews83717d+F8qsv69euFYUGPHz+OvXv3CsePlZUVXF1d0a9fP4MJWGP99ttvuH79OhISEpCTk4MKFSrA19cXAwcOhJeXF8aPH4+GDRti5MiReltd//nnn8jKysLNmzeRnJwMhUKBSpUqoWvXrhg1ahR8fHzwzTffYNCgQVrnzytXriAqKgp/KH7jUgAAIABJREFU/fUXLl68iOjoaGRnZ6NSpUqoXr06hgwZAn9/fwwZMgTR0dFYu3at3u0wx/2euX5TlRZz3i+bk75rpFgsxqpVq4TEgj5t2rTB6tWrIZFIkJiYiI0bN+LChQuIi4uDSqWCvb09PDw8sHz5cqOSD4ZoNtpcunRpgSSdra0tpk2bZnAd5rxm5M/7B+QlTDds2FDob4vPPvtMWK5UqZLecuXt+H4VyOVyfPTRR9izZw9q1aqFDz/8sEA9kbW1NZYtWwaJRIKDBw8WORFvjntLzePH3t4eEydOLHQe11atWgmJBSCvl6E+r+o5h8qnVz650KdPHwwbNgz+/v4A8lqEbN26tdCW368aza5Ivr6+QnLht99+K1C2Vq1aaNy4MRITE/HLL78YXK+Xlxfmzp0LkUiEiIgIjBkzRqtlQX73+6+//hpDhgzB0KFDcfr0aaMz+iXFxsZGaJVSWDctQ3S1uL9//z5OnTolZMTHjBmD1atXG+zyLJVKAQCXLl3S+Z3XrFnTqORCYmIi1qxZU+D5gwcPYs2aNVi7di1atGiBSZMmISIiQmcF8+LFi+Hu7o7MzEyMGjVK64fy/fv3cfLkScydOxcjR47E2LFjsWvXrgI3NFKpFMuWLYONjQ3i4uIwcuTIAt9zREREoV3XzOn69evIzs6GTCYzuqdKcnIypkyZgi1btqB9+/YYN26czh+JhiQkJGD16tWYNm0aqlatitDQUHz//ffYtGlTkbvb6+Pr6yt04/znn3/w3nvvISMjQ6tMeHg4tm/fXuC9jRo1wvTp0wEABw4cwEcffaT1o+/69es4evQo9u7dC0dHR8ycOdNga84//vhD583Qli1bEBwcjEWLFsHNzQ0rVqzAoEGDDLZgu3TpklZLlmfPniEyMhIXLlxAcnIyPvnkE3Ts2BGurq4FbpjNvV3h4eE6k6579uxB/fr18dNPP8Hd3R3Lli1Dz549ERsbW6BsaGhogQq8R48e4erVqzh79iwOHDgABwcHDB8+vNRaVVhZWeGHH35A69at8ezZMwwfPhwPHjwoUK5Pnz5Cpf7GjRsxb948rZvX06dPY/Pmzfjtt9/g5+eHr776CuHh4UIFU3x8vM5z3MiRI+Hs7Izr168Xet0pbgy6mPN4LUmGfmCvXLlSGOqnqD+OPTw8AOQNq6NWq7F//36sWLECDx8+FMp4eXlh+vTp6NWrF5o3b46QkBDhhwEApKSk4Nq1a2jcuDHatWtnsDt98+bNAeT9X+n7TvNbMu3fvx9nz54t8PqwYcMMJhfGjh0rJBbmzZuHDRs2aL0eHh6OixcvYs2aNWjUqBGGDBki9CK5du1agaSHm5ubcI44duxYkVs2azLHfh00aJCQWFi3bh0WL15cIDF37tw5g3Hcvn3b4P9f48aNDSYXSuqeML+V+blz53S2Sh48ePD/Y+++o6K43j6Af3eXuvQmIEgREFCIJTbUX0RjTWKLvXfFkmBDEzVq7GI3xoaamGA9aogmMWqMRoyJJVYsiBWQXqSttGXfPzgz7y5bZ3doyfM5J+dEtt3duTP3mVueW22DC9euXVOZ3ubZs2e4cuUKTpw4gfPnz8PW1hajRo1SObiwaNEiNGnSBFKpFHPmzFG61pw/fx5HjhzBd999Bzs7O2zcuBEDBgyotnYR0C9+ranzQRN94xxbW1tMmTIFQOWkj7CwMKWO7ZSUFI2pF7hgrluvX79WeU716dOH0+CCsbExgMrZsKrez9PTU+3gQufOndmBhcjISJUrDJKSkuDj48PL4MLOnTuVZh+fP38eu3fvxsKFCzF+/Hi0b98eERERajsbVa1qevnyJa5fv44XL15gxYoVePfdd9G2bVuFdHqlpaXo2rWr2teeOHEC0dHRaNeuHUaNGqVxcIGPeI+Pe6qawne8zCd1beQnn3yCzp07a20f586dC5FIhNevX+Pjjz9Wqp9paWlISEiARCIxeHBBfvZ1VFSU0nXGyclJ6+ACn20Gk/JQJpNBLBZj2rRpGgdQO3fujLZt20Imk0EgEMDc3BxWVlYqV47Up/pdl8TFxWHbtm2YM2cOpkyZgnPnzim0rREREWjcuDEyMjLwxRdf6P05fMSWzOACUx9GjRqFvXv3akwFyVxHmNeoG6Cqy9ccUj/V6Q2dFy5ciC1btqBt27YwMTGBiYkJ2rZtiy1btmDhwoW1XTzWsGHDMGbMGI3/hYSEsM/nmldXk3nz5sHc3ByFhYUICwtT2fBUVFRg8eLFePjwIQBg8eLFGpfr14S5c+fC1tYWAKptoGPPnj0AKkefNc0mAv5/cKHqDRKfcnNzMWnSJDaX+8qVK5WWhbdv355dRrh27VqVN8nMY1lZWRCJROjXr5/S4yNGjICXlxcAYNasWQYN4PClvLyc7Vx0d3fX+XVMpxNQ2djrsjdGVV999RU2btwIqVQKsViMuXPn4urVq1ixYoVSuhdDzJ07F8bGxsjJycGMGTM41afPPvsMIpEISUlJWLBggcrZZC9fvmRzWPbs2ZPdT4KrmJgYrFu3DkBlZ9WwYcP0eh+gchUAQ352BaMmv9eDBw8wdepUSKVSNgjiKj4+nk3j87///U+vcnBlYmKCnTt3onPnzsjJycGIESNUBv9CoZD9Tnfu3FHq1Ge8efMGYWFhePv2rU4ztLiojTLwWV+rS3h4ODp06ICXL19i8+bNer8Pc4MhkUgwatQohIeHKwwsAJUDYZ9++ik7QDZo0CA0adJE4TlMuxoSEqKUUkkeM7ggvxdUVUz7yHUfC6AyrQBzI/Lzzz8rDSwwzpw5w8481Wc2cXXR9biKRCLMnz8fQGUamjVr1mjMp11dqismZDpWa2rPIi6ys7PZzk1mpY88Pz8/9pqxd+9etTMQHzx4wF7bgoKCMGDAAL3LpK1d1IZL/FrT9I1zgoKC2H07Nm7cqDVPuaH4juuZeF2fc6BNmzYAKu8DuE6Q4ZNUKsWKFSvYFdqTJk3SKwY+cuQIm+6La5wklUrZCXYuLi7stYUrXeI9vu6pakpNxst86NixIz755BOUlJSw7Z8qxsbG7P6K+/fv55y2kivm3C8tLdXrOsN3m8F07DKTJkaMGKFxNQITM0VHRyu9h7z6Vr/rmp07d+LWrVsQiUTYsGEDW2/at2+PcePGAag8JzWl/NUXl3sGZtVBSkoKLl68CDMzM4SFhal9fmhoKFq2bIn09HT2Wq+uvtW3aw6p++rs4ELfvn0xadIktY9PmjQJffv2rcESqff5559j2bJlGv+Tz5HK10kpFovZ3J3R0dEal9hVVFSws1Dc3NzQsmVLXsrAVYsWLbBz5052f4Lnz5+zjS3fHj16xM4g0LTnAAC280XXTZb0VVRUhC1btgCoDKrll6wBYOt0bm6uxrzoxcXF7B4XqmYIMftCXL9+XWte35rENNC6bA4q76uvvsI///wDIyMjbNu2TaeNJav6+uuv8eGHH+L8+fPs7JGRI0fi7NmzOHjwoMIAoD4sLCzY4xkdHa1TPkSGs7MzO6vtu+++05gqjFltYmJigk6dOuld3gMHDrCpOZh0Vfpggh5mo9mqj9X094qLi2NT8PTq1Qs2NjZ6vQeg/brBB2ZgoUuXLsjKysLw4cPx5MkTlc9t3749GyBu3bpV43LbtLQ0Nv94jx492KDZULVVBr7qa3Vo3749ZsyYgdLSUsycOdOgziwmf/m+ffsUOiirkslkWLduHaRSKQQCATtjnsF03hgZGanNE+7i4sJ2xqr7LEtLSzYtkj6DC127dmWv97t379b4XGZFaosWLQyeucgHLsc1JCQE9vb2AKBy9WJNqM6YkEkzoW3T29ri6OgIACo7rZhVD2VlZRpnSQOVg3LM5o6G3GNoahd1wSV+rUmGxDnM+QFUT6qmqpi2n6+4nhlc0CeVK/Pd09LSam3VnbxVq1YBqExZN2TIEM6vl0qlbLo9feonc76+efPGoAFLbfEeX/dUNaE24mUuqsZ69vb22Lx5M4RCIVauXKlx3wt7e3s2jqjJc1+fmAXgv81g6vuFCxdw7tw5mJqaYurUqSqf27lzZ7Ro0QJpaWlsfwEAlatD61P9rouYVSkSiQQ+Pj6YN28eLCwsEBkZCYFAgMOHD1fLPo1c7xmY+pOVlYWNGzdCJpNh+PDhagcMmM3Mv/76a/a+SVX9qevXHFI/1dm0SCNGjNDpOXUhPdLff/+t04BBhw4dAEBp80V9tW3blu2IUJdrUl5sbCxKS0thYmKC9957T+0It6GGDBnCXqxMTEwgFovh5OQEX19fhQ6DhIQETJgwQeFmddCgQWpnWcbHx2tNKSBPKpWisLAQNjY2GmduAv8f+FfnygXGuXPnsHr1ahgZGSEkJETh2DGpl65du6Y14GZmNledqScWi9mOgosXL/JZdIMxN2dcZ3RKpVLMnTsXv/zyCzw9PbFgwQIsW7aM8+c/efIEU6dOhbe3N0aPHo2PP/4Y1tbWCAkJQUhICH777TcsWrRIoYOiY8eO8Pf3V/l++fn57CZRbdq0YTtPuf7u8h072jYRTk9PR15eHmxsbNCoUSNOnyOvoqICv/76KyZPnoxmzZqpXXKrSYsWLdj0CD/++KPSZru18b2AyrRHAwcOhEgkQps2bfDbb79xej2TlkHbdcNQpqam2LlzJ0JDQ5Geno5Ro0apTIXEYGYISiQSjR3PjN9++w3jxo2DpaUlWrVqpdNrtKmtMnCpry4uLggODoarqysbUKekpODWrVtK+ci5qnqDbWlpifXr10MoFCIyMhIPHz5UWkWgK1NTU3YGuS5tUVJSEh49eoSgoCB06NBBIY1FYmIi7t69i+bNm+ODDz7AiRMnlF7P3CDk5+er7RiQ7xDUp31k2rTc3Fyt++wwbZpQKISbmxunjktDGXpcmd9SIpEopAipSdUVE1pZWbH10tBjYmVlhZCQELi7u8PBwQHm5ubIy8tDfHw8bty4wTk+NjIywpQpU9iNLOVnejKYa9b169d1auMuXLiAwMBAhISEwMjIiPPMV23toi64xK/60udYGBLnyA+y+Pv748aNG4Z9AS2Y+w2+4nrmOOgzi5X57h4eHhCLxdU+kUmbpKQk3L9/H8HBwWjfvr1e76FvnNSlSxd2gpmq85UrTfEeH/dUNaW24mV9rVq1Co6Ojjh//jwOHjyocYVWZmYm29b4+/ur3UCZL4ae+3y2GTY2Nuy9b1ZWFrZv344ePXpgxIgR2Llzp9IkgJkzZwKonIyRm5sLiUQCsVissnO4PtVvQzBtVaNGjeDg4ABTU1NkZ2fjwYMHuHPnjkGrRBMTE7Fy5UqsXr0a48ePR9OmTeHu7o7ExER2ENYQfNwzMMc+OzsbDx8+xMWLF9G1a1dMmTJFaQ+9jh07omXLlsjIyMCxY8fYjcSZAQp59e2aQ+qHOju4wOyxYOhzaoK60Wd59vb2uHnzJgD9AlNV5BtyTR1SDIlEgtTUVHh6euq1TFtXHTt2RMeOHVU+JpPJkJCQgKNHj+LgwYNKNy8zZ85U2/AdO3ZMaXDBwcEBQ4cORbt27eDr6wsbGxuUl5cjJycHT58+ZW+CNC35NzY2Zkd/9ZlhxlV+fj5SU1PRqFEjeHt7KzzGpAsKCAjQOluCmS0kFothamrKbljl7OzMft+6lleRSYXFtRMbqAwAVq9ejZUrV2L06NE4c+aM3p04L168wPLly7F+/Xp8/PHHCAsLg5ubG7p16wZ/f38MGjSIHWDo06eP2pldiYmJ7OCCfLozrr+7fEM9d+5crTPbmGXk8h1/+mA2ZxUIBPDy8sL9+/dVPm/NmjUK56qNjQ08PDzY/PCnT59WuSS9tr8XAKVzjBEaGopevXqhefPmaNCgAduxkpaWxnnTcH2Ymppi79696NixI5KSkjB69GitG40zdSwpKUmnTjj5jnRNm3lxUZtl0LW+/vjjj2rf4/bt21i2bJna13K1dOlSuLm54e+//1aZG5oL+Rukqinz1Hn48CGCgoJUpls8cuQImjdvjk6dOsHOzk6pY5i5gb506ZLac5M5h6VSqV6buDGvF4lEWts0pmMcUD3LqiZxPa7M7//8+fNaSYcEVF9MKH9Tamg6C1WbyTMKCwuxb98+bN++XW19XLNmDYyMjNi4LTAwEDY2NigoKMCyZctUTkBhvpuu6SGZ304kEsHR0RFpaWlqy6JPu8jgI341hD7HwpA4Jy4uDikpKWjYsCGWL1+OKVOmqN3YnA/MvQRfM6U1rY7R5rfffkN4eDgsLCywZs0afP7557U+wBAfH4/g4GC1MZKJiQn69++P9957D82aNYOdnR2MjIyQk5OD5ORk9h5EU/2cNGkS/P39IRAI4OjoCB8fH7i5uUEqlWL//v287GmlKd7j456qplRHvNymTRuN5znAfSU5UDkRsGfPnsjJydEp/WhFRQV+++03fPDBB5g0aRL++ecfXL16lfPn6oo59/W9p+ezzZCPZbKyspCWloYrV66gU6dOGD9+vMJGwm3atMG7776L7OxsdtVvVlYWPDw8VMZE1VG/FyxYoHGFoq5p1BwdHbXWPSZVljaa3ic1NRVr167Ve8NloDJWfv/99/H+++8jJCQEFRUVmDt3brVco/W5Z2COPTMQtWPHDnTt2hXDhg3D9u3bFfoVp0+fDqByr5HS0lK2vVJVf+rTNYfUH3V2cOHfRv4Ezs7O5uU9mUC3oqJC5w3QsrOz4enpWW0b7wGVG7UxHUrl5eXIz89HQUEBkpKScPfuXY1lffXqldpZYlU3rhk0aBCWL1+u0CEBVHaCWFtbs3sOaOPt7c0u+a+a27q6ZGVloVGjRrCysmL/JhAIIBaLAQBeXl46lx+oDBaYQEG+AeF7w2JDiMVi9jzQ93c+dOgQunXrhtDQUERGRqJ3794GNf5v377FwYMHcfz4cSxbtgxDhw5Fo0aNsHz5ckybNg1AZb1TN9tZ/qaV+d2lUinnMjHHHYDaFCaqGJpiTX7GjHxdrErTMtri4mLk5eXB0tJSKSCti9/Lzs4Ou3fvVspjLZVK4ezszFsnvDZubm5sJ1RqaqpON7LMNV/XmbDybQ1f1/zaLIOu9TU3Nxf3799HRkYGCgsLYW9vj6CgIDRu3BgtW7bEkSNHMHr0aL1W78kPPIWGhmLgwIEoKipCRESEwYNSZWVlKC8vh5GRETsQqw1zHFTdOJw+fRpffPEFxGIx+vfvr3AjIxAI2EkAmmYR+vj4AKgcTNInnQdzDbC2tkavXr04v66mGHpcmd+/Ntvc6ooJ5euWoYMLhYWFuH//PtLS0lBUVASRSAR3d3e0a9eO3Z8jMDBQbT7hAQMGKGzWybh69aralTHM76Lrqgv5a5uTk5PawQV920WAv/jVEPocC0PinOLiYnz22WfYvXs3/P398fvvv+PGjRt49uwZCgoK2OuLpms7F40bNwbAT1wvEAjYDhVNm2iq8/jxY2zZsgVz585Fnz590KVLF1y7dg2JiYl4+/Yte40JCAgwuKy6YtpTsVgMkUikcH0PCgrCnj17lAYdpVIp3N3ddd43rVOnTnjvvfeU/v7kyRNcvnyZlxRR6uICvu6pakp1xMt+fn687SvH1FFnZ2d2g9tFixbp3KexatUqBAUFwcPDA9HR0Xj06BHi4uKQk5OjcN/Px0otJm7R99zns82Q74hlnrdjxw506tQJI0eOxI4dO9j0Tcy1dv/+/Wy7wbTlVWO86qrffO15ZW1trVMWEl28ffsWjx49wqtXr1BQUABzc3P4+PigVatWcHV1xdatW+Hk5IT9+/fr/RmXL19m00oyEy/4wMc9g/zKBQC4desWrl27hnbt2mH06NHsquXg4GCEhITgzZs3OHz4MID/rz+2trYQCoUKk1/q+jWH1E91dnDhzp077EaDmp5TX8hvQstXOiImsBcKhTAxMdEpEGIuJNWZ/ufHH3/UewSZWb6lTYcOHbBu3ToIBAI8efIEX3/9Ne7du4e0tDSUlJTAysoKQUFBiIqK0tpJwSwrTE9P12tmpj6YwQz54yCTyVBUVAQLCwucOnUKP/zwg87vJ9+hIX8jW9MdNJq0adOG/d53797V+30+//xznDlzBo0aNcK8efOwfPlyg8tWUlKCzz//HF5eXmjXrh26d+8OZ2dnpKenY9OmTdi0aZPW92B+d5FIBBMTE07pHZh6IJPJMHHiRJ0DDkNn/TE5UOXLoMqECRMUOqssLCzg5OSEDh06oGfPnhg1ahS6d++OgQMHKswUqq3vxdQz+TIwdu3ahdatW0MqleLAgQP46aefkJiYiJycHIhEIri5uWHmzJkYNGiQQWXQ5uXLl4iOjkZERATatm2L06dPIywsTGP7wNyA6LrniPz5r2/u2bpUBl3ra69evVR2gr7//vvYsGEDbGxssGbNGqV9CriwsLBgl0yvWLGCt9mxmZmZcHV11XnPAfm6XpVEIsGpU6cwbNgwDBkyRGFwoVmzZrC3t0dpaanGnLJM+3jv3j3dvkAVzHF68uQJ1qxZo/Pr+FpZwpW+x5W5/uuzHxBfqismDAoKAlB5Y2toWqRFixapjA8dHR2xcOFC9O/fHz169MAHH3zAblgub8aMGRCJRBAKhbC3t0eLFi3w/vvvo2fPnnjvvfcwY8YMpfoskUhgZWWl1JGvjq7XLH3bRT7jV0PocywMiXMA4MqVK/j444+xYMEChIaGon379nqn5dHEy8uLvYbqe+2S5+/vz64m03U2c1Vff/014uPjERERAT8/P7Yjq7Yw7enbt28VOvltbW0RHR0Na2trvHnzBtu3b0dsbCxSU1NRWFgIU1NT+Pj4YO3atey1QZ1t27ax++pZW1vDz88P3bt3R2BgIL799lts27ZNIa+8PtTFe3zdU9WU6oiXb968yeZKVyciIoLThJ7ly5fDysoKMTExOHv2rM6vS01NxYABA/Dpp59i1KhRCAwMRGBgoM6v54JJ96Lvuc9nm8FMFCkuLmavl3///TebtnLEiBGIioqCn58fQkNDIZFIFPaiZNrcqvuJVFf9Xr9+vcZ2r3Xr1vjoo4+0fgaTAkqTQYMGab2GAJWbDqtqq5o0aYJNmzahadOmmD9/Pn755Re1kwE08fb2xoIFCwBU/jbW1tbYtm0bhg4dytseOYbcMzDHXv647d69G+3atcPYsWMRFRWF4uJiNpPKwYMH2XiQWdUgFAphZWWlELPUl2sOqV/q7ODCoUOHtA4uVNdGwNWB2WC3uLiYt0ER+dkzzs7OWlNqAP+/W7yhs89q27Rp0yAQCJCYmIgBAwYobUJTUFCAv/76CyUlJVpvzpjZm9Wd/1WeuuOQlZUFCwsLlJSU4I8//tDrveVn8ajb7Kc2jB49GkBlI2ZIvs309HSsXLkSGzZswJgxYzSmQOHq6NGjaNeuHYRCIRo3bsxpsEn+WDZo0ADJyck6v5Y5ZgKBAPHx8bzNmNBGfpa+pmvCgwcPVD7+ww8/YNOmTYiJiYGzszPmz5+PWbNmsY/X1veSr/fy5X733XfRpk0bAMCSJUvYmR0MqVSKxMRExMXFVfvgQkVFBfbv34/r16+zMwSjo6MxdepUtbkvmWu+rqsr5H8HfWZb1rUy6Fpf1blw4QJWr16NdevWwc/PD4GBgexGfLpigu/PPvsMrq6uuHz5ssaN9LhKTEyEq6sru6pFG2aGnbrZg0eOHMGwYcPg7++P5s2bswO7zKzrq1evqp2BLBQK2Y4/fdtH5hpgZmamd5tWEww9rkx9rM02t7piQmYPrX/++cfAEqqXlZWFiIgItGjRAl5eXujbt6/KwYWqe0kcOnQIFhYW2LVrFzp27IjIyEi2g4aRkZEBKysr3q9Z+raLfMav1UHTsTAkzmHEx8fjxYsXCA0NRVpaGjZs2ABTU1O2s9vW1hZz58416DswcX1mZiZevnxp0HsBYK+DeXl5OqUcU+fixYvsZptXrlzBqVOnYGJiwqYWatmyJW8zh7VhzoeqdXjkyJGwtrZGeXk5hg0bhidPnig8XlJSgocPHyI5OVlrx6CqyRLr1q3DvHnzEBYWhk8++QQXL140aMKRungP4OeeqqZUR7z85MkTfPfddxqfM3PmTJ06+mQyGT788EN0794dmZmZ+PLLLzmXJzc3F1evXsXYsWMhlUqxcuVKlJSUQCgUsufA3LlzdV65qYqvry9bt/WNW/hsM5iVGFXTAe/atQs7d+7E+PHj8c0332DKlCkQCAQ4evSoQgewpr1NqqN+Hz9+XGM8IJVKdRpcyM/P11r3WrdurdPggjpPnjzB9OnTcfHiRZiYmKB3796c05MaGxtj69atEIvFuHTpEjZs2IAffvgBrVq1wrx587Bu3Tq9ywfwc8+gqg5dunQJjx8/RkBAAAYOHIjY2Fj07NkTpaWlOHDgAPs8+ZRJ1tbWCnWrrl9zSP0k1P6U2nHq1Cns3btX7eN79+6tE5s566JZs2Zsh9apU6d429D54cOH7P8zm0VrEhAQwC7P49qhUtcwsx1++eUXjbvbayMWi9GlSxcAwPnz53kpmzYuLi7sUuPHjx8rPMYcl6opW7jIyMhgZzpoG6CrKSEhIezvfO7cOb1uSOWdPHkSf/zxB4RCIVasWKEwo9kQ8g1r1Vki2sgfS6YzRlfy56Mhx56r5s2bA6gM+PXt+E1NTcXJkycB/H8Od0Ztfy9A8bgw1w2ZTMZplk91iouLw4ABA5CQkAAzMzNERUWpTbfB/J6urq46LYGW3/um6rVGX7VZBj7qq3xOdn02tpPJZHjnnXcwfPhwSCQSnfINc3H79m0AlblomfymmjAb2ar7be/du8fGCswAL/D/S6A1tXtt2rRBgwYNUFFRodMGwaow9cXDw6PGUo7pw9Djyvz+8unOalp1xISmpqZse8bXqlt1pFIp/v77bwDczs2ioiI2x6+jo6NSW8P8LiEhITq9H/PbJScn673KV1O7yFf8Wp3UHQsZmMEpAAAgAElEQVRD4hxG69atMW7cOADA4sWLcfLkSRw+fBgHDx7EwYMHeZkwwkzo4iuuZ1L73L5926D0d2FhYQgODkZhYSHmz5+P48eP49ChQ+x3Z37zmsC0p1XbDqZ+3r9/X2lggQ8VFRXYuHEjsrOzIRAIDFpBCKiP9wB+7qlqSm3Fy7qysLBg0yEtWbJE59R78mxtbdnZ29988w0OHDiAI0eOKJwDhq5wZc7958+f6z0QyGebwXQMV10tcP78ebx8+RIuLi6YNGkS+vXrB6lUqtQ5znQoqxpcqE/1u7okJiayfQr6bDQ8a9YsBAUFsYPqDx8+ZLMVTJ482eDflo97BnV1aM+ePQCAiRMnYvLkyRCJRIiJiVGYZCpfH6vWobp+zSH1U50dXACA1atXY9asWbh+/TpKS0tRWlqK69evY9asWVi9enVtF08nIpEIa9euZfOcMRcCPjx//pwNpIYMGaJ107ehQ4cCAEpLSw2aOV4XMEsVDV26OmjQIIjFYhQWFtbY4EL//v3Z/696HJgOHG9vb71v3JiNswCgR48eOqfXqC4eHh7YunUrBAIBJBKJwbMAGIsWLYJEIkFQUJDev1VV8p1fXJdWxsfHszNFmXNNV0+ePGGDo+HDh3N6rb7EYjF7U3fhwgWDln4ys0SrpgSpje8FVOblBiqXbsoHT0z5ysrKNG5YVtPS09MxZMgQxMXFwcTEBLt27VJ5U/Prr7+yx0lbHRMKhezqizt37hg8oFfbZeCrvsp32Kvb30cT+QHNdevW6b1hoDqXL18GUHkjr63TpXnz5mzHn7rVLgDw7bffAgD69u0LFxcXuLu7o1mzZpBKpRrbPSZN4V9//aXXUnNAcab5sGHD9HqPmmDocZX/HWvre1ZHTDho0CDY2tpCJpPhzJkz/BZYBeb85Hpuyi/Tr5onnpl17+LigtDQUI3v4+Ligs6dOwOA1qX92qhrF/mKX6ubqmNhSJzDvOfq1ashEAjw008/4ffff+ensHKaNGnCrjTgYxKBn58fWyd+/vlnvd/Hy8sLM2fOBFA5e1/fayofmFUpgPJ9CFNfq8605pNUKmUn82jaTF4X6uI9gJ97qppSW/GyrmbNmoUGDRrgzJkznNIhyfv888/h6OiIpKQkbN68mecSVl5fmPbXkHOfzzaD2Qek6vlUUVHBTqKNiIiAkZERfv31V6U4mekcVjW4UJ/qd3Vi2iqu9wVBQUGYMmUKgMqVBcwK4KioKPzzzz8QCoWIjIzUOT2WKobGlgKBgN0AuWodOn36NFJTU+Hl5YURI0ZAJpNh3759Cs/RNLhQ1685pH6q04MLANh8wQEBAQgICMCwYcPqzYoFKysr7N+/H82aNQMAbN++Xe3GsPpiOg1atGihcb+Cd999F6NGjQJQ2eBWZ9BYE5iLsyEjrSYmJpg0aRIAIDo6mpfORk35rwHA09OTzYl36dIlpZx7v/76Kzsjd+XKlZxnzzMOHTqEiooKWFtbY+XKlVrLVV26d++OmJgYODo6oqKiAgsWLOBliTpQWQciIyMBQOMMX12DAqFQiJEjRwKobIz1mbF18OBBAJX1csKECZxe+/333wOoXH7PlMMQ2lZzREREwM7ODjKZzOAUc8ysHVU5JPn+Xtrqcq9evdhAnzkeDOa6YWJiYtBS3ICAALRu3VphLx1D5eXlYezYsUhISICRkRF27tzJbkjJyMnJYfOOTpgwAe+8847a95syZQqaNm0KAApLZA1VXWWoqfoqn+dan1ltQUFBCA4Oxj///IPo6Gi9y6HOtWvX2JzeERER7E1FVSYmJuwswsLCQo2dXjExMUhLS4ORkRHGjh3Lzuy7cuWKwgwneX5+fujRowcAaFxFqs3r169x8eJFAMDUqVMNOu+qk6HHNSUlhf2ekyZNYveqqGl8xoQeHh6YN28eAODMmTMG74WjjZmZGbvSiWuszKwOBqBUpy9evMh2iC9ZskTthAuRSIQVK1bAzMwMJSUlOHr0KKcyVKWuXeQjfq1umo6FIXHOpEmT4OvrC4lEUm2TxJgO/Dt37hicysvExASRkZEQCARISUkxaMBp2bJlMDU1RVxcnFJKRr5pipPMzMywdOlSAJVphKp2FDP1MygoCKamptVSPjs7Oza+UdcGAYbFewB/91Q1he94mU/Dhw9HXl4eW3e4atWqFTvZZOXKldWyamvIkCFwdnaGRCIx6Bzjs81gYjhVKzJOnDiBnJwcdiJA1Y5h4P87h1Wlkalv9bs6NGvWjB2g5BLTGxkZITIyEiKRCKdPn1YY6K6oqMBnn32G0tJSeHl5sXGQPgyNLc3NzVXu0wlAYaWLQCDA5cuXkZCQoPAc+T11VNWhunjNadWqFXr37m3QoA6pPXV+cKEumjp1KrZu3Yr33ntP5eZ91tbWGDx4ME6fPs0uhz537hy2bdvGe1mOHTvGzlhcsmQJ5s+fr5Cr0MTEBCNGjMCBAwcgEomQlpZWb1Z9aPLrr78CqMwb/emnn7IzA3QhEAggEokwZcoUuLu7o6ioCPv27YNIJFL7n/wMQOZvqnh6eiI6OhohISEKzxGJROjZsycOHz4MGxsbFBcXY9myZUqvLyoqYjco9vHxwQ8//ICePXsqBfhGRkYKqYaqunv3LtuI9e7dGwcPHkSHDh2UZjL6+fmhd+/e2n80FaysrBQ6vgQCAaytrREcHIyJEyfi9OnT2L17N2xtbfH27VvMnj3boFlfqkRHR2vdsOvLL7/E0aNH0bdvX7V5PAMDA7Fv3z62g+LAgQNq85Brsn//fnY57eLFi7FmzRr4+voqPEckEqF9+/ZsOhP51zKzTpcvX45ly5apTA3h4uKCcePGwcTERGNZvvzyS4SFhbE52eVfHxkZyXY8HTlyRO99YBo2bIjIyEh2xoyqgV++v9fgwYOxatUq+Pn5KfzdwsICU6ZMYTcHTEhIwP79+xWec/nyZfa4bty4Ue8OwC+++ALHjh1DVFSUXq9XJzc3F+PGjUNmZiasra2xf/9+pZuF5cuXIzMzE8bGxjh48CCGDBnCbjQJAPb29li8eDHmz58PAPj999953ZekuspQ3fXV3NwcY8aMYW8Sbt26pddAp1AoRHl5ORYuXGhQegx1ZDIZ1q5dC6Byiffhw4eVOuT9/PzwzTffsPV38+bNCnlVqyovL2cHCIYPH87m9I6JiVF6rlAohEgkwpIlSyAUCnHr1i1cuXJFY/vIYNrWqgNFS5cuhUQigZmZGQ4fPowJEyYoXYsFAgH8/f0xZMgQXX8qXvFxXJcsWQKJRAJTU1NER0dj2rRpbNohhlgsxkcffWTwbF11+IgJBQIBQkNDceTIEdjY2ODNmzfVHjcGBQVh79697O9y/Phx9rE+ffqgR48eKvcfMDMzw4ABA7Bx40YAlasBqqaWKS0txbx581BRUQEvLy8cPXpUKW2Un58f9u3bxw4+bty4Ea9evdLru2hrFw2JX2uCpmMB6B/nODo6Yvr06QAqNzfme+a+SCRC27Zt2XzgW7ZsMSiu9/Pzw8GDB9G8eXPIZDIsXbpUp03SVQkNDWVTKy1btgwVFRV6fkvdHDx4EP3791c6Z4KDg9nvBFR2SFbt9GRWKNnb22Pz5s2cU420aNECI0aMUGrLgcprS0hICA4cOMCWjTkfVDEk3gP4u6eSp64+ybd7ujxHFb7jZT4xM681DQapIxAIsHjxYggEAsTGxvKeKUAkEsHOzg6zZ88GUHkPl5eXxylukb8e8NlmMPVc1T1lSUkJtmzZgqtXr+LYsWMqY1tmEEZVf1N11O/6QiAQoEuXLti5cyeAyo53LitqJk6ciICAAOTm5qrcP+TZs2fYunUrgMpVvP7+/nqV09DYUv4armpA7ujRo4iNjcXVq1fZ36IqZvKsqjpU1645gwcPxvHjx/H111+zk2VI/VJnN3Suyz7++GP4+fmhT58+kEqlSE5ORn5+PioqKmBvbw93d3e2kWI27Vy7dm21BZOffvopduzYgZCQEISFhWHixIlISkpCWVkZGjVqxF6YkpKSMGnSpHq/agGoHN3v3r07/P39MWvWLISFheH58+fIysqCsbExzM3N4eLionK2wYwZMzBnzhz23xYWFjpv+hQYGIiEhATExcWhb9++Kp/ToUMHdOjQAfn5+UhKSoJAIECjRo3YG8iioiKEhYWp3Wzxl19+waJFi7B8+XJ4eXlh586dKC0tRUpKCiQSCSwsLNCwYUMYGxvj8uXL7GzJqlatWgULCwsMHDgQbdu2RXR0NN6+fYv09HSUlJTA2dkZtra2SElJ0SvdQZ8+fdhzoLS0FCYmJioHXX7//XesXr2a91U7QOX5tXjxYsTExKgM2s3MzPDBBx/AwsICbdq0gUwmw6tXr5CdnY3CwkKYmZnBy8tLIR3SmTNn2BsWrqRSKSZOnIioqCgEBQVh6NChGDp0KPLz85Geng6BQAB3d3eYmZnh5MmTCrPqpFIpxo4diz179qB58+YYM2YMxowZg8zMTGRnZ0MkEsHe3h4ODg4AKgeQmPzsqlhbW2P+/PmIiIhAYmIi3rx5A1tbW3h4eLDXp7Nnz7KBqSZnzpxBSkoKCgoKUF5eDnt7ezg6Oir8brGxsdi1a5fK34TP7yUUCjF8+HAMHz4c6enpyMjIgJmZGTw9Pdmg59mzZ5gwYYJSao2CggKsWLECq1evhp+fH44fP47U1FQkJyfj7du3MDc3h42Njc75vvXNx61Jamoqpk6dimPHjsHDwwPr1q1DWFgY+/ibN28wZswY7Nu3Dw0bNsTatWuxZMkSvHr1Cubm5nB3d2c7+mNjY9mbLT5VRxn4rK8XLlxg2+Xi4mI4ODjA29ubbQszMjKwYMECvb//vn37lGYH8en333/Hli1bMGvWLDRr1gynTp1CWloaMjMz4eTkBGdnZ/Y3+f7773XawO7QoUOYMmUKGjRoAGtra+Tn56u8Efvuu+8UbqJbtWql83cdN24cxo0bh7179yp0RicnJ2P06NHYs2cPHBwcsHjxYixatAivX79Gfn4+TE1N4eLiAgsLC0gkEpw4ccKgNG36MvS4vn79GuPGjcOuXbtgb2+PiIgIzJs3D9nZ2cjKymLPDZFIxOZbrw6GxIQCgQCXLl1iOxQLCgowbdo03tJ/rV+/HuHh4Xjz5g2Kiopgbm6utIH5/v37ceXKFfbfYWFhCAwMhFQqxatXr5CXl4eysjLY29vDzc2NvWEuLy/HggULVHbi3Lx5E7NmzcL69evh6+uL6Oho5OTkICUlBQ4ODnBxcWHPqV27dqmcQVqVvu2iIfErn/Q5FoD+cc706dNhYWGBjIwMzptuatO6dWulTTK5dEwwZQwKCoJEIsH69esxcOBAAJVx5urVq/Xed0YgECAiIgJA5USz6t67BKhMk7Jp0yaUlpbi1atXKC4uhrOzs8LGs5GRkewqRHlXr15FTEwM+vfvj169eqFnz5549uwZMjIyUFFRAXNzczg6OsLd3V3lZ/fp0wfjx4/HypUrkZqaiqysLEgkElhbW8PV1VVhsHPv3r0afw9D4j0GX/dUANC4cWOtbYSdnZ3e7Qjf8TKfbt++rfdqrh49eqBFixaQyWTsinM+PX78WOH+c9q0aZg2bZpOr2U6ZCdNmqQwe52vNoOZLa5uwlp0dLTGGe1Mx7CqwXWA3/pdV61fvx6ffvop8vLyUFhYCEtLS3h6erLnAdP2M/tNauPk5MSucFu/fj1ycnJUPi8qKgr9+/eHn58fFi1ahDFjxuhVfkNiS/njrmr1S0FBgcZVqkDloISFhYXKwYW6ds1hBuGByn1DTU1N9R7UJ7WDBhf0sH37dgwePJidne7p6an0nOLiYly6dAlbt25FfHx8tZaHSacxbdo0jBs3TmG5KVA5Mn7q1CmsW7dO7QW0vsnLy8Pw4cMRHh6OwYMHQywWs+k35JWXlyMhIUHvTZ24SkpKwuHDhzFu3Dg0aNCATYkFVM5IvXr1KlasWKE15c7hw4fx+PFjhIeHo2PHjjAxMVHaPDUtLU3jDN6ysjJERETg2rVrmDp1Knx8fGBubq7wPqWlpXj8+DFMTEx03mj8zz//REhICJycnNgZH/INlkQiwePHj/Hnn3/ixx9/rJZBBXlxcXE4ceIEBg8erPRYcXExpkyZghEjRqBLly4Qi8Xw8vJSuRFtQkICduzYgVOnThk0Izk9PR1Dhw7F9OnTMXz4cNjb28Pa2loh1+GbN28UNo9mZGZmYvjw4Zg6dSqGDh0KFxcXODk5wcnJiX2OVCrF9evXta6s2LNnD5o0aYL33nsPnp6eCtepnJwc7N27F3v27FE76JmSkoJ79+4hMDAQ9vb2SjNwmbLcu3cPR44cwfHjx9X+bnx+r3PnziErKwsDBgyAs7OzQkdOSUkJYmJisG7dOrUzuY8ePYr09HTMmTMHQUFBcHV1haurq9LzsrKy1KZUYG4Wqut6eufOHWzZsgXz5s1Djx49MGDAAIX8sfHx8ejXrx8WLFiAvn37QiwWs5swApUrIPbv349du3ZVWyct32UwtL6mpqbi0aNHaNKkCSwtLREQEKD0nKKiIpw6dQpbt27Ve0PotLQ0fPXVV3q9lott27YhPj4en376KQIDA+Hi4qIw2/3Zs2fYtm2bys4hVYqLi/H111+zM7ROnjxZo/uO3L59G3369MHs2bPZAd+qnVNFRUX4/fffYWpqqtfKMUPwdVxv3ryJfv36Ye7cuejVqxfMzMzg6OioMIs3MTHR4E0rNTEkJpTJZJDJZJBKpTh79izWr1+v9wx+BrNfWlBQEMRisVK6N0ZcXBx27drF5rsGKjsX4+Li0KBBAzg4OKh8rVQqxZUrV7Bp0ybcv39fbTl++uknvHz5Ep9//jnat2+v1K49ffoUmzZt0jiTmo92sTbjV0OOhTyucY6joyObC33nzp11as8jVZg26/bt29i4cSOuXr2q93u9//77CAwMhEwm03viClfLli3DkCFD0LRpU6VZ/0+fPsX69es1zh6PiIjA/fv3MXnyZLi4uMDX11dpdYpMJkNiYqJSR1NycjJevHgBb29vtfHVo0ePsGvXLq3tl6HxHoOPe6qawme8zJeKigosXbpU73ujGTNmAKg8ng8ePOCzaNWKjzaDuT/W91ip27tHXn2q37qq2lb5+PgoPUcqlSI2NhabNm1CXFyczu+9YMECWFhY4NGjR0qD0vLKy8uxfPlyfP/99+jUqRO6dOnCeXDG0NhS28oFXTB1SN0AVV265ly+fJlN3Xr9+nUaWKiHBN7e3vyv6/+PYG4IvL29YWVlBSMjI+Tk5OD169e4detWrZwQRkZGCA4ORqNGjSASiZCeno67d+9W641sbROJRGjatCmcnZ1hbm6O0tJS5OfnszOSq85mmTlzJubMmYNr165x3sBm8uTJ+Pzzz5VWLnzxxRcYP348nj9/jm7dukEoFCIwMBCenp4wNzdHbm4u4uLi9OrQsrKyQpMmTeDk5AQjIyMUFBTg+fPnnPMfu7u7w9fXF1ZWVigpKUFqaioSEhL0vskzMTGBjY0NzM3NYW5ujrKyMuTn5+u1ZLYmiEQiBAYGwtfXly13QUEBsrOzcffuXZWd/Xx8pq+vLzw8PGBmZoaioiIkJSXh2bNnWlcyCQQCdiDE0tISJSUlyMzMxOPHj9UGGNbW1mzwGB4ejtOnT8PW1hbNmzeHvb09ysvLkZSUhPv37+vc6SwUCuHm5gYnJydYWlpCKBQiPz+f7TjgGuzo872Ayo0UAwMDcejQISxevBimpqZo3rw5XFxc2PQe9+7d43Sta9CgAfz8/GBnZ4eKigq8ffsWmZmZeP36tcYZMDdv3oS9vT2+++47lenNapKlpSWaN28OZ2dnlJeXIzExkdPxrc0yVEd9FYlEcHNzg5ubGywtLWFmZobi4mKkpqbiyZMnOg+i1iWNGzeGh4cH7OzskJeXh8TERHZfBi6CgoLYwdMePXqo7LSMjo5Ghw4dsHXrVnZJuK727duHLl26KK1cqMrY2Bj+/v5o2LAhO5CQnJyMp0+f1sqKhepibm6OgIAAODs7w8jICHl5eXj27Bnvm4Brok9M6Ovry8565JNAIECDBg3g5uYGGxsbiMViyGQy5Obm4unTp8jMzNT4Wnd3d/j4+MDKyoqdzZaWlob4+HjOmyO7uLggKCgItra2KCoqQkJCAqdziq92kWv8yhdDjoWq76BvnMMX+ZUL6gZM1AkODmbT9jErFxo2bIiSkhJ2g8/6oEePHuwqmXbt2iEzMxONGjVCQEAArK2tIZFI8OTJE86DVT4+Puzq67KyMkgkEqSlpSE5OVnjNcLBwQFNmjSBvb09e4+Qk5ODhIQErSmxqiPeY/B1T1UT9I2X/2sSEhIgEokwYsQIpbR42sTFxUEsFiutXKjK0DajptSn+q0Lpq1yd3dn2yqpVIrMzEzEx8f/K7Jx1CV14ZrTqlUrODs74+LFi3V+IgJRRisXDCCRSHDz5k3cvHmztovCKi8vx+3bt2tsmWRdIJVKcf/+fY0z1mpaRUUFHjx4wMsMjYKCAoM3pQMqZxMlJycb/D6M0tJSTjegtU0qlSIuLo7T7AY+PjM+Pl6v1UsymQwvXrzAixcvDCrDmzdv8Mcff+j9+oqKCiQlJfEWmPL1vUpKSnD9+nWD3iMjI4PzgJ+DgwM7c8nQz+dDYWEh/vzzz39NGQytr1KpFImJiWrTztVHz58/52UF2OTJkwEAv/32W42t5lOlrKysxq/FteHt27e1HovpExNWV4eJTCZDeno60tPT9Xotn+1QWlqaQTn/+WoXayt+NeRYVGVInFNX1eQAYHXio44+e/ZMr/YiOzsbf/31l0GfzeAj3mPwdU9VE/iKl4nhDG0zakp9qt+64LOtItrVhWtOTaQOJNWHNnQmhBBCdMTkoy8qKqqXuUvJf1O3bt3YPXK4rkgghBBCCCGEEELUoZULhBBCiI769esHoDJnPS1LJ3VRSEgIXrx4gezsbLi6uqJPnz7s5nVRUVF4+PBhLZeQEEIIIYQQQsi/BQ0ukP+cBw8e4NixY3qlmXj8+DGOHTvGa3ohQkj9IBAIkJGRgaysLGzfvr22i0OIEpFIhKioKJUbt508eRIbNmzQ+PqLFy8iOTlZr5R+ly9fRmZmZr3aNJAQUv9lZmZq3JhTk5ycHPa11bXHBSGk+hw7dgwikUivfQ1PnDgBU1PTf00qNEIIqU00uED+cy5evKh3OpPY2FjExsYq/V0ikSA3Nxd5eXmGFo8QvVVUVLAbEdfHjWs1ycvLQ25uLu+bjHIhk8mwcOFCfPHFF/+qjWdry7+5vtYWW1tbxMXFwd/fH5aWlsjNzcW9e/dw9OhRnD9/Xuvr9+3bp/dnHzhwQO/XEkKIvl69eoXPPvtMr9e+fv1a79fWJaWlpWx7WlMbaVeXuhDvkfpj0aJFer926dKlPJaEEEL+2wTe3t6y2i4EIYQQQgghhBBCCCGEEELqD9rQmRBCCCGEEEIIIYQQQgghnNDgAiGEEEIIIYQQQgghhBBCOKHBBUIIIYQQQgghhBBCCCGEcEKDC4QQQgghhBBCCCGEEEII4YQGFwghhBBCCCGEEEIIIYQQwgkNLhBCCCGEEEIIIYQQQgghhBMaXCCEEEIIIYQQQgghhBBCCCc0uEAIIYQQQgghhBBCCCGEEE5ocIEQQgghhBBCCCGEEEIIIZzQ4AIhhBBCCCGEEEIIIYQQQjihwQVCCCGEEEIIIYQQQgghhHBCgwuEEEIIIYQQQgghhBBCCOGEBhcIIYQQQgghhBBCCCGEEMIJDS4QQgghhBBCCCGEEEIIIYQTGlwghBBCCCGEEEIIIYQQQggnNLhACCGEEEIIIYQQQgghhBBOaHCBEEIIIYQQQgghhBBCCCGc0OACIYQQQgghhBBCCCGEEEI4ocEFQgghhBBCCCGEEEIIIYRwQoMLhBBCCCGEEEIIIYQQQgjhhAYXCCGEEEIIIYQQQgghhBDCCQ0uEEIIIYQQQgghhBBCCCGEExpcIIQQQgghhBBCCCGEEEIIJzS4QAghhBBCCCGEEEIIIYQQTmhwgRBCCCGEEEIIIYQQQgghnNDgAiGEEEIIIYQQQgghhBBCOKHBBUIIIYQQQgghhBBCCCGEcEKDC4QQQgghhBBCCCGEEEII4YQGFwghhBBCCCGEEEIIIYQQwgkNLhBCCCGEEEIIIYQQQgghhBMaXCCEEEIIIYQQQgghhBBCCCc0uEAIIYQQQgghhBBCCCGEEE5ocIEQQgghhBBCCCGEEEIIIZzQ4AIhhBBCCCGEEEIIIYQQQjihwQVCCCGEEEIIIYQQQgghhHBCgwuEEEIIIYQQQgghhBBCCOGEBhcIIYQQQgghhBBCCCGEEMIJDS4QQgghhBBCCCGEEEIIIYQTo9ouQH1nZmYGCwsLmJubw9jYuLaLQwgnZWVlePv2LYqKilBcXFzbxSGEEEIIIYQQQgghhNQTNLhgAAcHB1hbW9d2MQjRm7GxMYyNjWFtbY38/HxkZ2fXdpEIIYQQQgghhBBCCCH1AKVF0pOLiwsNLJB/FWtra7i4uNR2MQghdZyVlZXS38zNzSEUUkhBCCGEEEIIIYT8l1BPgB4cHBxgbm5e28UghHfm5uZwcHCo7WIQQuqgGTNm4Ny5c/jrr79gZmam8NisWbNw8+ZN7NixA66urrVUQkKINvb29pg4cSImTJig9Ji3tze++OILtGvXrhZKRgghhA9+fn6YPXs2QkNDlR7r2bMnwsPD4eXlVePlIoQQ8u9FaZE4MjMzoxUL5F/N2tqa9mAghChxd3eHr68vAGDZsmVYsmQJSktL0aZNG4waNQrm5ubo3r07FixYUMslJYSoY25ujkWLFqGgoACnTp1CVlYW+9iECRMwcuRIiEQiXLt2rRZLSQghRF/vvPMOPvnkE9y6dQuXL19GRUUFAMDIyNL5p+4AACAASURBVAjh4eEICAhAfHw8Xr58qfdnCIVCODs7w9XVFVZWVrC0tISRkRHevn2LjIwMvHjxAnl5eZzft3HjxjAyMsKLFy9QVlam8+vMzMzg4eEBAEhOToZEIlH7XEtLS3Ts2BFBQUGwt7eHqakp8vPz8fLlS9y6dQsPHjyATCbjXHZCCPkvE3h7e9OVkwPaZ4H8F9D+C4SQqnx8fPDLL7/A2NgYACCRSFBQUABnZ2f2Od9//z2WLl1aW0UkhOhg79696Nq1K168eIG9e/fizZs3CA0NxeDBg1FRUYEPP/wQ8fHxtV1MQgghehCLxbh06RIcHR1x+fJlnDx5EiKRCEOHDkXbtm2RlpaGLl26oKSkRK/37927NyIjI2FhYaHxeQkJCbhw4QKOHTum80DG9evX4ejoiF9++QWffvopOzCiTcuWLXHixAkAwIgRI/D3338rPcfMzAwzZ87EpEmTYGJiova9UlJSEB0djd27d9MgAyGE6IgGFzhyd3dnO1YI+bcqKytDcnJybReDEFLH9OzZExs3boRYLFZ67MKFC5gxYwZKS0troWSEEF05ODjg+++/R0BAgMLfy8rKsGTJEhw9erSWSkYIIYQP7777LqKiomBra6vw9+zsbEycOBH37t3T+71HjhyJFStWAACKioqQnp4OiUQCmUwGGxsb2NnZKezPJZVKcfLkSaxatQr5+fka35sZXACAffv2YdWqVTqVSdvggkgkQlRUFJsq6u3bt4iNjUVycjKKiopgb2+PwMBANG/eHCKRCHfv3sWAAQN0+mxCCCGUFokzGlgg/wVUzwkhqpw9exZ3797F0KFD0bx5c5iZmSE5ORlnzpzBxYsXa7t4hBAdZGdno1+/fvjoo4/QunVriMVivHz5Ej/++KNBaTIIIYTUDf/88w+6deuG/v37IzAwEDKZDA8fPkRMTAzevHnD2+d07doVmZmZSn/39vZGx44dMWHCBHh5eWHw4MHo0KEDxo0bh2fPnun03hMnTkR8fDyOHz9ucDmHDRvGDixER0djw4YNKgc67OzsMGLECCQmJhr8mYQQ8l9CKxc48vb2Nvg9XFxc0LFjRwDAmTNnNOYElGdubo7OnTuz+QGlUimys7Px4MEDxMbGqs2R37JlSzRu3Fjn8hUWFuLs2bM6P18fwcHB6NChA1xcXGBiYoLs7Gzcvn0bV69e1XuJJlfGxsYICQlBq1at4ODgAKlUivT0dFy7dg23bt2q9s/u27evTs8tLi7Gzz//rPZxoVCIdu3aoVWrVnB2doaRkRHy8/Px9OlTXL58GRkZGXqV8cWLF3q9jhBCCCGEEELIv4/8yoV27dqpHFxgCIVCTJ06FXPnzoVQKERGRgb69++PtLQ0lc9nVi5IpVKIRCKUlpZi8ODBuH//vsYyaVu5cOrUKQQFBeH+/fvo378/pTsihBCe0cqFGmZpaYmlS5eiSZMmAIA///xTp8GFtm3bYsGCBUpLGwGgT58+CAsLw/r161XmFwwNDcVHH32kcxlTUlKqbXDBysoKCxcuRNu2bZUe+/DDD5GSkoIVK1bgyZMn1fL5DF9fXyxevBiNGjVSemzQoEG4desWVq5cqddGVLqwtbXF9OnTdXpubm6u2sGFxo0bY9GiRfDy8lJ6rHv37pgyZQqOHDmCb775hoIoohexWMxu8l1QUFCrZTE1NYWdnR1KS0uRm5tLdfo/oC4fc1NTUwDgZUDcxMQE1tbWyMnJ0Tm/sLoy2drasvthEEIIIYTUloqKCuzcuRMZGRlYv349GjRogI0bN2LkyJEaX3f8+HEEBwejadOm2LFjB/r06WPQigtmomVsbGydiiUJIeTfggYXaohAIED79u0xY8YMuLq6cnptcHAwVqxYASMjIxQXF+PUqVN4+vQpTExM4O/vj969e8PW1hZffvklZs2ahUePHim8/vr16ygsLNT6OZ06dYK7u3u1beQrFAqxYsUKBAcHQyaT4ezZs7hx4wZKSkrg6+uLAQMGoGHDhli7di2mTZuG9PT0aimHk5MT1q1bB1tbWxQWFuLHH39EfHw8RCIRWrZsiQ8//BCtWrXCypUrMWvWLEilUt7LYGlpyf7/uXPnkJOTo/a56gafXFxcsGnTJlhZWaG8vBxnz57Fo0ePUFJSgkaNGuGjjz6Cvb09Ro4ciZKSEhw8eJD371GXNWvWDP369UOLFi3g7u4OCwsLFBUV4eXLl7hy5QqOHj2qsq57eHhg4sSJnD5LKpVi+fLlKh8LCAjA8OHD0bZtWzg7O6O8vByvXr3CpUuXcOjQIeTm5ur1/eQ1aNAAkZGROj8/JiYGMTExGt9v/Pjx6N27Nzw8PNi/p6Wl4cKFC9i7dy9evXql9vVDhw5F79692X/PmzcPWVlZCs8RCoVYtGgRfHx82L9duXIFe/fuZf/dqlUrjB07FkFBQXB2dlbI819SUoJbt27h4MGD+OWXX3T63ps2bYK9vb1Oz338+DHWrl3L+XtpY2pqit27d7P/rvqd5S1evBi+vr4AgJycHMyZM0fh8ebNm2P27Nnsv/fu3YsrV65wKs+MGTPQpk0bAJU3gBMmTNBY3j/++APffPONyveysbHB2rVrYW5uDgA4cuQIfv31V07l4fOYt2zZEuHh4Tp/9sWLF3HgwAGlvzds2BBdunTBO++8Ax8fH3h6esLGxgZGRpUhVFFRER4+fIjz58/j6NGjOnfqu7i4YMSIEejfvz/c3NwgEAhQXl6O58+f4/jx4zq/l52dHcaOHYvevXvDx8cHQqEQQOWqt6SkJPz555/YuXOnxpmFXPTq1QshISHIzMzE9u3bVT7HysoK4eHhMDY2RmJiIvbt26fyeQ4ODhg1ahT+97//wdPTE0KhEGlpabh27RoOHz6MhIQEla9bsmQJRCIRp3Lv27dPZZoDQ6/R3t7eCAkJQUBAABo3bgwbGxs213RWVhbi4uLw888/48aNGxrfhykHAERGRqKoqIjT9/Py8sL48eMBAJs3b1bqhGGOW2pqKnbt2qXxvTp06ICePXuirKwMK1eu1Onz5csfFRWldd+mkSNHokmTJnj48KHCHg9hYWFwdXXFjRs38NNPP2n9rMuXL+PChQsKj4eEhKBfv34ICAhgryNMXvDY2FgcOXIEKSkpKt/bz88P3bp1Q4sWLeDt7c3Ga3l5eXj69Cn+/PNPxMTEqF0trMv5oUloaCi6dOmC3NxcbNmyRenxkJAQdOzYET4+PnBzc4O1tTXMzc1RWlqK/Px8vH79Gjdu3EBMTIzGc97T0xMjR47EO++8Azc3N1haWqK8vBwZGRm4d+8ejhw5grt37+pUZhcXFwwfPhydOnVCo0aNUFxcjNevX+PcuXM4efKk0kQdvuOsqricS61bt0afPn0AAEuXLlV63MLCAuPGjcO7774LLy8v2NjYQCAQICsrC8+fP8cPP/yAc+fOGdxZ6eLigmnTpun03O+//x5Pnz5V+7iJiQkGDhyIXr16wc/PD2KxGLm5ubh79y5OnDiB2NhYje/PxzWez/o1bNgwBAYGan1eUlKSynhKl2uKJnzWp+q+PjDf9erVq1onCjLX4ISEBERHR3MuC1cnTpxAu3btMGjQIISEhCA0NBSXLl1S+3yJRIIpU6bg9OnTcHNzw6ZNmzBx4kS9zjWRSMTGpkyMVJ34igvkicVi9O/fHx9++CE8PDxgbGyM1NRU/P333zh8+LDaNE6Ojo7o0aMH2rZtC19fX9ja2sLY2Bj5+flITk7GjRs3cPz4cZ0yHRh6bZFn6HnNV1vI0Pf3BSqzi7Rt2xYtWrSAn58fXF1dYWlpCbFYDIlEgpcvX7Kxg7Y9RwipzygtEkdc0iJ5eHigZcuWcHd3x//+9z84OTlBJpPhzz//RKdOnQBUNuzqlgUy9uzZAx8fHxQVFWHatGl4/fq1wuOBgYHYsmULjIyMcO3aNSxcuJDz9/L398dXX30FmUyG6dOn65wLkYtevXohIiICALB8+XL88ccfCo+7uLhg165dsLKywu+//67zBk5cLViwAD169EBhYSGmT5+u9Ht27NiRvYHZvHmzXoGoNsHBwWxQOHbsWL02T16yZAk6d+6M0tJSzJ49G48fP1Z43NLSErt374aLiwvevn2LAQMGoKysTOf3r+9pkTZs2ICPP/5Y7eNFRUWYN2+eUvDdunVrHDt2jNNnSaVS+Pn5KfxNIBBg9uzZmD59utpAtqCgAOHh4RqDa114enpyyne/detWbN26VeVjnTt3xtatW2Ftba329SUlJVi4cCF++OEHlY8vXLgQkyZNYv/93nvvKdXxL7/8EqNHj2b/fevWLYwZM0ZhMG348OE6XQeOHz+OBQsWaL3huHr1KlxcXLS+HwBcu3aNvZlk6PK9tBGLxYiLi2P/feLECfa6WNXJkyfRokULAJUDOx06dFB4vGvXrgoB9/z58znnpd2xYwd69eoFQHU9rlreI0eOqGxjRCIRDhw4oFDGNWvWICoqilN5+DzmPXv2xM6dO3X+7EOHDmHx4sVKf6963DXJzs5GeHg4rl69qvF5PXv2RGRkpMKGh1W9evUKU6dO1biSr127dtixYwfs7Ow0fl6nTp3UdqZy9cUXX2D8+PF4/vw5unXrpvS4ubk5vv32W7Rp0wbp6ekYOnSoypuyHj16YNOmTSo3BwcqB7u2bt2Kr776SumxhIQEzoMLQ4YMwc2bN9l/83GNtra2xp07d3T6/D/++ANz585VO5mgR48ebKe/tjQTqrRv3x6HDh0CoPraxBy3hw8falzN2qxZMxw9ehRisRilpaVKmz6r06BBA3b17PLly/Htt99qfD5zPV6/fr3Cefrzzz8jMDBQ7fno5eWFo0ePwsnJCX/99RcmTJigtHpoxYoVGmfFFhYWYsaMGSo7Qg4dOoT27dtrLHtmZiYmT56sckNUbeeHNuHh4QgPD8fr16/xv//9T+lx5vfRRiKRYNmyZWrbhI8++gjbtm1T+3qZTIYNGzZovYYOGzYMy5Ytg4mJicrH09PTMXXqVIXfiq84Sx0u55J8ehdVKWQdHR1x/fp1jZ937tw5hIeHG7SKrWnTpjrfb4wfP17pHorh4+ODqKgolSuaGefOncOcOXPUTl7i4xrPV/0CgN27d6N79+5an3fnzh2Vcb+2a4o2fNanmro+7N+/X+PA8LBhw7B69WoAlQO048aN41QOLmmR5Lm5ueHSpUsQiUS4cOECJk+erPQcJi3SN998gxUrVqBjx4749ttvIRKJsGXLFrX1SltapL/++gvOzs74P/buOyqK6/0f+Ht3Yem9S1dAVNRYY4ktxl6isYu9gR+DvZeIJRIxGjVqbNGogCUmamxRYzREUTGIGFQUJRSV3ntZ+P3Bb+a7na1geV7neI5smb07O3Pnzn3ufe6jR48wbNgwZb6uUjTZLmC0bdsWu3fvhp2dndTnKysrsWrVKqn1PXPMyFNeXo7AwECRQL84TdQtwjR1XtelrmshoN7+Bf7vvK5LUVERVq9ejd9++63O1xLyLqKZC1rUtWtXkQ6J58+fY9++fbCwsGCDC3VxcXFhR/aePHlSoiMcAJ4+fYp79+6ha9eu8PHxUbqcfD4fy5cvB4/Hw7Fjx7QSWACAzz//HEBto0FaozgtLQ1hYWHw8/NDz549sWvXLo2nJTI2Nkbv3r0B1N5AStuft2/fxt27d9GpUyd8/vnnWgkuCM9cUGRWiTg+n8+u23Hp0iWJwAKz3V9//RX/+9//YGBgAFdXV7kjnd43165dQ1VVFcLDw5GcnIyKigqYm5ujbdu2mDBhAho1aoTdu3dj+fLlIo2FlJQUqQ3yOXPmwMLCAhEREfjzzz9FnpOWxiQ4OBgjRowAADx+/BihoaF4+fIlDAwM0KpVK0yaNAnW1tY4ePAgFi9eLHcmQV04HI7K7xXWr18/7N69u85RPXp6eti6dSuMjY1x7NgxpT9n8eLFIoGF2NhYTJ06VaIxKl4X1dTUoKamRqJ8I0eORExMTJ2zczS1nz5kslL2rFixQiL4oQpN/ubMzIL6ZGVlhaNHj2LBggU4f/681NcMHDhQ6ohFJr8ww9XVFceOHUPfvn2lXgt79eqFffv21fk9ExISNBZYqIuenh4OHDiADh06ICsrCxMmTJAaWBg1ahS++eYbcDgcpKen4+jRo/j3339RUVEBT09P+Pr6wtvbGwsWLIC9vT1WrVol8v6vv/5a4pgYNGgQ2rRpg9evX0udXZOSkiLyt6br6Bs3buDatWt48+YNSkpKYGBgABcXF3z++edo3749evTogQsXLmDMmDESZalP8gJyVlZWOHDggMyAjzwZGRl49uwZmjZtik8++URucMHJyYkN9EpL5ymLs7MzQkNDYWNjg6ioKMycOVNqh+6dO3eQm5uL6OhovH79GuXl5bCwsEC7du0we/ZsWFpa4vvvv8dnn30mMfvs9u3bKC8vx/Xr1/HkyRPk5+dDV1cXjo6O6NChAyZPngwbGxscPnwY3bt3V3qGiab89ddf2Lp1K/Ly8lBcXAwDAwOYm5ujWbNmmDFjBpo2bYrNmzcjPj5e6gjxp0+fIjQ0FHfu3EFSUhKKiopgZGQET09P+Pv7o2nTpliyZAliY2Nljkb18/PDsmXLANSeQz/++COePn0KPT09dOrUCX5+frCzs0NISAj69OnDzkjWVDurPmRlZeGXX37B/fv38fz5cxQUFIDL5cLJyQm+vr7o3bs3+vbti7lz52LLli0a+cwffvhBYmatgYEBFi1aJPd9zZs3R1hYGExNTVFWVoaTJ0/i9u3byMnJgaOjI4YNG4ZevXqhb9++OHXqFEaNGoXS0lKlyqZoHa+J40vc48ePpQ5q6d+/P9q3b6/U9/iQdezYUeFZQJr2+vVrREREoFu3bujWrRv4fD4qKirkvuf27dvYsWMHFi5ciICAANy5c0epEf+Mq1evYuLEiWjVqhXmz58vdeaHpmmiXdC+fXuEhoZCV1cXGRkZOHDgAJv5oXnz5vDz84OXlxeCg4ORk5MjUXfevXsXn332GS5fvoyHDx8iKysLAoEADg4OaN68OaZMmQJ7e3sEBQUhPj5e6rqT2qxb1D2v1b0Wqrt/hRUWFmL//v1ISEhATk4OBAIB7Ozs0KZNG4wYMQJmZmbYvn07vLy88O233yq0fwh5l7z1wYWhQ4di/Pjx7OjNhw8fIiws7J2I+KWkpODixYt49eoV7t69yza+evXqpfA2iouLsXXrVlhaWsod3cw02Jkpf8rw9fWFi4sL27mvDVZWVuw6E/K+x82bN+Hn58cuUnz16lWNlqNDhw5s542sUT/Mc506dULjxo1hZ2en8RRNwqNVVQkucDgcBAUFwczMTOrIOYbwSJKG6GhrSFeuXJE6JTgyMhJHjx7FgQMH0LlzZ6xbtw537txhA03p6ek4dOiQxPsmTZoECwsLPHr0SOrzwoYOHcp2Wh09ehTr1q0T6dAJDw9HSEgIfvrpJ7Rq1QobNmzA/fv3pQa7FKGrqyvyd1hYGMLDw9m/7ezssG7dOrnbYBqWwh12Fy9exOHDh/Hq1SvY2dlh3LhxGDt2LPv8ypUrcefOHaWCVv7+/iLrjcTFxWHSpElS0788f/4cwcHBuH//PhISEpCXlwcOhwNHR0dMnjxZJIXPrFmz6gwuCO+nqKgoiVH1wcHBcmdsEOkdk3379pVIp6QqTf7m4iPbV6xYIZLixsjICFu3blW6jEuXLkVMTAwKCgpgamqK5s2bY+bMmWjevDmA2in3mzZtQkxMjESni7Ozs0i6rcrKSmzZsgWnT59Gfn4+XF1dsWjRIgwaNAhAbRq/ZcuWScwWsbCwwObNm0Xq9bt37+LQoUN4/PgxysvLYWVlhXbt2tVbUI3P52Pv3r3o0qULcnJy4OvrK3WwgqurKwIDA8HhcPDgwQNMnTpV5PyPjIzE8ePHsXHjRowdOxbjxo1DeHi4SH0urePay8sLbdq0QWZmZoPU0WfPnpUaUAoNDcWwYcPwzTffwN7eHtu3b8fo0aO1knJREbKCC1wuFzt27IC9vT1yc3PrnA0jzY0bN9C0aVN06tQJurq6MmdLMutulZSUyG3DCGvUqBHCwsLg4OCA6OhoTJkyReboyEuXLkmkTktKSsLDhw9x69YtXLhwAaampvD19ZWYxbd7926p24yLi8P169fZY8PCwgKDBg1SegS+prx+/VpkVllubi7evHmDJ0+e4OrVq/jzzz9hZWXFBmLFvXz5EmvWrJF4/MmTJ7h+/TrOnz8PV1dXzJ49W2rnb+vWrbF48WIAwIULF7Bw4UJUVVWxzz969AhXr17FmTNnYGZmhpUrV7KjZzXRzqpP0mYXvnjxAjdv3sTOnTsxePBgTJ06Fd9//73MdFl1Ea7LT58+LTF72MLCQm5wQVdXF9u2bYOpqSkyMzMxceJEkVlvDx48wPnz5zFy5EgEBQWhefPmWLp0aZ1tQ2GK1vGA+seX+HcDagPl0o4LV1dXCi6IkVXPW1tb4/vvv4eOjo7K9by67t27xwYWPDw88OTJkzrfs2fPHnTo0AHdunXD9u3bMXDgQKUHIO7evRt9+vSBvb095s6di06dOmHbtm11zkxSh7rtAlNTU2zfvh26urqIj4/HxIkTRdIXPXv2DFeuXEFISAg++ugjrF+/HuHh4SJ18b1799hUXcJevnyJW7du4ZdffsG1a9dgbm6OCRMmSAQXtFW3aOq8VudaqIn9KywzM1NqG+LixYvYvXs39uzZg48//hj/+9//8ODBA7mBCkLeRdpPOqeGlStXYvv27ejYsSP4fD74fD46duyI7du3q5T6p77dunUL27Ztw6lTp+TmaZMnOzsbly5dQkhIiNybWmbqpbKdk05OThgzZgyA2gt3XaMHVCWcV/3Zs2cyX5eRkcF2/jC5xjWJmVKdn58vNx2V8EwAbZSDmblQWloq8wIlT3l5OW7evIlz587JTV/UokULALW5t9/1NEeaVFJSgoCAABQUFCg0GkwZXC6XrZ8ePnwo0WnFyMvLg7+/P0pLS2FkZCSSO19Z4oGjmJgYXL16lf1XV4oWAJg/f77IgvGHDx9GQEAAHjx4gIyMDPz7779YuXKlyNoOenp6WLFihcLlnDFjBpYuXcr+HRcXB19fX5kLtOXl5WHv3r2IiopiF/Otrq5mRz0KjyR2dnaWO1UXEN1PycnJIvvo6tWrWqv/3ifiNz4ODg5KrfdRF03+5kZGRiJ/X758WeT3VjUd2d27dxEfH4/09HTEx8fj3LlzGD58uEgw3MjISORYZ8yfP19k5tqiRYtw8OBB5OXloaamBomJiZg7d67IOTt06FB28WjG7NmzYW1tzf599uxZ+Pr64o8//kBqaipycnIQHx+PEydO4Pjx4yp9T2Xw+Xz88MMP6NGjB3JycjB+/HiZ6yUsXrwYBgYGKCoqgr+/v9TAYnV1NVavXs12OqxevVpjQZKGqKPPnj2LzZs3A6hN3SAcpH1bzJs3D126dEFiYiK+++47lbbBrLFiaGgod4YuE1yIjIxUKMjCBBYcHR0RHR2NyZMnqzxj4NmzZ+y5Ly2tSF0iIiLYa5bwmkRvk8LCQrazRdFUgMKKiorYHOwdOnSQOnCJmfGckpKCZcuWSW3LJiYmsrO0+vXrJ1Envw/2798PANDX11erg1u4faLKfcHo0aPZQVzLli2TmU7v9OnT7G87adIkhY9hZer4uihyfAlj9o0yqV2JJB6Phx07dsDGxgYXLlzAtWvXGqQcwmu2OTk5KfSe6upqLFq0CNnZ2XBwcJBYE00RGRkZmDBhAtsP0bFjR5w4cQK//fYbRo4cKdHO0jZF2gVTp05Fo0aNIBAIMHfuXKnrIpSUlOCrr74CUHutrCutn7js7Gzcu3cPgPRrmrbqlvo4r+u6FtbH/mXk5uZixowZ7EzijRs3fnADP8n7760NLgwdOlRujuMZM2Zg6NCh9Viit5ePjw87s0PZhoK/vz90dXURGxuL27dva6N4AGpzLDLqWmOCeV74PZrSqFEjhcogPFNBG+VgOpeKiopgY2ODKVOmYNu2bThy5AgOHjyIwMBA9OvXT62LTt++fdmckqGhoWrlgn0f5eTksDN1+vTpIzNfsLI6deoEW1tbALVrG8hLQZGWlsbmt+zbt6/KDVvxsiuS61KYrq6uSA7u7OxsmdM1Dxw4gISEBPbvnj17wsrKqs7PmD59ukhQ+MmTJ/D19VVrQWvxkanM+S2L8H5Sdh+RWsKdHlwuF1u3bmVne6Smpmr985X5zYU732tqalSaJaaoyspKrFixQmQkXd++fUUCCXp6euz6FgDw77//Sk27V1NTIzKrxtDQUCTlFJfLFTlfCwoKsGbNGrUXFFUV0+nUq1cvZGVlYdy4cTJvPg0NDdnUhCEhIXIXRK+urmbXW3B0dESbNm00Ut6GqKMB4MiRI2zaA2ZQx9uiU6dOmDNnDioqKvDll1+qfK48evSIvXEeMGCAzNd9/PHHABRLicQEFlxcXPDgwQNMnjxZ7XOZ6Wyo65ohjYGBAXtea2qRdG1gckerOiOS2Uc8Hg82NjYS22Z+w6NHj8pNf8HUcXw+X+GUsO+Sp0+fsgEyVY4nhvDMSmVTFQH/l3r24cOHdQbOd+7cCYFAAA6HI3f9FYYydbyi5B1f4ph7IVX2y4dK2nVtzpw56Ny5M5KSkpQaGKRpwu1+4TZSXbKysthZRP369ZNYF00RCQkJGDp0KNavX892JPv4+CA4OBgRERFYsGABzMzMlN6uqupqFzDn9c2bN+UOzoyNjWUHEX766adKl4NpL0u7pmmrbqmv81retbC+9i+juLiYTcdlb2+PHj16qLwtQt5Gb224bPz48Qq95l1Ij6RNFhYWbAMhNTWVXchIEc2bN0fnzp0BQOvTj5nGQ1VVFTtleNy4cWwAKSYmBgsXLgTwf2mClGlwRQ3FAwAAIABJREFUKIpJRyR8Y/rNN9+gQ4cOAGpvko4cOYLy8nJUVFSAz+drpRzMNk1MTPDTTz9BX19f5Hl3d3d069YNY8eOxZo1axRaNHbQoEEwNjZmU2G4ublBIBBg3759Gp+236JFC6kLldUX4Yu8Ov744w/4+/vDyMgI7dq1w507d9TeJjMSsqSkRKHt/fHHH5gyZQqMjY3Rtm1blcpgaWkp8reyHS8+Pj4iObb//PNPmY09gUCAK1euYPbs2QBqU3R16NCBHbEqzcyZM0XWWHj48CGmTp2q1JRmPp8PBwcHmJmZQSAQIDc3VyInsfDMC3EGBgYi55m00dLKmjt3LmxtbWFpaQkDAwMUFxcjISEBERERuHz5skIjaw0MDGSOLBVPd1WXgQMHok+fPrCxsYGJiQlKS0uRkpKCe/fu4fz582oFchjCo4xnzJjBjuApKyvD0qVLVVqDQxZ1f3PhDovCwkKt5+zOzc3FH3/8wabb0dHRQdu2bdkUZS1atBAZoSlvOrT41G13d3d20XZvb2+RY+bq1asNlvddT08PP/zwA3r27In09HRMmDBB7rpNHTt2ZM/D69ev17n9v//+m70Wd+/eXWouYGU1RB0N1AZLfv/9d8ycORMtWrSAiYmJzHrI3t4eLVu2hIODAxu8ffPmDR48eCAS3FWFeKeTsbExtmzZAi6Xi+DgYDx58oQdpaiK8+fPw8/PD3369IGOjo7EKGwnJye4uroCQJ2z6pycnBAaGgpnZ2dERkZi2rRpGgkMM9ceZdPgmZubIygoCDo6OsjPz5e5rgpQe2308PCAl5cXbG1tYWFhgbKyMiQlJSEyMlJuYE0dJiYm8Pf3h7e3NyorK+tMFyiL8PVZfD8JB/rqSmmTnp6O/Px8mJmZwdnZWaWyvM0EAgGKiopgZmamVlpF5r01NTVKp3sxNDREu3btAChWrzLrkbRv3x7du3fHnj17ZL5W2TpeUfKOL3HM87JmuSqKz+ejdevWcHd3h5WVFczMzFBSUoL//vsPkZGRGmkjKUrb9YN4Pe/j44OAgAAIBALMmzevwdoMgGjbVtn0gDdv3kRoaCh8fX2xatUq/P333wrdIwurrKzETz/9hNDQUAwcOBATJ05E27ZtYWFhgYCAAEyaNAmBgYE4d+4c+x5DQ0O5Mw7/+usvlc4Lee0CCwsLdnauIuuSPH/+HO7u7krNqNPR0cGsWbPY+oOZecDQZt2iqfNalrquhfWxf6W5evUqNm3aBB0dHXTu3Fmh/UrIu+KtDS4wI/HVfc37zMrKCsHBwbC3t0dJSQkCAwOVyvU5adIkALUL6UjLx6pJTGeCImlHmNeId7hrAjPqUNFy8Pl8rZSDCXLo6+sjMzMThw8fxqNHj1BSUgJ7e3v07dsXvXv3houLC7Zs2YJZs2bV2Rnq6+vLRueB2g747du3ayUd0hdffIGpU6dqfLuK2rhxo1Lfa968eVJHnAp39Kkz4kyYg4MDgNo1VxQ5zoQ7ioR/P2WIzxyQNq1THqajh/H06VO5rxfPj1pXOiLhwEJERARmzZqlUAcRj8fDkCFDMH78eLRq1Upihob4/hXPsS9MeBQ7oJkRpyNHjpR4rFWrVhg2bBiWL1+OVatWSV33Q9jAgQMxcOBAtcsC1M4iEefj44MBAwZg6dKlCAoKUrmjicHcCHp6erIBYQDYtGmTRjocNPmbCwcXNL1ujizR0dFscAEQnWIufkMyffp0+Pr6KrRd4XOcqWMYjx8/VqWoatPT08PBgwfRtWtXpKSkYOLEiXWmgBQOiihyvJSUlCA1NRWurq4qpXeRpiHqaAYzMo7D4cDNzQ3//vuv1NcJd2qIi46ORmBgoMz3Kmvt2rVwdHTE3bt3pS6ErayTJ0/Cz88PZmZm6NGjh8SNc/fu3QHUzgqRd+w6OzvjxIkTaNSoEf766y/Mnj1bqTZuz5490b9/f7Ru3Rq2trYwMDBgU2IqMsvHxcUFAQEBAP4vCNyyZUvo6uoiKSkJAQEByMnJkfl+d3d3meuGCQQCXLp0CRs2bFC5E/GTTz4R6bjR1dWFtbU1mjVrBj6fj4yMDCxfvlxu6hovLy+MGjUKbdu2haOjI0xNTVFSUoKsrCyRReDFU5IJBwkWLVpUZwch05koPhCiPixbtkzuccOkS5XHysoKY8aMwccffwwPDw+YmZmhqqoKOTk5ePHiBdu+VCd1G9NGycvLUzpNiK2tLfvZiq6B9fLlS7Rv315uvapKHS9M1eNLnLxR1coYOXKk1HYbUHtOnj9/Hl9//bXEIAZhmjieAO3XD8L09PSwbds2Ni2SouvcaIvwzABVBvoEBQXhk08+gaurKzZv3owJEyaoNHOzsrIS586dw7lz59i1s4YOHQozMzN89913sLe3x759+wDUdoSvXr1a5rZycnJUbgPLahcIp4waOnRonel4mFTI8upZJjiuq6sLW1tbNGvWDGZmZigsLERgYKBEFgtt1S2A5s5rVa+F2ti/iigoKEBqaiqcnZ3h7u6u1rYIedu8tcEFIp+7uzu+/vpr2NnZoaSkBCtWrFBqUVU3Nzd2tP6vv/6qrWKymBsPeR1BDOY12ljsUJVyqJL7tC6RkZHIzMxERUUFzpw5IzKC5NWrV/jnn38QFxeHOXPmwNbWFmPHjpVYfFbcvXv3YGlpCRMTEzRp0gQ+Pj44ePAgbty4gZ07d6KgoEBj5U9KSmLzMzYEZdOvTJs2TWQRbWkUSe2jCKaxJK/TQZjwTUxdU8NlEX+fsvtHPA9yXaPmxJ9XJo+yrq4ujIyM6gwuGBkZYe/evejatavM1yiTykp8Hwnf2GqDpaUldu/ejRkzZqic21+TDA0NsWHDBgBQK8AgEAjA4/GwZcsWdv//9ddfCAkJUTuFnKZ/c+Gb/MTERHWKpjDx81545pv4eWJsbKzwzDjh14kfy8qOctUUR0dH9jdPTU1VKPUeUz9WV1crXO7s7Gy4urqqXD/KKkN91tEM4Y4iedek3Nxc/Pvvv8jIyEBRUREsLS3h4+ODxo0bo02bNjhx4gQmTpyo0kwO4U6Ynj17YsSIESguLsaSJUs0klorMTERd+/eRadOnTBq1CiJ4AIzc+SPP/6Q+3nC6yEkJycrPPPIwsIC+/btk8h/LxAIYGdnp3CAyMrKSiRQyKiursalS5cUSjf06tUrPH78GHl5eSgrK4O9vT3at28PKysrDBkyBK1bt8awYcNUGrnp4uIidwRlZmamyIxEYVwuF2vXrsWECRNEOnarq6uhp6cHS0tLubNXhLfbp08fhcvcEGsufPHFF2q9f+TIkVi/fr3EQCOBQABTU9M6B1coimmDqtLRJjx4QtHR90z9Jz7wQpgqdTyg/vEljMPhsJ15yg6cEVdVVYXY2FikpKSgsLAQVVVVcHBwQPv27WFhYYFhw4ahbdu2GD58uMz9qO7xJEyb9YNw3bpw4UJ4eHggNjaWXQOlIXl7e7P/V2UAXElJCRYtWoRTp06hc+fOGD9+vNoDZ548eYIFCxbg2LFj2L9/PywtLbF06VKEh4fj6dOnqKqqkjtrUJ3Z0LLaBcL1Zdu2bRXenrx6dvjw4VLb0RERESKLIjO0Vbdo8rxW9Vqojf2rqKysLDg7O9fZN0HIu+atDS48fPiQXfBN3ms+RF27dsWKFStgYGCAtLQ0rFq1SumOEybHXF5enkJTwdTFdCTy+XxwOBzU1NTg/v37bPoW4Zt3pgGvjZzoTKoX4VHsZ86cYSP1TA5RDofDvkYbuQBv3LjBpriQ5ddff8XAgQPZFEl1BRd27NjB/p/D4aBHjx4ICAhAr1694OXlhdmzZ2tsGuzRo0dx9OhRjWyrPgQFBUltTPH5fHYdAE3lY2f2cV0L1DGEGzyq/j7CDfWCggKlb0TEXy+rQ4Ih3rCq64YzLy+PTV/ToUMH/PLLL5g8ebLcm4pFixaJdDLn5ubi6tWrSEpKQl5eHszMzNCmTRv07dtX7mczmjZtKvK3MqPv5JXxwYMHKCwshKGhITw8PDBmzBj069cPQO0NdmBgoNQZBYyKigqZv7upqalCgVDGoUOHcPLkSeTl5YHH48HNzQ1ffPEFRowYwd7gL1++HL/++qvK9ZpAIMDMmTPRqlUrALXHG5OaT5mySqPJ39zExESk06e+RveLBwuEbzjFA7wJCQkKdyQJ54IVP14aapHUxMREhISEYMmSJejYsSPOnz8Pf39/uR3ezHWdy+WCz+cr1FnF1Efvch3N4HL/b6kzed+nf//+Uo+N3r1749tvv4WZmRmCgoLYukYVRkZG+PrrrwEAGzZsUDk3vzQnTpxAp06d0Lt3b1hbW7OdJzwej03HKWvULuP8+fMoKSnBmDFjMHHiRLRs2RL+/v51dkTs3bsX7du3h0AgwJEjR3DhwgUkJycjJycHPB4Pjo6O+PLLL2WOYGYkJCTA398fQG1Q3M7ODp06dUL37t0xe/ZsDB48WO5I7oSEBHz22WcSj+vp6WHKlClYunQpXFxcsHDhQnaxSGVcuXKFXUwYqN23VlZWcHd3x4ABA9CyZUvs2rULu3fvxtatW0XeO2/ePHZG4R9//IFjx44hPj4emZmZEAgEsLGxwYABAxAYGCj1s5ljt6amBtOnT1c4KMXkFq9PW7ZskXvetm/fXmZu8C5dumDz5s3gcDh4/vw5du/ejUePHiEtLQ3l5eUwMTGBj48PDhw4UGe7qS7MqFhVFkkWvl9StF5jXidv36hSxwPqH1/CmjZtyuZmV2YQnTSnTp2SOvpcT08PEydOxPLly+Hi4oIFCxbIPCfVOZ6Eabt+YLRs2RLTpk1DRUWFQrOM6gMzQjw/P19kcWdlPHjwAPv374e/vz9WrFhR5z21MtsNCAhAaGgoOBwOxo8fjzVr1iArK0vq76UJstoFwv8PDg6uc1Y5Q16gY86cOeDxeOByubC0tMRHH32E3r17o1+/fujevTvmzJkjMiBKW3WLJs9rVa+F2ti/imLul7S5FhwhDeGtDS6EhYXVGVxgFmP9kIwaNQp+fn7gcDh48OABNmzYoPSIdB0dHfTq1QtA7YjT+mhoMDeWHA4HVlZWyMrKwosXL6ReUJiRgdpYKI8ph3A0XdoIfCsrK/Zir25EXR2PHj2Cu7s7HBwc2KCMImpqanDz5k28fv0aP/zwAxwdHfHFF19oNB/6u+TEiRNSH2/SpAkbXNDU8cYcL4qOjmQWFhV+rzK4XK7IVM5//vlH6W2Ip4wRT5MkTvz5umZKTJo0CcuWLWM7jp2cnBAWFoaxY8dKvbHg8Xgi6+4kJydLHUnWsmVLhYMLwp3WhYWFchfuUtT9+/fZXK85OTl49eoVbt68iZ07d7I3ly4uLmjatKnMzzt//jy7QJ24X3/9Van0f3FxcSIdE2lpabh79y6ysrLYTjIjIyN06dJF5Ryf7u7uIvt87dq1SEtLA6BecEHTv3mPHj1Ebtju37+vctmUIX7eC49IE69jTp8+jb179yr9GeJpEoSndten6upqHDp0CJGRkdi/fz/s7e0REhICPz8/mYMWhOs4Ozs7hYJ8TB35rtbRwoQ/U5Xvc/36dWzatAmbN2+Gp6cnmjVrpvANMYNpRyxfvhwODg4IDw/X+LpMv//+OxtUHjFiBJtaol27djA1NUVhYWGdizkXFhZi9erVuH//PjZt2oSPPvoIp06dgq+vr8xASLt27dhZuV999RWOHz8u8rxAIEBycjJiY2PrDC7k5+dLBEAOHToEV1dXHD9+HM7OzggMDMS0adPkbkdceXk59u3bBy8vLwwfPhxDhgxRqfMwOzsb0dHRUp/bu3cvFi5ciC+//BKzZ8/GmTNn2FG3enp6mD59OoDa68+8efMk3p+ZmSn39xFu0z979kzp2ZL16fTp03LPNYFAILMzePbs2eBwOOz1SDwoX1hYiDt37qC8vFyt4AKHw2HveVWZjSRcLwnXV/IwdZG8Ok2VOl4Tx5cw4Y5oTaRelKa8vBwHDx6El5cXRo4cKfecVOd4UrQsmqgfampqwOPxsHnzZvB4PGzdulWlwJWm+fj4sO3aa9euqbUW1vbt2/HZZ5/Bw8MDGzZs0NisjDt37iA5ORkuLi4Kp7lSh6x2gXBbLz09HX/99ZfanyXe9g8LCxOZNRwcHIyePXuyQQVt1S2aPK9VvRZqY/8qStPtWkLeFty6X9IwfvvtNxw8eFDm8wcPHvzgFnOeNWsW/P39weFwcP78eSxfvlylVDdt27Zlp2ExC01qm/DMCnkdl/r6+myOPm2ksWC2aW9vLzUHP0M4B159pdOQhml0VVZWSgQW9PX14eDgINKBJi4+Pp7t/GRGGpP/w6RNqKmp0Vj+aqajx8HBQaHp8sKd3nFxcUp/HrOAL0OVdFXPnj0TyT3es2dPuTlwxUfi17VmS15eHqZOnSpSZ9vZ2SEsLEzqAo+Ojo4iM00uXbqk1kJ79vb2+PTTT9m///nnH60u7iter2pqPQ9ViXcCqFOeIUOGsHXn1atXRXLDM6OQVKHp33zo0KHs/3NzcxEZGanytpQhPrVauOM3Li5OJJjfu3dvlT7j6dOnItvp0aOHStvRlNjYWAwfPhzx8fHQ19fHgQMHRM43YcLrtXTp0qXObXt7e7NT55XtRJelvutoYa1btwZQe0yqGqgQzomsysKCNTU1aNWqFcaNG4eSkhI2wK5JFRUVbMrN8ePHs4FHJjB48+ZNhVNO/vrrr5g4cSIKCwvh4uKCkydPymxHNmvWDEDtdzxz5oy6X0OqpKQkNljSo0cPldflYn5HMzMzkRzkmrJ3717U1NSAy+Xik08+YR93cXFhO8J/+eUXlbYtfC6Kp596nzDH06VLl7Qyi5nRqlUrWFhYAACioqKUfn92djZbn8hLK8gQHpSiSL2qTB2vieNLGLNGS3R0tEbStslz69YtANo7J5Whbv1QU1ODadOmwdvbG48fP65z9nt94HK57EzXmpoatdf4qaiowPLly1FdXY1evXoplaKtLkzqVGbWtTbJahdkZGSwKYa0Wc8WFxdj48aNAGoHXwp/lrbqlvo8r2VdC+tr/4qzt7dn+7rUbVMS8rZ5a4MLQO0CkfPnz0dkZCQqKipQUVGByMhIzJ8/H5s2bWro4tWradOmYcyYMQCAAwcOYPv27SrPOGjXrh2A2ouy+MKsitLR0YGlpSX7ry4JCQlsfmXm82WVjbkJVaSBbWJiwpZBkel6TGSbx+PJHRHMjHwrKChQaLqehYUFW466OthMTEwwaNAgTJkyRSSdjTQeHh4AJEeWDxo0CBcvXkRISAhatmwpdxtMJ7G2L97vorFjxwKovXFiRl+r6/fff2fPTeaclYXL5bKjJx8+fMgGghRlbW2NVatWsX8LBAJcvHhRyRLXjr4Tngbr4eHBpk4T16VLF5GZEvHx8QqdI1VVVVi0aJHIAscODg44evSoxI2TeGBDnZyUPB4PGzduFOkAOnv2rMrbU4T42gPKLEKqDeLBBE2Up6CgQGI0nTrBBU3+5m5ubiIdH7/88ku9zNBr2bKlSEd/fHy8yMj8vLw8kdGa7dq1w5AhQ5T+nLy8PJFgibe3d52jsLUtPT0do0ePRmxsLPh8Pvbu3cumvxGWkJDA3kyNHj26zoU8mTq0oqKizjQ6iqrPOlqYoaEhm8bo+vXrKh+TzOK4gGprQnG5XGzYsAFcLhebN2/W2vozR48ehUAggLOzM/u9mc6fy5cvK7Wt+/fvY/z48cjPz0ejRo1w/PhxqaMomXZgZWWlVutdJr0Ph8NReDSnOHV/x7qUl5ezx5hw+1j4Wqhqeofnz5+z58K4cePUKOXbjdlXmlyzTJoZM2YAqD2uVBnoUlNTg0uXLgEAm4pMnj59+rDBDEXbjIrW8Zo4vhienp7sNVWVtq2yhAc4aOOcVIa69YO9vT3mzZsHgUCAZcuWvRXpkJYuXcoeM8ePH9fIgIEHDx6ws/KZGTOawHT+antWlrx2QXV1Nf78808AwODBg7Wan184ZZ3wQszaqFvq+7yWdS2sz/0rbNiwYez/NdWuJeRt8VYHF4DaGQxjx46Ft7c3vL29MXbs2A9uxkKvXr3g6+sLoHZKtqwUL4piOqPj4+NFRisrw8vLCz///DP7ry7V1dXsaN7+/ftLrcA5HA5Gjx4NoHa2gCIdlqtWrWLLwLxXnpcvX7KdPaNGjZL6GnNzc/ZCf+PGDYUaZMePH2fLweRNlaWqqgoBAQGYOHEipk+fLrNzpUWLFuxvJT7y+NGjR+z/hUfoinNzc2NTZqiyaNb7bMqUKexokUOHDmlsuzk5OTh//jyA2qCgvBkjs2bNQvPmzQEAR44cUfgzeDwe+vTpg9OnT4ukRDl9+rTKHUWHDh0SCUAFBQVh5MiRIqlu+vTpgz179oi8b+fOnQp/hkAgwNy5c0WOZ1dXV+zatUvkc1JTU0XOu4EDB6Jx48ZKfR+gdvr10aNHRTqaX7x4wTaUtcHT0xOTJk1i/66urm7Qqej29vaYM2eOyGOaSAm1ceNGiZHX6qRF0sRvzufzoaenh6+++oqd0VVaWorDhw9DT09P6j/x8kt7XFxAQIDI7DYOh4OePXvi4MGDIjPJpKVu/PHHH0X+3rp1K+bNmyc1SO/u7o7p06eLdDIwxOuLoKAgBAQEsDd1DGNjY/Tv318i+O7o6Ij27dujffv2Si2SLU9+fj4mT56M+Ph46Ojo4IcffpD6G/70008AgI8++giTJ0+Wub127dphwoQJAGrXRtJEnltAe3W0vFmEALBkyRJYWFigpqZGrbSewjNeVEkn4OPjg5YtWyIqKgohISEql6MuycnJ+P333wEAM2fOROvWreHs7IyCggL2hl4Zjx8/xuTJk1FcXAx7e3scPHhQ4rhmrn98Ph8+Pj7qfwkZmFGO1dXVCi8MLo75HdPT0zW2Hpawjh07sgFf4TRSwm0EeYN96sJ06HXq1Im9R3nfMPtKm6Na+/Xrh4EDBwKoHTym6kCgsLAwVFZWwsjICOvWrZN5PRYelPLixQt2tL4iFKnjNXV88fl8BAcHg8Ph4M2bN7hw4YLK21IUk1NfW+ekMtStH4YOHQpDQ0Ps27dP5YGEmmJpaYmdO3di1qxZAGpnOzPr/WjCli1b8Pr1a6ltJWGKzjLr2rUrO6tRVrodRanbLggNDUV1dTVMTEywcePGOrenKmZQJSCZelOTdUtDnNeyroWA5vdvXfdBrq6u8PPzAwA2fbW4tm3bYsCAASrPiiSkIb31wYUPnZmZGebPnw+gNjofGhqq1vY4HA47nVzVRZRUFRoaioqKCpiZmWH9+vUi0W99fX3Mnz+fvRkU74DRJGYaZps2bRAQECDSkWRjY4MNGzbA2NgYZWVlau9vaUpLS9mLadu2bbF48WKJkdsff/wx1q9fD6C2MS+cegSoHWHATJnt2bMnAgICJAI2HTt2ZKc5VldXszf5H4oZM2bAy8tL4nE7OzusWrUKa9asAVCbW1N8/6pr/fr1yMzMhK6uLkJDQzF69GiRUd2WlpZYvXo1li5dCgD4888/FS6DoaEhoqKisG/fPpGUGMnJyfjmm29ULnNkZKTIFGU9PT0EBwfjn3/+wcWLF/HPP/9g3759MDU1ZV9z8eJFpUedVFZWwt/fH7GxsexjzCL1jIqKCpHtWlhY4MqVKwgNDcXmzZuxceNGfPvtt3IXAwwJCcFvv/0mMrKuvLxcoyO4tm3bhm3btmHjxo0IDg7GyZMncfnyZZEO3mvXrkk01LXFz88PO3bswKZNmxAUFIQjR44gPDxcJPVLbGysSHBSFRERETh9+rTE43WNQpdHE7/5nTt38PTpU5G0XQYGBrh9+zaePn0q8S8iIkLk/WPGjGGfk5c/e9SoUbh+/Tru3buHK1euICoqCocOHRJJT/b06VOpHbc3b94USdeio6ODefPm4f79+wgPD8eFCxdw7do1xMbG4vr161i1ahWaNGkisZ2rV6+KjP7m8XhYsGABIiMjERERgcuXL+Off/5BTEwM9uzZw6b3YHzxxRc4deoUTp06JTHTRh25ubmYMmUKMjMzYWpqikOHDklc306dOsUGGL/66issXbpUJPUAn8/H+PHjceTIEfB4PKSlpWl8tqo26uh169bB399fYmSfvb09goOD2UDKiRMn8PDhQ6XLbGBggEmTJmHx4sUAatuEqqRt5HK5qKqqwsqVK7U+o5FJH9S6dWt2IdXLly+rPLDl0aNHmDNnDgQCAXx8fLBt2zaR58PDw9lc0Vu3bpVIU6YIPz8/tG3bVmongbW1NQICAjBz5kwAtXWhsgsy2traIjAwkO3I1ETqGGE6Ojro168fu28KCwtFgjnZ2dns2kwBAQEYPHiwSoHhQ4cOsbOQ1q9fj8DAQKlpuuzt7TFlyhSNBTHrE9Nu/vTTTzF37lyNjmzl8/mYNm0atm/fDg6Hg4cPH0qsEaKMFy9eYMeOHQCAAQMGYN++fRId/927d8fPP/8MJycnCAQCLF26VOn2UF11vCaOL09PT4SGhqJ169aoqanB2rVrUV5ertQ2lGFvb4/AwEA2bZumz0llaKp+4HK5SE5Oxvfff6/J4klla2sr8hvz+Xw4ODigf//++Prrr3Hr1i12HYqIiAhMnjxZo2nGSkpKsHbtWrmvcXR0REREBFauXIkWLVpI7UQ2NDSEr68vuxZWUVGR2msVqtsuiImJYYMOQ4YMwU8//YQ2bdpIlN/Y2BiDBw+Wet87ZMgQ9O3bV2q7Vl9fH8OHD2cXOi4oKJBYD0VTdUt9n9d1XQsBzexfYa6urggJCUHnzp1Fzgkej4d+/frh+PHjMDMzQ1lZmdT7mVGjRuH06dPYvXs3OxCHkHfJW7ug8/ugd+/eWL58ucTjwh0w4het0tJSkZHoQ4YMgbGxMYDajmhFFuFct26dzLUUzMzM2EioeKodbcvMzMQ333yDNWvWoFWrVggLC0MkoqufAAAgAElEQVRCQgIqKyvh5ubGXvROnjwp0emjSeHh4Thz5gyGDx+OYcOGoW/fvkhMTISuri6aNGkCLpcLgUCAjRs3Ijs7WytlOHDgAJo2bYrmzZujf//+6N27N169eoWioiI0atQIVlZWAGobNuvWrZNajm3btqFRo0Zwd3fHsGHDMHjwYKSnp6O0tBR2dnbsTVBNTQ327NnzQc1csLOzw8qVK7Fy5Urk5eXhzZs3qKyshJWVlchI/9u3b2P27Nka//y8vDxMmjQJP/74Ixo1aoRvvvkGX331FZKSkmBgYAAnJye2I+vvv//GggULFN52SUmJRIMtPj4eM2bMYFOPqSooKAh6enoioxBl5Xu9cuUKli1bptLnlJaWws/PDxcuXGA74qdNm4bbt2/jxo0bAIBvvvkGH330EdtZwePxpE7Bl0V8X+Tl5WHBggVqj0ISxoz8liU+Pl6lhfhU1aRJE6kd0Yz09HSljjVpKioq2E5CceqO+FH3N69vNjY2IgEFRnx8PKZPny6z02bFihWorq7GiBEj2Mc4HI7MhZmbNm0qNS8r08k8YMAA9jEejyeSz5XRrFkzmQuFKts5WpfU1FT4+fnh1KlTcHFxwebNm9kFxRlz587Fnj170LlzZ/j7+2P69OlISUlBZWUlnJ2d2fZASkoKZsyYobFZCwxt1NGmpqZYunQplixZguTkZHZBYxcXF7bdd+XKFXbggDzXr1/Hq1evUFBQgLKyMlhZWcHd3Z3dLxkZGSrXv0DtAI76mFEVGxuLa9euoU+fPuwoZkVmu8oTHh6OoKAgrF69Gv369cPUqVPZwHhhYSE2bNiATZs2wdPTE6dPn0ZqaipevXqF0tJSGBgYwMzMTOZaFebm5liyZAm4XC7KysqQlJTEnh82NjZwdHRkOwwyMzPl1u+NGzdGZGQk0tLSUFhYiOrqatja2sLd3Z09tqKiorB7926V9sPo0aPRqVMn5Obmori4GAYGBrC2toa9vT07o6O0tBTz5s1jAy6M9evXIzQ0FCYmJti5cyfy8vKQlJSEvLw86OnpwdjYWOp6SMIEAgEmT56M/fv3o3Xr1pg0aRImTZqEzMxMZGdng8fjwdLSkm3PxsTEaPT6Wx9+/PFH9OnTB02bNsX8+fPh7++PhIQEZGVlQVdXFwYGBrC3t5eYMVaXZs2a4eTJk+z93YsXL+Dv76/2wIe9e/fC3NwcM2bMwKeffopevXrhzZs3yM3NhaOjI1vOsrIyLFy4UKUgJ1B3Ha/O8bVlyxb22lhdXY1NmzYpdO+riLFjx6J79+7Izs5mZwPY2dnBzc1NJCWvquekMrRdPwBAYGCgVjtvGcxMQOazpM3+zMnJwc6dOxESEqKVNc/+/PNP/PHHH2xQRtzw4cPZc4NpUyQlJSE/Px/V1dWwsrKCh4cHGwQtKSnB1KlT1Vr7C9BMu2D9+vXg8/kYPXo0PvnkE3zyyScoLCxEWloaBAIBTE1N4eDgAA6Hg+DgYDx//lzk/f7+/mjWrBkEAgH7nSsrK2FpaQlHR0f2elFVVYVly5ZJXC8A9esWbZ7X6lwLAfX3r7guXbqgS5cuKCgoQEpKCjgcDpydndl+meLiYvj7+4ukTWUwa1EAtYNE9fT06uUcJkRTKLigRRwOp87OFvHnxUd3KLKOgDKMjIzY/0urYLXtr7/+QlZWFvz9/dG8eXN4enqyz6WkpODYsWMau9jIs2vXLrx8+RLjx49Ho0aN2LQHNTU1ePToEfbu3auR1CGylJeXY9GiRRg1ahSGDBkCGxsbkTQbJSUl+Pvvv3H48GFkZmZK3UZeXh7mzJmDsWPHYuDAgbC2thYZgVpdXY2HDx8iJCSkzgV33zd6enq4desWPv74Y5ibm0ssyPXmzRscPXoUhw4d0lpe1WfPnuHzzz/HsmXL2OnJwqOHc3NzcejQIezdu1fpG8r4+Hh07NgR//33H06cOIEjR46oPBJUmEAgwJo1axAVFYW5c+dKXew0IyMD+/fvx+HDh9Ua9Zqamoply5Zh//797GNBQUHo06cP26gbMWIEAgIC8MUXX7A34dLk5ubi6dOnIqN44+PjMWDAAOTm5uLs2bPYt2+fyguoMqKjoxEVFYXmzZvLrZvT0tLw888/Y//+/VqdWv/q1SuEh4ejZcuWcjs38vLycPbsWezatUvlFB6MAwcOyBwtrc7MBQBq/+b15fTp0+jdu7fEPi8pKcEvv/yCrVu3ys3RXVFRgSVLluD27dvw8/ND06ZNpb5OIBAgOjpaZqqz0tJSfPnllxg3bhxmzJghc3HizMxMies90xaorq5GXl6ezLKq6uHDh9i+fTsWL16Mvn37Yvjw4SIzNpj0GrNnz8aUKVNgYWEhMhKuvLwcv/32GzZv3qz2MSuLpuvo/fv3w8vLC927d4erq6vIosM5OTk4ePAg9u/fL7NjJTU1FU+fPoWXlxeMjY2lrslUXFyM3377DTt27FC5PktLS6uX0ayMbdu24bPPPgOHw0FcXJzMIJcyDh8+jB49eqBbt25YunQpbty4wdYFJ0+eRHp6OhYuXAgfHx84ODjAwcFBYhtZWVkSa3sZGxvj5s2b6Ny5MwwMDKSem8XFxbhw4QK2b98udZBOXFwcUlJS4OTkBGtra6k5qtPS0nDs2DH8+OOPSl+77927B0tLS9jZ2clMHZednY1r165h7969UjswYmNjMXLkSCxduhQ9e/aU2k5ivuvTp09l1hGZmZkYN24c/Pz8MGbMGNjb20sEXQUCASIjIxvknkNd+fn5GDduHObNm4dRo0bB0NCQvV8QVlVVhfj4eIXTlOXm5sLY2BhFRUU4fvw4duzYoZH9w3TaxcTEYMGCBWjcuDEcHR3Ze4OamhpEREQgKChI7VQ58up4dY4vpq6Njo7G1q1bNTLYLCoqCnZ2drC0tISTk5PUQP6bN28QEhKCQ4cOaaQ9LYu26wfGtWvXRNZS07TExEQ8fvwYTZo0YQctCgcVampq8ObNG0RFReH69eu4evWq1jtJv/76a/To0UNqeqTQ0FBUVVVh+PDh8PT0hImJidTUeSUlJbh06RK+++47jay3oG67AKitX5YvX467d+9i1qxZ8Pb2homJicRMqri4OImsFFwuF7GxsbC1tYWVlZXUa4ZAIMCtW7ewbds2mWu+qFu3aOO81sS1EFBv/4pLSUnB8ePHMWXKFNja2oqkymb20YYNG2QGKMLDwzFo0CAAtRkFKLBA3jUcd3d3WuVVCcIdwEQ9lpaWcHBwAI/HQ0ZGhsYW1FWWo6MjrK2tUVlZiTdv3milo6UuDg4O7KKAOTk5SE1NVbrTm7mp09XVRVFREZKTk9Va0PB9mOlgYGAAT09P2NvbQ09PD0VFRUhMTERiYmK9LnBtbGyM1q1bw87ODlVVVUhOTsa///6r8ig1d3d3FBQUaG1mDcPLywtNmzaFqakpiouL8eLFCzx58kQro47k4XK58PLygr29PUxMTFBVVYWysjJkZWXh9evXUjsfbW1toaenh1evXmn8t+ZwOLCxsUGjRo1gbm4OAwMD6OjooLCwEImJiUhKSqr3BdTNzc3h6OgIS0tLGBoags/no6SkBMnJyUhISHgrFvNThiq/eVRUFNvhP2PGDKXyunt5eYmkjvPx8WE7e1auXMkuuAnUjixKTU1F06ZN4ejoCC6Xi4yMDDx58kSlGwEHBwd4e3vDysoKXC4XRUVFeP36NeLj45XqcHJ1dYWXlxfbiZOXl4eXL18iISFB4rW7du3CwIED8fz5c/Tv31/pMmuSjo4OWrZsCWdnZ/B4PKSnpyMmJqZec16rWkebmpqyI/TmzZuH8+fPw9zcHK1bt4alpSWqqqrYRVoVPQd5PB57025sbAx9fX2UlZUhNTUVz58/12rHlzbo6uri7t27sLCwwOrVq9Vab0JZtra28PT0hIWFBaqrq1FaWorMzEy8fv1a7ohUHR0dNGnSBM7OzjA2NoaOjg6Kiorw6tUrhX8DAwMDODs7w9bWFkZGRuDz+SgqKkJSUhL+++8/ta8RxsbGcHFxgZmZGQwMDFBaWor8/Hzk5OQo1Z42MjJCixYtYGlpCR0dHZSVlSE3NxevX79Genq6wuXkcDhwc3ODm5sbjI2NUV5ejszMTMTFxWk0BUpD4fF4aN68Oezs7GBgYICKigoUFBSwM2OUbbM3a9YM8fHxWl042NPTE56enjAwMEBubi5iY2PVHmShLGWPr0aNGqG8vFwr7VtTU1O4uLjAysoKhoaG4PF4KCoqwn///Yfk5OR6bbdpu36oT+bm5jA0NIShoSG4XC5bz6pzD6pN1tbWaN26NWxsbGBqagqBQIC8vDykpKQgOjoalZWVam1fG+0CYXZ2dvDw8IC5uTk7QCQuLk7uNY2ZHdukSROYmJiwI+LT0tLw7NkzpRetV7Zu0eZ5ralrIUOV/btmzRpMnToVCQkJ+Oyzz8DlctGsWTO4uroqXf+2bdsWdnZ2uHHjxlt7DhEiCwUXlETBBfKheB+CC4SQD0d9BhdevXqloVI3jKtXr8LDwwMhISH1mrrrfSOtE4GIGjduHL7++mtkZWWhW7duNBKPEELIe4vaBR8e8eACIR8qWtCZEEIIIeQDYWtrCw8PDwDAb7/91sClIe8zJycndm2QXbt2UWCBEEIIIYSQ9xAFFwghhBBCPhBDhw4FADx//hz//PNPA5eGvC98fHzQuHFj8Pl8WFlZYdiwYTh16hQsLCzw4MEDhISENHQRCSGEEEIIIVpACzoTQggh5J33999/swuwZWVlKfXeoqIi3Lhxg/37XVujQhllZWVIS0vDli1bGroo5D2yZMkSdOvWTeLxJ0+eYObMmfW+Vg8hhBBCCCGkflBwgRBCCCHvvPnz56v83jdv3mD69OlSnyspKRFZyO1dDzyEhITg+PHj7/z3eBtUV1ezx8a7ttCypmVmZiIjIwPW1tYoLCzEy5cvcfHiRRw7dkyri9YSQgghbwtqF3x4mPuE/Pz8hi4KIQ2KFnRWkpOTE3R1dRu6GIRoVWVl5Tu/YCkhhBBCCCGEEEIIIUR7aM0FJZWWljZ0EQjROjrOCSGEEEIIIYQQQggh8lBwQUnFxcUNXQRCtI6Oc0IIIYQQQgghhBBCiDwUXFBSWVkZCgoKGroYhGhNQUEBysrKGroYhBBCCCGEEEIIIYSQtxgFF1SQnZ1NaWPIe6m0tBTZ2dkNXQxCCCGEEEIIIYQQQshbjoILKkpLS6MZDOS9UlBQgLS0tIYuBiGEEEIIIYQQQggh5B2g09AFeJdlZ2ejuLgYRkZGMDAwgK6ubkMXiRClVFZWorS0FMXFxZQKiRBCCCGEEEIIIYQQojAKLqiprKyMOmUJIYQQQgghhBBCCCGEfFAoLRIhhBBCCCGEEEIIIYQQQpRCwQVCCCGEEEIIIYQQQgghhCiFgguEEEIIIYQQQgghhBBCCFEKBRcIIYQQQgghhBBCCCGEEKIUCi4QQgghhBBCCCGEEEIIIUQpFFwghBBCCCGEEEIIIYQQQohSKLhACCGEEEIIIYQQQgghhBClUHCBEEIIIYQQQgghhBBCCCFKoeACIYQQQgghhBBCCCGEEEKUQsEFQgghhBBCCCGEEEIIIYQohYILhBBCCCGEEEIIIYQQQghRCgUXCCGEEEIIIYQQQgghhBCiFAouEEIIIYQQQgghhBBCCCFEKRRcIIQQQgghhBBCCCGEEEKIUii4QAghhBBCCCGEEEIIIYQQpeg0dAEIIW83fX19GBkZwcDAALq6ug1dHELIO66yshKlpaUoLi5GWVlZQxeHEEIIIYQQQgghKqLgAiFEJisrK5iamjZ0MQgh7xFdXV3o6urC1NQUBQUFyM7ObugiEUIIIYQQQgghRAUUXHiH6enpoXHjxnBxcYGbmxs8PT0RHR2N0NDQhi4aeQ/Y29vDwMCgoYtBCHmPmZqaQldXF2lpaQ1dFEIIIYS8I8zMzNCkSRM4OzvDzc0N3t7e2L9/P6Kjoxu6aIQQQsgHh4IL7xg3NzeMHDkSPXr0QLNmzcDlii6bwePxKLhA1GZlZUWBBUJIvTAwMICVlRXNYCBEQZ6enhg8eDCio6Nx8+ZNkef69esHb29vnDt3DomJiQ1SPkKI5vF4PAwfPhw+Pj4IDAwUeY7L5WLdunWIiorC2bNnG6aA9aBDhw4YPnw4unbtCmdnZ4nnb968ScEFQgghpAFQcEHDeDweWrdujY4dO8LOzg5mZmYoLi5GYmIioqKiEBMTg5qaGqW3q6+vj9WrV2Ps2LEiAYWKigokJSXhzZs3SEpKwl9//aXJr0M+QPr6+pQKiRBSr0xNTWkNBkIU1KpVKwQEBODBgwcIDw9HdXU1AEBHRwfz5s2Dt7c3nj17RsEFQt4jAoEAc+fOhZOTE27cuCFyzzdw4ED4+vqiQ4cO72VwwdHREd9++y0+/vhjkccLCwuRnJyM169fIyEhATExMQ1UQkIIIeTDxnF3d1e+p5tI0NfXx4QJE+Dv7w9LS0uZr0tOTsb+/ftx4sQJ9mawLvb29jhy5Ag8PT0BAPHx8QgLC8O9e/cQHx8PgUCgke9ACEDrLBBCGgatv0CIYgwNDXHz5k1YW1sjPDwcv/76K3g8HsaMGYOOHTsiLS0NvXr1Qnl5eUMXlRCiQTNmzMDKlStRWFiIffv24eXLl/D29sbMmTNhaGiItWvX4tixYw1dTI3q3Lkz9uzZAzMzM9TU1CAiIgKnTp1CTEwMkpOTG7p4hBBCCAEFFzTCzc0N+/fvh4eHBwCguroaT548wYsXL1BSUgJTU1N4e3uzzwPAgwcPMHv2bGRmZsrdNp/Px6lTp9CqVSuUl5dj7dq1OHXqlFa/D/mwOTk5QVdXt6GLQbTIyMgILVu2BAA8ffoU+fn5DVyi95+7uzvs7OwkHi8uLsa///7bACXSng4dOoDH4+H169dISUlR+H2VlZV49eqVFktGyPujXbt2OHDgAMzNzUUez87OxvTp0/Ho0aMGKhkhRFt4PB62bt2KoUOHSjz3888/Y/ny5SrNkH9bubi44Ny5czAzM0NaWhrmzJlDaY8IIYSQtxAFF9Tk4eGBn3/+GWZmZgCAY8eO4YcffpC6OKWnpycWL16MPn36AABSUlIwYsQIZGVlydz+ggULEBAQgJqaGkyePBm3bt3Szhch5P9zd3dv6CIQLWvatCn27NkDAFiyZAkePHjQwCV6/y1YsACDBw+WePzly5eYNWtWA5RIey5evAh9fX2Ehobi0KFDSr33v//+01KpCHn/WFpaYtiwYWjWrBlqamrw5MkTnD17Fnl5eQ1dNEKIFnXt2hWffvoprKyskJmZiWvXriEyMrKhi6VxJ0+eRIcOHZCTk4OBAwciIyOjoYtECCGEEClozQU1GBsbY9++fTAzM0NVVRWWLVuGM2fOyHx9fHw8/Pz8sHDhQnz55ZdwdnbGnj17MHbsWKkpkoyMjDBp0iQAwNGjRymwQEg9mT17NrhcLnbv3t3QRSHvibi4OBgbG7N/N2vWTOpMBkIIUVROTo7SATxCyLvv9u3buH37dkMXQ6vat2+PDh06AABWrVpFgQVCCCHkLUbBBTX873//Y0d5b9y4UW5gQdi2bdtgYWEBX19ftG/fHmPHjkVYWJjE6wYMGMDOiDh8+LDmCk4IkUlPTw/Dhw9Heno6BReIxly+fBmXL19m/165ciUFFwghhBBCpBgzZgwA4PXr17h69WoDl4YQQggh8lBwQUXm5ubsrIKYmBiEhIQo9f4tW7agb9++sLGxgb+/P06ePCmxMHOXLl3Y7TMLVhkaGqJNmzawtbVFeXk5/vvvP8TFxdWZX9Pf3x8ODg64f/8+Lly4oFRZAWDq1Klwc3NDdHQ0zp49yz7u5OSEmTNnAgC+//57mSme9PX1sWLFCgC1U1yfPHki8/mff/4ZsbGxMstibW2NgIAAALVBl8TERJmvtbKywoQJE9CtWze4urqCy+UiLS0N9+7dw/HjxxEfH1/3l5eiRYsW+Pzzz/HRRx/ByckJRkZGKC4uRmJiIm7duoWTJ09KXZjUxcUF06dPV+qzBAIB1q9fL/U5b29vjBs3Dh07doSdnR2qqqqQlJSEmzdvIiwsDLm5uSp9vw+Zh4cHeDxeQxeDEKIBdnZ2GDduHD755BO4uLiAx+MhJycHmZmZePToEU6dOoWEhAT29f3790fnzp2V+oxz587JTS1maGiIYcOGYdCgQXBxcYGuri5SU1Nx9+5dHD9+XO6ClEx5MjMzsWvXLrnlWL16NXR1daWWR/gaGxYWhmfPnsncjq6uLhYsWAAjIyNcu3ZN6qxJV1dX+Pr6olWrVnB0dISxsTGqqqqQkZGBR48e4cSJE4iJiZFbXsbYsWPRrFmzOl+XkpKCgwcPSjyubvuGuY4CQHBwMIqLi2W+tn379hgyZAgAYO3atRLPK/N7SdOzZ0/06tULubm52L59u8TzzHeNiIjAlStX5G7L19cXXl5eiI+PV7qNKkzZc0iYj48Pxo8fj9atW8Pe3h65ubn477//cPbsWVy5cgVVVVUyP9fd3R2dO3eGt7c3GjduDDMzM5iYmAAAsrKyEBsbi4sXL+L+/ftyy29hYYGBAwfCx8cHrq6usLa2hpGREXR0dFBYWIjc3FzExcXh2rVrCA8Pl7kd5rdNTU3F3r175X5mly5d0K9fP1RWVmLjxo1yX+vj44MxY8agXbt2bDsuOzsbaWlpiIyMxPHjxzW2LpKixzpznJWVlWHHjh0oKSmReA2fz8eIESPQv39/eHp6wtDQELm5uYiJicEvv/yCv//+W+q2v/rqK6XbWD/++KPUelLdNr6VlRW6dOmCFi1awNPTE1ZWVjA2Ngafz0d+fj6eP3+OP//8E7///rvEPZowZe5hZFm3bh0A4MyZM3j48KHIc8K/26ZNm+Qu1O7o6IiZM2eCw+HgwIEDSq9jpKnzDqhdiPnzzz+Ht7c37OzsYGhoiOLiYqSnp+Pvv//GiRMn8ObNG5nv79q1KwDgwoUL7H2ujY0NWrZsCQsLC+Tn5yMuLk7p79izZ0988cUXaNWqFczNzVFSUoK4uDhcvnwZZ86ckVovde/eHb1791bqc16+fPn/2DvvsKbO9/+/kzBMGLIJQ1QEVBwoah2tuLeiFIoTRVyg4kBxr7pHtbWtrdY9cGutVq3aViutWnC0ihMnypAlQ5CRkN8f/M75JmSQcQDt535dF9elycnJk+c8437uiT179rD/53Lf1HVt5fr8WRFd9r6goCA0a9YMz58/V+k8aWZmhtDQULRq1Qr16tVD7dq1wePxkJmZiadPn+LHH3/E+fPnDa4twuPx0K1bN/j7+6NZs2bsWMjMzERSUhIuX76MY8eOsdkluJajGGrVqoXAwED06NGDXUtzc3ORmZmJxMREnDp1CleuXAHA7fppyP4sP54OHDiABw8eaNWWrl27olOnTgCApUuXalxXDW2jJqpLluLyTMHl2sxg6B6qjfwtv39dvnwZv/32m8rrdJWFuHyGhsoCtWrVwpw5c8Dj8Sqd78D/yYiFhYVYs2aN2v54n9Z4bSHjgp706NEDIpEIALBjxw6VaY00kZeXh6NHjyIiIgKurq5o3bo1/v77b4VrmFDQhIQEuLu7Y+rUqejdu7dSsd3U1FRs3LhRY6HnAQMGoHHjxhAIBHodvnv27Im2bdtCJBIpGBfs7e0REhICoDx1kzrjgomJCXvdtWvXlIwL8u9fv35do2Beu3Zt9tqzZ8+qNS707NkTGzZsYJ8Tg7W1NRo3boyRI0di48aN+OabbzT8ctWMHj0an376qcJrFhYWEIvFaNeuHSIiIjBz5kylxc7BwYFtu7aomvg8Hg/Tp0/HxIkTwefzFd6zs7NDq1atMH78eEydOhWXLl3S6fu4gM/n6zwnqgIej6ez8NmwYUNO22BqaoqSkhK9hGAjIyOVgpOxsTFKS0u5aF6NYWxsDJlMprNgaEh/Mhg6Pnk8HkxMTDQe8D8UjI2NUVZWVqmA/yEycOBArFq1CrVq1VJ43draGg0aNEC7du3w+PFjBcVomzZtdF6j7927p9a44Ovri02bNilFqTg4OMDHxwdhYWGYP38+jh49qvLzTHuePn1a6YF9xIgRMDExUdke+T32zz//1HgoXrt2LQYOHAigXL5QJSQ3a9YMY8eOVXrd1tYWjRs3RnBwML744gt8//33GtsMAF26dGFrUWnin3/+UWlcMFS+cXNzY/vm22+/1WhcaNiwIXutKuOCLs9LFT4+PggJCUFycrJK4wLzW0tLSzUepoYMGYJly5YBKD/M6Wtc0GcOAeXryqJFizB8+HClz7m7u6Nbt264ceMGwsPDVTpiWFpaqj2AAuXPzNfXFyNHjsQff/yBGTNmIDs7W+W1bdq0YfuiIvb29gDKi2MPHz4c8fHxmDBhgsqaFcyzvXfvnkbjQpMmTfDDDz9AJBKhpKRErXFBIBBg7ty5GD16NHg8nlK7GjVqhM6dO+P06dOcGRe0Gevz58/HmDFjIJFIEBERodKw0KBBA2zduhX16tVTeN3S0hJ169aFv78/zp8/j6ioKKXPh4SE6KwcO3XqlJJyjAsZf8+ePWoNm66urmjSpAkCAgLw/PlzREZG4u7duyqv1eUMow7m83fu3FEyLsg/ty+++EKt7GFhYYGdO3fCw8MDAHDixAmdFO9czjsA6Nu3L4KDg5XaKBaL4ePjg9DQUEyaNEmlIcrV1RVisRhA+Tn4k08+wZQpU9CqVSul+XL79m0sX74c169f1/j7zM3N8fXXX6Nz585Kv1ssFqNz584YN24cxo0bhxcvXihc07x5c51lgytXrigYF7jYN/VdW7k6f6pDl73Pz88P/fv3x99//63SuCAUCjFjxgyl162srODh4YGePXvi/PnzmDp1qt5yuJWVFTZt2qSk+K1duzacnJzQrFkztH+970MAACAASURBVGjRAkeOHGHf41qOAgBvb2/88MMPcHZ2VmoHM9+MjIxY4wIX66eh+zNQntqV6Qtvb2989tlnlbbDzMwMa9asga2tLQCorVHKVRs1UV2yFFdnCq7XZoCbPbQy+btevXrYvXs37O3tcfXqVaxcuVLpGn1lIS6foaGyQFFRET755BO4u7vDwcGhUuNCcHAw/P39Ve597+sary1kXNCTTz75BAAgkUj0Vt6eP38eERERAICOHTsqGBeMjIzg5OQEAHB2dsbJkychEokglUqRmJgIiUQCZ2dndhNcvXo1GjVqhGXLlhlsyf8v8Nlnn2H16tXg8Xh4/fo19uzZgzt37qCkpASenp4YPnw4GjVqhOnTp0MsFmP+/Pk63f/ChQuQSCS4fPkykpKSUFJSAisrK/j6+mLEiBFwdnbGpk2bMGfOHAWl0cuXL1UeNCdNmgRra2tcuXIFv//+u8J7qpSga9euRWBgIADg7t27iImJwZMnTyAUCtG8eXOMHDkSdnZ22LZtG2bOnKlgEKoKjIyM0K9fP3Tt2hXu7u4QiUR49+4dMjMzER8fj59++knpgMPj8bB69WpYWlri9u3bWimhli9fDltbWyQkJKhMWVS/fn0EBgay0T08Hg/Z2dlISkrC2bNn8ccff6hVZq9evRq1a9eGg4MDgPINTVWbnjx5gi+++EJtG3k8Hnr27IlevXqhUaNGMDU1RVlZGVJSUnDlyhUcOnRIpeKibdu2CA0NxfXr1/HTTz9h3rx5aN68OfLy8rBx40b88ccfaNGiBaZOnQo3Nzfk5ubiu+++w6+//qqyHb6+vqxHsKmpKbKzsxEXF4eYmJhqWSOsra1ZIWL9+vV4/PgxRCIRRo0ahS5durDCZX5+Pm7dusV67VVE3/6UR5/xWRELCwsEBgYqeO9KJBI8ffoUsbGx+PHHH/Hu3Ts9ekozHTt2xLBhwwCUG7Ir80gJCgpiveuWL1+O5ORkpWuaN2+OwMBA+Pj4wMLCAjKZDNnZ2bh16xYOHjxYaVFlFxcXjBo1Cq1atYKlpSXy8vJw7949HD58GHfu3Hkv9qDQ0FAsWrQIAJCRkYH9+/fjxo0byMnJgVAoRIMGDdC9e3el9ZYhKyur0jVp7ty5Gg95rVu3RkxMDIyNjZGeno6tW7ciPj4excXF8Pb2xoQJE+Dl5YW1a9ciOztbbVu4RtPzmThxInsg1sT9+/cRExODq1ev4sWLF3j79i3MzMzg6emJ8PBwNGzYENHR0UhISFDrwVyRu3fvqkwv2bt3b7Ru3VqrexDARx99xMlhQd85xOPxsGXLFlaBd/78eRw8eBCvXr1iowhGjBiBVq1aYdu2bQgMDNRo7L148SIuXLiAlJQUFBYWQigUws3NDQMHDkTr1q3RqVMn/Pzzzxg8eDBevnyp8TdNmjQJDx8+REFBAUpLS2FlZQVHR0d069YNI0eORJs2bbB+/XqN3l+a5o+trS22bt2qdFhXxbfffotevXoBKB/7R44cwcOHD1FYWAhLS0s0adIEjRs3rvQ3ccmMGTMwZswYSKVSTJ06VaUyw9vbG/v374elpSWKiopw6NAh/PXXX8jOzoaLiwsGDRqELl26oGfPnjh8+DA+++wzhb1xxYoVSk4x/fr1Q8uWLZGcnKxS2VixD7iW8RMTE3Hw4EEkJSUhLy8PAoEAzs7O6NKlC3r16oV69erh2LFjmDRpkkYFT3Wgbvzx+Xx8/fXXrGHBULiYd1evXsWbN29w69YtJCcno7i4GNbW1mjVqhUiIiJgY2ODb775Bt27d1dyTqtTpw777969e6Nfv34AgMLCQjx9+hQikQhOTk7suScmJgYzZ87EqVOnVLbFzMwMR48ehZeXF2QyGX799VecOnUKKSkpsLW1hZ+fH4KCguDh4YEff/wRgwcPVvDajY2NVTKUWVhYYOrUqQDKPdkrGlkryl+G7puGrK1cnT+rg8zMTBw7dgzx8fF49OgR8vLywOfz4erqiuHDh6Nbt27o2bMnpkyZgnXr1ul8f2traxw/fhx169YFAPz66684ffo0Xr58CalUCltbW7Rp0wb5+flq78GFHOXr64s9e/awhugjR47g8uXLSE9PZ9cgPz8/nDlzhv2MoesnV/szo6MCyo3zXbt2rVSGHTduHHv2A8qVoaqMC1zLEPrClSwFcHOmYOBiba5qPRlQvobHxMTA3t4eN27cwLhx41QaA6tSFtL1GRoiC8TGxsLd3R0dOnSAQCDQ6LTXqlUrAOV7pDz/hTWejAt60rx5cwDlgoKmzUcTt2/fRlFREWrVqgUvLy+F95ycnNjNo0uXLigsLMS3336LHTt2KCjS2rVrh/nz56NJkyYIDQ3FnTt3tK798F+lbt26WLJkCXg8Hm7evInRo0crPCMmtGr58uUYMmQIhg4disuXL1caUiXPuXPnVF4fFxeHPXv2YOvWrWjfvj0+//xzXL16lRUwX79+rbL44siRI2FtbY3bt29XWpzR39+fNSzs2bMHn3/+uYKQw1hld+3ahebNm2PZsmWIj49XqWTkAlNTU6xbtw5NmjQBALx9+xZJSUmoVasWnJ2d8emnn8Lf3x8rV67EH3/8wX5OJpMhMTERQ4cOhbu7Ow4cOKBRSdy0aVPWw+TAgQNK7/v5+WHBggXsgp6ZmYmioiJYW1ujZcuWaNmyJfz9/TF79mwUFRUpfd7DwwPW1tbs/42NjZXmJQCUlJSobaNQKMTSpUvh6+sLAMjNzcWTJ09gbm6OOnXqIDg4GL169cKcOXPw6NEjpX708vJCVlYW5s6dC3d3dxQXF6N27dqYOXMmnj17hmXLluHdu3eQSCSoXbs2oqOj8c8//ygdyvr164eoqCgA5f2ckpICgUCAvn37ws/PT6VHLNfk5OTA1dUVIpEIvr6+ePnyJb788kulg6+FhQXrPVoRQ/qTQd/xKU+DBg2watUqVihOTU3FmzdvYG9vDy8vL3h5eaF3796YNWuWWi8cffn3338xf/58GBsbY+DAgRqNC3w+H8HBwbC1tcXjx49Vzvlx48ZhyJAhAIDi4mI8fPgQPB4P7u7u6N69O7p27YoNGzYo1IeQx9PTU8HTJSsrC4WFhWjTpg3atWuHlStX1njUkqenJxu6fu3aNYwfPx5v375VuCY+Ph4HDx5Ue4/c3NxK1+JZs2apPQhYWlriq6++grGxMRITExESEqJQjPLhw4c4d+4c9u3bhxYtWmDp0qW4fPmy3iHeuqDuUNy+fXtERUWhtLQUpaWlGhWkT548wcKFC5Vev3fvHn777TecOnUKdevWRURERKXGBSYa8+nTpyr7vG7dumRcqIC6Z2hnZ4dvvvkGRkZGePPmjcKepguGzKGwsDD2YPT5559j9+7dSp+Li4vDpk2b4OPjo7buGMOJEydUKgxjYmIwaNAgrF69GmKxGF999RWCg4M1HuiuX7+OjIwM9v/Z2dl4+vQprl69iqysLERHR6NLly6ws7NTG4mrSbm7ceNGNnxdU98zexcAbN26FWvWrFFaN6u7WO+UKVMwadIkSKVSREVFqdwDjI2NsWHDBlhaWiIjIwMhISEKe+/Nmzdx6tQpBAUFYdWqVfD29sasWbMUnAd27dqldF8vLy+0bNkSGRkZla67VSHjx8fHq1TKHT9+nI1EcXJywhdffIG+ffsiNTVVYxurEnXjLzIyEp06dTJo3svDxbw7c+aMgmIUAF68eIF//vkHf/75J37++WdYWlpi+PDh2Lhxo8J1Li4u7L/79euH1NRUfPnllzh58iQrhwsEAgwaNAhz586FjY0N1q1bh9u3bytFHQDlETleXl7s+K742y5cuICDBw9iz549sLa2xvr16xEQEMD+rn///VcpZZFYLGaNCxcuXFArQzIYum8asrZycf6sTqKjo5Vee/z4MS5duoSvv/4a/fv3x+jRo/HNN9+oPNNpYuHChahbty4kEgmmTp2qcq2rTFFuqBxlamqKL774AiKRCGlpaRg5ciQeP36scM3NmzeVvMENXT+52p+ZqCKZTMZmU7h48aLafrG2tmajdpjPqKs7x7UMoYmqlqUYDD1TyGPo2lwdejJnZ2fs378fTk5OuHXrFkJDQ1VGQXIhC3H5DA2RBS5evIhRo0bBwsICPj4+aiPanZyc2P3t2rVrCu/9F9Z4fuWXEKpglEzyhxRdkclkbDiLvAUYgMIEePLkCRu6VFH5eu3aNYwYMYJNDTR79uz/+XzxM2fOhFAoxNu3bxEeHq7S+FNWVoYFCxaw6ZkWLFigFIqlL4WFhYiMjEReXp7a0E594fP5mDdvHoDyFBEVDQsMOTk5CA8Px7t372BmZobp06dz1oaKBAcHo0mTJsjNzcXMmTMxcOBAjB49GkOHDkVQUBBOnz4NIyMjREdHswXKGU6cOAGJRAIjIyP07dtX4/cwXksZGRlKG41IJMLMmTMhEAhw5swZBAUFYejQoRg9ejQCAgIQHR2NnJwcNG3aVG3I2OTJk9lwQgBIT0/HyJEjlf7UpVcAgOnTp8PX1xcSiQQbNmxAYGAgIiMjMXr0aISFheHZs2eoXbs2li5dqiRwMptpw4YNYW9vj+HDh2PIkCF48+YNRCIRa6gaPHgwIiIiIJPJYGRkhI8++kjhPvb29pg8eTKAcgv8iBEjMHLkSAwfPhzDhg1DYmIiJk6cqLGvuUAmk+HJkycAyg03o0aNgoeHB54/f46vvvoKU6ZMQWRkJObOnavSWAQY1p8MhoxPoNzbbcWKFbC1tUVGRgYiIyMxYsQIREZGYsiQIZg7dy4KCwvh4uKCRYsWKXkUGUpeXh6bB/yjjz6CjY2N2mvbtWvH7k2qBM9+/fqxhoWffvoJgYGBmDhxIiIiIhAUFIRLly6Bz+cjKipKZXowHo+H2bNnQyQSIT8/HzNmzEBwcDBCQ0MREBCA48ePY9q0aTAyqlm/hRkzZsDY2BjZ2dmYNGmSklK0Ohg9ejScnZ0hlUoxZcoUBcMCQ2FhIesZ7uzsjHbt2lV3M1ns7e2xceNG8Pl8LF26VK1iVRvevn3Lhh23adMGQqFQ4/XMePnQU73VNAKBABs3boS9vT1+/vlnXLhwQe976TuHzM3NWWXb6dOnlQ5GDGfPnmW9viqmmNSFEydOsPlqW7Zsya5v+iDvQcYoTnRh6tSp6NChA54/f44vv/xS7XUCgQCzZs0CUJ42ZdWqVTVukJ08eTKmTZsGqVSKGTNmqPX+Dg4OZp0uZs+erdaof/ToUXYNGDlyJNzc3Dhra3XL+Hfv3sWECRMglUpRu3ZtVgZ/n/j4448RGRmJ4uJidmxVJVzMu4cPH7KR/x07dlR6X17WOXfuHLp27YqjR48qOPhIpVIcO3YMoaGhKC0thYmJiUqltKenJ9vGbdu2qR3fd+/eZZ9v06ZNERAQoPPv0pfK9s3qXlvfZ3744QcA5XnOdXU8aNy4MQYNGgSgvFakOkcafdBFjho2bBibVm7atGlKhoWqgMsxxBgGzp07h8zMTDRp0gQ9e/ZU+93jx4+HSCTChQsX8Pr1awBgMwVUVRv1hUtZqrrRZm2u6j2UMSy4uLjg1q1bGDVqlMoUjFUpC1XFM6xMFrhy5Qry8vIAgDWYqKJt27YAgIKCAty5c4d9/X0Y+1xAxgU9EAgEMDc3BwC98rzJw2w8ZmZmCq/LCxWLFi3SWPAqNzeXzYfm4ODAevlWB/JCnomJSbV9rzpEIhGbEmTfvn0aN/aysjK231xcXNCyZUvO2pGdnc1aEnv06MFZ37Rr147djDdu3KgxLDMtLQ2HDh0CUJ5Xz9TUlJM2VISJJjh58iRu3bql8B6T0icuLg5XrlxRCIcEysc/ozjt37+/2o3LzMyMLQD1888/K1nhmzdvDjMzM0gkEnzzzTfs4g6UK7lv3ryJzZs349q1a2pT16SlpSE5OZm1rEskEiQnJyv9qRtTHh4e7NiLiYnB6dOnFZ5PUlISFixYAIlEAnt7e7YoqHw7gfID1U8//YSCggLk5+eznupubm7Yu3cvZDIZnj59yqaucXV1VbhP//79YWJiAplMhmXLlil40qenp2PhwoWcGdIqg/GcZ4T5S5cuYcKECTh16hTu3r2Le/fuIS4uTqVXgqH9yWDI+ASAgIAANrLi888/V6oXExcXx+aXbdiwoc6Fu7SB8VwSCAQac9MzBrrCwkKlcE0jIyOEhYUBKPfA+/rrrxXmQn5+PlatWoUXL16Az+cjNDRU6f4tW7ZE/fr1AQCbN29WyAv97t07fP/990hISKiytUYb5NeKffv21VhReyYk/tKlSxrz8iYkJLBzuWvXrtXStor7Bo/Hw5dffgk7OzucPn0aMTExBn8Hk3NcIBCojUxiYIwLVZFW7L+Kqr1/0qRJaN++PV68eMFGHeiDIXOoa9eurHy8ZcsWjdeePHkSANCiRQuDvAJ3797NhssPHjxY7/swyhIm2k8X2rVrh0mTJqGkpASTJ0/WaIxp3749qzhVld6xupk8eTKioqIglUoxffp09rmoglnX/vnnn0pTwn799deQSqXg8Xjo378/J22tKRk/ISGBTS/au3dvlY4I1UXFuW9jY4Mvv/wSfD4fy5cvV1sXgmu4mHfMPlEx3zzwf+fg0tJSTJs2TWNuffnn06VLF6UzFyMflpaW4rvvvtPYpnPnzuH+/fsAyiPFqxNN+2ZNrK3vK/fv32fPgarGjibk02sZ4sVrqBzFtCMuLg5xcXF6t0MXuBxDdnZ2AMojkZh0P5GRkSrPl9bW1ggJCYFMJsP69evZdVvVmau6x3lVylI1haa1uar3UMaw4Obmhps3b2LUqFFq5SGuZKHqfIaaZAGJRMKevfv06aP2HoxxIT4+XkGf9V9Z48m4YCCGRgkwh+qKljr54nnaeIxduHCBvUeHDh3UXmdiYgIfHx8EBARg3LhxiIqKwrhx49CpUyelgn3aIG9cYZRONclHH33E/g5t8qLGxsayBhI/Pz9O28LkwjczM2NzqxkK491TWFiolKdNUxvMzc2rzOjEHAAsLS1Vvi+VSjF37lysXLlSKR8pALYmhaOjI7vgVqR79+4wNTWFRCJRWTCIeeYCgUCtB/uFCxcwf/58vQtbVgaj9C0pKWGNOhVJS0tji3JpUiTKh14zG39BQYFCvkEmaqqiYZIpBH/v3j2VaXGKioqqLbc7U0zK2dkZWVlZWLt2rdZpX7jqT0PHJ3Pfe/fusQfOivz222+sUYpRynHJ7du32WJsvXv3VnmNra0tG8Vy4cIFJUVtmzZtYGVlBQAKBQblkUgk+Omnn9jrLSwslO7BXKdOsaRPQV0uadOmDWvcuHjxYo20wdramvVI06beAOP9y6V3ryYqCuKhoaHo0KEDUlJSOPPKlS+6pm7uVXy/stoplcHIN4MGDcKYMWMQFRWF8PBw9OrVq9qFbx6PBw8PD/Tt2xehoaGYPn06IiIi0LdvX/ZQbggVn2HTpk0RGRnJ5srXVJS6MgyZQ4yc8ebNm0qL2jL5zPl8vkIKFF0pKyvDL7/8AqC8mHLFdUsbWrRowR5Af/rpJ42FECv2vbm5OdatWwc+n4+1a9cqGaArwtRsKywsVKi1VhNMmTIFUVFRkEgkiIyM1Lh+i0QiVpbVRr5mcu0D3MnXNSnjM+l9BAIBuxeqwsLCAu3bt0dwcDAiIiIwbdo0hISEwNfXl/PIRqA8B7udnR0uXLjAiWFYW7iYd8w+oWqPYNag0tJSrYr2Mik7hEKh0nmHOTvFxcVplcqYGVvt27ev1khMTftmTayt7ytSqZTVjVQmX1SEWX/j4uIM2icNkaNEIhGrqK1OOZXLMcQYBrKysnDgwAFkZWXB29ubVVzLExYWBpFIhPPnz+PRo0fs+VWVcaG6x3lVylI1haa1uSr3UFdXVxw4cABubm6Ii4vDyJEjNeowuZKFqvsZapIFmKg4V1dXNGvWTOXnmd/N6C8Y/itrPNVc0AOpVIri4mKYmpoafEhkPl9x8skbG5h8xJp4+/YtXr16BTc3N41W/KCgIAQFBal8j7Hif/3111orANPS0pCSkgJnZ2eMHDkS586d05jvVhuCg4PVKpkBzYKEfCg7k5JFE4WFhUhNTUXdunX1CoMHykPhVXnqykef6OpZoQ4mfdbLly815v5nkFeWqsttaCiJiYlwc3ND//798fbtW5w5c0anvPMPHz7EvXv34O3tjQEDBijlnwP+z8Pjjz/+UKmASkxMZHM4rlmzBjt37sT169erJX85Q6NGjQCUe9RrOgjduXMHfn5+qF+/PoyNjVWmApFPocI854pRUszr8usDj8djlZqaQmwfPHhQya/hBvkxevToUa0OiAxc9ach41MkErEK39u3b6u9TiKR4NGjR2jRogU8PT21ureunD59GhEREXBzc4O3t7eSAqtXr16ssVtVyH/jxo3Zf8sXKawII9AwylH5aA9mbL169UptjltNXvrVgXyKQU2/syqRjyby9/evNN0RUw9EU8qrqqJBgwaIjo6GTCZDdHS0TjWkvLy88Nlnn8HX1xcuLi6wtLREYWEhMjMzFTy/K4uUYuQgQ9JMAprlG6lUilOnTmHFihUaI07V1eRh0HZ+169fH+fPn1fbljNnzmDZsmUGpZ9iMDU1xYYNG9gwcE1rlTYYMoeYIqwCgaBSD2F5hxZVSgZdYNYdZg+UDzWXZ9WqVQr7Uu3ateHm5sYezk6dOqWzgW3x4sVwcXHBtWvXVObqrQjTv0+fPq3RdEhRUVEYPHgwioqKMHHixEojERwcHNi5rG0KjydPnqB169Z6y9cVqQkZn0F+b9PkTKWqoCJDamoqVq9erTYtj64EBQWhV69eyM7OrpF0TdrMu86dO6N3797w8fGBg4MDhEIhcnNzkZaWpjH6mnlPmzMwAAWZqGKqYebZ6zJugfJ1zM7OjtNaWvrumzW1tuqKnZ2dxjkA/F/dSk3Y2tpi8ODBaNu2LTw8PFC7dm1IJBJkZ2fj8ePH7Llb10hsXceCNugqRzk6OrLtrk45lcsxxLzG1DfcuXMnZs6cifDwcNaxESh3gGPSETPe6ZqMCzU5zrmWpWoSdWtzVe2hderUwcGDB+Hs7Iw//vgDERERldZCqQpZqDqeoSZZ4PLly6xe1N/fX2lPdHd3Z+VN+XkCfDhrfGWQcUFPkpKS4OnpaZCwamRkxA4IxiuVQb7oibbht9nZ2XBzc9OooJBKpXj8+DEePXrEpo5xdXVF+/btIRKJMHnyZHh5eSE8PFzr37Fnzx7MmTMHH330EU6ePIldu3bhyZMnyM/Ph0gkgouLi1JeeE18/PHH+Pjjj7W+Xh5GSVFWVqbgAaKJrKws1K1bt9LUDeoICwur1GOHq4nP/D5NXnXyyCtR9P19lbFz5060aNECtra2GD58OIYPH46XL1/ixo0b7F9lSuWjR49i0aJFaNu2LcRisYIg37BhQzRo0AAA2FC0iiQnJ+PQoUMYMmQIPDw8sGLFChQVFeHff//FzZs3ERcXpzTHuIZJV+Xo6KhUmE4eZj4LBALY2tqqPLTIGxuZA1ZFpTnzurxgLRQKWYFbk9JK23RuPXr0YBXKFZFIJJUqUuQPjtevX9fqOxm46k9DxqednR3bv5UdLhmDUFVt8ufPn8fYsWNhbGyM3r17KxykeTweG9Egn2ZHHmb+y2QyrFy5Uu33yHvpVcyHyuwtmsZPdnY2a+irCZj+l0qlKouHVQfy0US6RIxVjEKqKph5yefzsW7dOtSqVQu7du3SKhqO+dzixYsxYsQIhedcVlYGU1NT2NjYsHnZK4PH47HjSlVdCl2QSCRISEjAy5cvkZ+fD4lEAicnJ7Ru3RrW1tYYNGgQfH19ERAQoDbVD5f5S1+9eoW7d+8iJycHRUVFEIvFaN26NWxtbTFgwAA2ykKfiA35tTUqKgoeHh5ISEhgU7QZgiFziIkctLS0VBtlpelz+iK/32mSxzRFDBYVFSE3Nxfm5uYaD8Xyfd+5c2cEBgaioKCAVS5VBtO/8ukbawImXUJOTo5W8rK8M5W2qbIYWZWLaB35+1SnjM+g7Rh79+4d7t+/jxcvXiA/Px9CoRANGjSAr68vnJyc2DzQ+qZkYcaYo6MjWxx4/vz5Bqfp1QdNfWJtbY0tW7Yo5cSXSqVwdHSs1OGJWXuMjY0hEokqXYvkx2TFczAzbnQdt0C57MSFccHQfbOm1lZdsbS0xLBhwwy6R1BQEJYuXaqUUUEqlcLS0lLtuUQbuFp/DZGj5M8J1bkPcDmGKp4H9u7di/DwcPj6+qJNmzZsSt9hw4bB0tISsbGxrPMSs3ar0ldV9zivSlmqJlG3NlfVHipfNycpKUkrYwHXcxGonmeoad8rKyvDkSNHMHXqVAQEBGDNmjUKjq5MPyUmJrL1chk+lDW+Msi4oCf379+Hp6cna2DQR/Do0KEDq8ipmG5D3oNP23B+bVI0HTp0CAsWLFB63dbWFgsXLoS/vz969uyJvn37smE/lbF9+3Y0btwYAwcOROPGjdlCMvpy9OhRjeFAdnZ2bMHaijDCJ5/Ph4mJiVae0syk1Lfo56pVq1TWVDAxMWE9ibgqKMqEdlVWIJNBfsGpqtC+1NRUjB8/HiEhIejSpQtq166NOnXqoE6dOhg0aBDevXuHs2fPYufOnWoPB7GxsUhPT4eDgwP69++Pbdu2se8xuXofPXqkMd3A1q1b8eDBAwQFBaFJkyaoVasW2rZti7Zt2yIiIgKPHj3Ctm3bcOPGDW474P/DCMEWFhZo2rSpVp9Rp0zU14IvL4hrimzRtnBqx44d1Rr6SktLtfLSZGAKeGkLV/1pyPiUn2eVrSXM+/qkl9MGprBzt27d0KVLF2zatIn9Th8fH9YTQl2+bKZdPB5P7/5kDFeVRU0xhRVrAkYpKBAIYGJiolWEF9fIr/dr165Vm06rIrpEDXBBaGgoWrRogWfPnmHtC+QOfAAAIABJREFU2rVaf27q1KmsJ9qvv/6KvXv3IjExERkZGZBKpbC3t0efPn2wZMmSSu/VsGFDVg4y1JPw8OHDKuUbU1NThISEYM6cOXBzc8P06dPZQtoVWbdunca9snXr1lrlj3/69Cm6d++usi2hoaGYNWsW3NzcEBUVpbYt2tCsWTOEhYWhpKQEM2bMMDhyFDBsDjFj/9GjR1i1apXWn1MXaaAt8ulmNMlbYWFhCgdqMzMz2Nvbo0OHDujVqxdGjBiBHj16IDAwsNK6C2ZmZlixYgUAYNmyZSrTEKqC6V9t5biqYubMmZg5cybEYjEOHTqEJUuWsLXCVCG/P2rbduY6ruTPmpDxGeTPWJruNWfOHJWRCV5eXtiwYQO8vb0xa9YsnaN8K7J06VJYWFjgxIkTbEqg6kbTvNu8eTNat24NqVSK3bt34+eff0ZSUhKys7MhEAjg4uKCyZMnq402kzc2W1lZVWpc0HQGLiwshIWFhdbyWVWcnQzdN2tqbdWVzMzMSpV6QUFBauXQDh06YM2aNeDxeHj06BE2bdqE27dvIy0tDcXFxeyZYOvWrXop1YqLiyESiThTyOkjR8kbr6tTMcjVGDI3N2fnG6MYzs/PR0xMDCZMmIDw8HDEx8fDyMgIo0ePBvB/RbiB/zPyMalaq6KNulIVslRNom5trqo99NSpUygsLMTgwYMREhKCZs2aITw8XKPTENeyUHU9w8pkgcOHDyMyMhI2Njbo1q2bwv7MpERSVWD6Q1njK4OMC3py6dIl+Pv7g8fjoXv37nrlcZcvzPnHH38ovJecnAypVMoKYNqgq1e7PFlZWZgxYwZatGgBNzc3+Pv7a21cYIrA/fjjjxg0aBC8vb1hZWWF4uJiZGZmIjk5GYmJiZg+fbpW94uNjdUYMtygQQO1xgX5RczR0VErb3XGO1fflAwHDx5U+XqDBg1Y44Kh6R4YmN+nbYojec9jQ71CNZGTk4NvvvkGmzZtgre3N1q1aoWWLVuiSZMmEAqF+PTTT+Hr64spU6aoFNTLyspw4sQJjB8/Hn369MGuXbsgkUggFArRpUsXAGBzwWsiNjYWsbGxsLa2Rps2bdCyZUu0atUKtra28PLywtq1a7FhwwacPn2a8z4oKiqCpaUl4uPj8dVXX2n1GS5SYsgjbx3XlCdWW8XvnTt31BoitDVQAOXPV9cUVVz2p77jU/4AUFloPvO+LqmfdOXnn39Gt27dIBKJ0KlTJzbtClPIOScnR2kvYWB+S0FBAcaPH6/V91X0JmGeoaaxxePxtE5jUBXIr7UODg549epVtbdBfhy+fv1a7TOpSerUqYOoqCiUlZUhOjq60vBlBlNTU4wZMwZA+WFi6tSpStdkZGSoTG+nCiZlVG5urlYh2vpQXFyMbdu2wcvLC0FBQRgwYIBahf7Ro0c17tdSqdSg4rTFxcXYsmULvLy8EBAQoLEtmpDJZBAIBFizZg0EAgHWr1/PWXoFQ+YQM/Zr1apVreNeXibS9Pzu3r2r8v0ff/wRGzZswIkTJ+Do6IhZs2Zh2rRpKu/BeMnNmTMHTk5OuHz5Mg4fPqx1W5nvrxgZVt3Exsbi0qVL+O677/DRRx9h+fLlsLW1ZQs4VkRehtS27cxz4Ur+rAkZv+J99L3Xo0ePMHHiRFy8eBEmJibo06ePTg4aDDKZDP369UOPHj2QkZGBzz//XOd7cIW6edeqVSs2F/WiRYtw4MABhc9JpVIkJSUhISFBrXFBvsaYi4tLpcY++eiYiufg9PR0WFhY1NjZiYt9s6bWVl3Jy8tTW9eLoXXr1mqNCxEREeDxeEhKSkJAQIBS/bD8/HxcvXqVNRLoSkZGBieRTID+cpS8jFid+wBXY0g+PbW8U8zOnTsxevRodO7cGR4eHmjRogXEYjHu37+Pv/76i71OU62V6h7nVSlL1STq1uaq2kPz8/OxYMECxMfHY+XKlWjRogUOHz6M4cOHq3W84EoWqu5nWJkskJqaisuXL6Nz584YPHgwa1wwNTVF+/btAag2Lnwoa3xlUEFnPTl//jwbyj5hwgSdN7g6deogMDAQQLkCr6JHtlQqZS1RFUNKVSEWi9ncZfrmU5dKpYiLiwOgX2HJy5cvIyoqCr1790a7du3QqVMnBAYGYsqUKdi9e7debdIV+X7UVNiaoVGjRmxYnrbepdrCPDeZTMaZVZFpo5OTk1ZhofJe59WRZ7+srAwJCQnYvXs3pk2bhsDAQLZgc7169dgxr4rTp0+jqKgIVlZWbNhY165dIRQKkZeXp1MR4jdv3uD8+fNYs2YNBg8ejOjoaHZzCw8PrxKPQWZTEAqFSEtL0+qP65oQhYWFrOJDUzo1bVMUHDlyBMuWLVP5t3r1ak7arI6q6E9dx2fF0HhNGGLc1RZVhZ3Nzc3Z+fLLL7+o7QMmdFkoFCIrK0ur/qzoKcgYXjTVvbGxsamxlEiA4jqnqXZPVZKens6OA2327+pGJpNh8eLFEIlE2Lt3L27evKn1Z93c3Fh559ixYwa3hSkQd+vWLa1SyhjCn3/+CaB8bdQ23WRVwRy09W2LTCZDWFgYGjVqhLt372Lr1q2ctc2QOcTIKG5ublVW50kVPj4+AMr3fn2VgampqTh+/DgAxRD/ishkMjRv3hxDhw5FYWGhzrnumf51cXGp8UJ82dnZGDFiBFvIefr06Zg5c6bKa7Oysti+1SZ1KZ/PZ42HXMnXNSnjM2MM0F+eTkpKYo11TH5lXTEzM2PTIS1atEjr1BZVgbp5x9R4kslk+PHHH/W69507d1jPU232UfkUhBWfDzNuGMVOZTBj69WrV5xEnnOxb9bU2lrdMGPnzJkzSoYFLmDGhqHyoSFyVHp6Ouu9r0vaaEPhagzJnwHknZDS09Nx4sQJ8Hg8jBs3DuPGjQMAJflEUzHu6h7nVSlL1STq1uaq3kOPHz+OkJAQ5Ofnw83NDYcOHULdunVVXsuVLFTdz1AbWYAxqPv5+bE61Y4dO0IkEiEtLU1lLYj/yhpPxgU9KSwsxJYtWwCUTwp1wrgqBAIBli9fzoZnfvnllyqvY6xWHTp0qLS2w8CBA9l/X758Weu2VITxOK3OQrhc8vTpU3aiBwcHV6rkYnLOlpSUqC2+qC9DhgwBUJ4DnatiYL/88gsrbDNtVwefz2c9gv75558a8eDNy8vD999/z+ZebNiwodpr3759y1p3Gc9QppDz2bNn9U5vIpPJcPPmTVYZLl+kl0uYcefp6amywHd1IJFIWCFC02+sqqLDXFId/VnZ+MzPz2fnLlNgWhU8Ho/t00ePHlVJWxmYqJvmzZvD2toaHTt2hImJCWQymcaIL6Y/+Xw+vL299fpuxnOwTp06atfWmh5bDx8+ZA0wla2RVUVZWRlrDO3fv3+lNXmqm+7du6Nr16549eoV1q1bp9Nn5dNKGJrGydPTE506dQKAKokmq4h8xFZNyzjy0T36tEUsFmPq1KmQSqWYPXs2p+Hfhsyh3377jf03IwNVNSKRCL169WK/35C+YAyqmhwQ+Hw+li1bBj6fjzVr1lTqUV0ReY+16uojTUgkEkybNo2Nvpg4cSIiIyOVrpPJZGxEc7du3Sp1UujRoweb1pWr+V2TMn5AQACAco96QwwVzNzXd5xOmzYNDg4OOHv2bI2lQwI0zztm/pSWlmrtzV2RgoICtlbXoEGDKn3W/v7+AMqjBeULbgJgx61YLEbnzp013kcsFrP7EmN0MxQu9s2aWFtrAqavqqoWAbMOuLq66l3fETBMjiorK2OLufbs2VPr9NeGwtUYkpdpK47nrVu3QiaTISgoCJ6enkhLS1OaR8xnzMzMFNL3cNlGbalKWaqm0LQ2V8ceGh8fj2HDhiE3NxfOzs44cOCAyugErmSh6n6G2sgCv//+O5KSksDn8zF27FgA5XMdKF+DVDlT/VfWeDIuGMC2bdvwzz//ACjPuTd//vxKJ6lQKMT333/PekUdO3YMly5dUnntoUOH2NRIjJeKKlxdXdk0F9evX9c7tYBQKGS9Op4+farXPd4Hdu3aBQBo0aIFRo0apfa6Vq1aYcSIEQDKQ+K5zHcdGhrKWjb1LdqmiuzsbFaBGBYWhubNm6u9dvz48awSsaoiR9zd3TFlyhSVea7lYbwUKjMQHDt2DDKZDD4+Pvj444/RsGFDyGQytXnkGYKCgrB48WKNnijyz1dT6hpG0aOrQpAxBpqamrJGEVUMGzYMUVFROhV61QXGK8HHx0dlRJWRkRF7cHqf4aI/uRifjLG2ZcuWao287du3Z72PtTXuMnU1dPXyP3fuHEpLS8Hj8dCmTRt2L4mPj9doxIyPj2cjDzRFELVp0waLFy9Gnz59lNp29+5dAOWCq7znhjyq8szrQ6NGjdC6dWs0a9ZM58/GxMQAKPd2DAsL46Q9+rShrKwMFhYWWL58udIBqiYZOnQogPIioLoW7JVXpLZq1UrvNpiYmGDt2rXg8XhISUnhTImjCWZsvn79uspqEGlLt27dDGqLv78/RCIRtmzZorEWkb7oO4eSk5Nx8eJFAOVRvdrWd9FEZXMnOjoa1tbWkMlkGmsGaAPjyaepfkLTpk3RrFkz3LhxQ6+UqCkpKWwfjR07VmdZwMXFBa1bt0br1q05q21TVlaGefPmsbLWtGnTMGDAAKXr9u/fj9LSUpiZmeHzzz9Xm+fezs4O8+fPB1BeS4WJGuKCqpDxK6tZ17t3b1ZuYuaGPjRp0oSVI/Q9qw0dOhS5ublYvHix3u3QBkPmHbNPmJiYGLQGMPf19PRk6xWoolu3bqzR4MiRI0p1yy5evMgaTBctWqRWmSsQCLBs2TLUqlULxcXFOHTokN5tl4eLfbMq1tb3Eaavqirq8/z582wqk6VLl+pdbN4QOQooH9tlZWWwtLTE8uXLtaqbaShcjSFzc3MA5QbSiufpJ0+e4OLFi+z5Yc+ePUoOFMyZi8fjKZ1Tq3ucV7UsVRUYKhNVh57s7t27GDVqFAoKCiAWi7Ft2zYlpw1DZSEGLp8hV7KAVCplIygCAwPh4ODAGhdOnDih8jP/lTX+/TntfoBIpVJMmDABz549AwCMGTMGBw8eRKdOnZQGp1AohL+/P3766Sf2gHv16lVW+FZFWloaq5ju06cPvvrqKyXlVufOnRETEwNra2tIJBIsW7ZMr9/i7e2Nbdu2sZZFJlXIh8jhw4cRGxsLoFyInDVrlkLRIBMTEwwbNgy7d++GQCBAWloaVq5cqdN3jB07Fl5eXkqvOzo6Yv78+awx6OrVq1rVCtCFpUuXIiMjA8bGxoiJiUFwcLBCDnQbGxssWLAAs2bNAlBuPeW6DQwSiQT+/v7o0qULBg0apPIab29vNjSeSbuljuTkZPz999/g8XiIjo4GUN6HlUV+NGrUCH5+fggPD1dZIMrIyIg9mLx+/RovXrxQey/G89/CwkJJqc3j8SAWi2Fra6v0uYSEBNbLauzYsexvlv+sv78/Ro0ahX79+lUajaQvjOVbKBSyuUsZBAIBIiMjq6zoMJdw0Z9cjM9jx46hsLAQRkZGmD9/vpLRyc3Njc2f+/jxY1y5ckWr38ccRlxcXODh4aG1kSE/P581YHTs2JEVxiozwBUXF7P1YT7++GOMGjVK6Tt9fHwwe/Zs+Pn5oWXLlkqeFX/99Rd7kIiIiGAPGAw9e/ZEhw4dOKk7sXDhQhw+fFiv8NYdO3awAuaCBQuwatUqeHh4KFwjEAjQrl07gxTkmvj3339ZoX7AgAHYtWsXWrZsqXQoMDc3R//+/VXuJxURCAQa/xj4fD4EAoHaMcXn83Hy5El2n9SFrKwsdl5GRkaif//+Oh+KPT09ERMTAx8fHza1QFXWKhGLxViyZAkr2HORzklfHBwcsGTJElYO1LctfD4fSUlJavPjG4ohc2jx4sUoLCxErVq1cODAAYSFhSntyzweDw0bNkRwcHClbfn8888RHh6upAQSi8VYu3Ytezg+ePAg6/CjK87Ozli7di3roKBpPeXz+ZBIJJg3b57eqbwWLVqEwsJCmJqaYt++fYiIiGBTDzCIRCL0799faW/79NNPcfjwYRw+fJjTtEplZWWYOXMmrl27Bh6Ph7Vr1yoZkR8/foyNGzcCKD+XbNmyBe7u7grX+Pn54ciRI3B1dYVUKsWsWbM49SSsChn/s88+w4oVK5Qi78zMzDB+/Hi27lNiYqJeDkM8Hg9dunTB999/D0AxUldXmIgZrmt2VcSQeXf58mVWxlm/fr3eSqMzZ87g1q1bAMqfdXh4uIIy0tjYGCEhIew6mJqais2bNyvdp6SkBDNnzkRZWRnq1auHQ4cOKaUE8fT0xPbt21nD7/r16zWeFXSBi30T4H5tfR/55ZdfAJSnxZ0yZQrnkZ8FBQWsYa5+/fo4fvw4AgIClCKkHRwcMGzYMLX3MUSOAsplRMY43adPH8TExKBDhw5Kcpunpyf69Omj13eogosxZGZmBgBqjSrff/89rly5gj///FOp3gqgWM9OVZRgdY7zqpalqgJDZaLq0JMB5al8J02aBKlUiqZNm2LDhg1K1xgiCzFw+Qy5lAWOHj2KzMxMCIVCbNq0CZaWlnjx4oVGOfW/sMZTQWcDycjIQFBQENavX4/OnTujTZs22LlzJ4qLi/HixQsUFBTA0tIS9erVYwUJmUyGAwcOYOnSpZV6cq9btw4NGzaEn58f/P390a9fP7x69Qr5+flwdXVlB5xUKsWMGTMqze0/ZMgQ+Pn5ITMzEwUFBTAyMoKTk5NCCpUdO3Zw6mVUE0yZMgXfffcd2rdvj/DwcIwZMwYvX75EaWkp6tSpwwqnL1++xNixY3Wyxjo6OmLevHmYN28ecnJykJKSgtLSUtja2sLV1ZW97q+//kJERATnvy0nJwcjR47E9u3b4ezsjNWrV2PRokV48eIFhEIhXF1dWWNDbGys1oW09SEpKQlHjhxBcHAwKzAnJiaisLAQIpEIrq6ubPREfHy8VoepY8eOoV27dqxAqc7CK8+2bdvg6+sLNzc37N27F7dv32aNBNbW1vDx8YGlpSVKSkrwxRdfaFQIXLx4ESEhITAxMUFUVBTCwsKQk5MDkUiE2rVrw9TUFF999ZXKFDRr1qzB+vXr4ebmhhUrVuDBgwd4+vQpRCIRmjRpwubtv3DhAs6ePVvp79KHq1ev4ubNm/D19UXfvn3RpEkT/PvvvzAyMoKvry8cHR2xatUqNk90dXjL6Iuh/cnF+MzMzGTnmLe3N/bu3Yu4uDjk5eXB2dkZrVq1gpGREbKysrBixQqtlSj37t3DwIEDYWpqyqbYYwpfSyQSDBw4UMn7joEp7MwcjtPT0/H3339X+p0HDx6Ep6cn/Pz8MHLkSPTs2RO3b98Gj8dD/fr1WeVhYmIiqwSR582bN9i/fz9Gjx4NDw8P7N69G3///TeKiorg5eWFxo0bY/v27ayxhwtvfX3yHUulUowZMwZbt25F06ZNMXjwYAwePBh5eXl4/fo1eDweXF1dUatWLRw/fhw3btwwuJ2qWLp0KUxMTBAcHIxPPvkEn3zyCZtqSyqVwtLSEk5OTqwiT1NKLXd3d60LlK1YsQIrVqzAkiVLVBZWfPv2LVasWGHQ74qJiYGFhQW+/vpr5OTk4MWLF8jJyYGpqSnMzc3V5hNft24dGzlTVlaGlStXKoQCGwIj32RlZbHRAI6Ojgry140bN7Bp0yZOvk8T7u7uiIuLQ1paGvLz81FWVgYHBwfUr1+f3Z8NbcuSJUuqzChjyBx69eoVQkJC8MMPP8DW1hYLFizA/PnzkZycjLy8PJiamkIsFsPMzAyFhYU4duyYxnXT0tISs2bNQnR0NJKSkpCTkwMrKyu4ubmxiphz585h6dKllf6us2fPIiUlBfn5+ZBIJLCxsYGdnZ1CftvY2FiVCkp5tm/fblDBwOTkZISGhmLz5s2wsbFBdHQ0Zs6ciaysLPYw6urqCoFAgFmzZql1+OEiH7w8EokEEydOxMmTJ+Hq6opvvvkG/fr1U5CRN2/eDCsrK4wdOxZdu3ZFly5dkJKSgjdv3sDFxYX1Ci8qKkJUVJTeBh9NcC3j8/l8DB06FEOHDsXr16+Rnp6OWrVqoW7dumx0yJMnTxAWFlZpGrN169ZhypQpyM3Nxdu3b2Fubo66deuyTikSiQSzZ89mc67ryq1btzjzqNeEIfMuPz8fy5Ytw8qVK+Hp6YmjR48iNTUVr169wrt37yAUClG7du1KU5RKpVJMnToVMTExqFOnDmbNmoXIyEi22HOdOnVY5WR2djZCQ0PVKjyvX7+OadOmYd26dfDw8MC+ffuQnZ2NlJQU2NraQiwWs79r8+bN2L59u959pwpD9k0GrtfW95Ht27ejR48eaNiwIaZNm4bw8HA8ffoUmZmZMDY2hlAohFgsNiiV0C+//ILFixdj0aJFcHV1xfr167FmzRqkp6cjNzcX1tbWrCIzNjZWobg4g6FyFFAuq5mZmSEwMBAfffQR9u3bh3fv3uH169coLi6Go6MjrKyskJKSwtmZkYsxxKyv6qIub9y4wXq8q0K+loYq40J1j/OqlKWqAi5koqrUk8lz+fJlrFq1CgsWLECvXr0wevRo7Ny5k32fK1mIq2fIpSxQXFyMzZs3Y8GCBawTDpN+Uh3/hTWejAsc8ObNG4SFhaF79+4YO3Ys2rRpA1NTUyVPRIlEgkuXLmHz5s1aF/6RSCQYM2YMxo8fj5EjR8LR0VGhMIpMJsPff/+NFStWsCkrVHHjxg04OjrCxsYGrq6uCkpwhnv37uH777+vltzHVU1ubi5GjRqFiIgIhIaGwtraWsG7qri4GCdPnsSaNWt0LsBqamqKP//8E23btoWVlZWSRTElJQV79uzBjh07qiyv88OHDzFw4EDMnj2bDQdjimAB5WNyx44d2Lx5c5UvOlu2bEFycjKCgoJQv3591K9fX+H9jIwMnDhxAkePHlWrLJXn5s2beP78OerVq4eXL19qNVfS0tIwceJEjBs3Du3bt1fycpdKpbh27Rp27NhRaSh6amoq5s2bh8jISNStW1fhGZeUlOD+/ftq61dkZ2cjMjISISEh6NWrFxo1aqSQqz8xMRE//vhjlefJXbJkCaZPn47OnTujbt267JqRlZWFhQsXIiEhgb2Wq7QKVQEX/cnF+Pzrr78wZcoUjB07Fi1btmQ924ByBcqFCxewc+dOtmiyNvz666/g8XgICAhAnTp1IBAIWI9zY2NjjZEMTGFn5mB++vRpreZWWVkZli5dCn9/fwQHB0MsFit4gmRkZODs2bM4ePCgWiFt37594PF4GDp0KKysrNi8nkVFRdi1axf279+Prl27AjBsbDGeUfoWyH79+jUGDx6MiRMnYujQobCxsYGlpaVCAbmcnBykpqbq3cbKkEgkmDNnDq5du4bx48ejUaNGsLCwUPLEe/DgAWcektrw1VdfsWkB9CEhIQFBQUGYNWsWOnfurHIfBMoPnvfv30dOTg77GrMf3bp1C+vXr9c60kcT2sg3KSkp2LdvH3bs2KF3/R5tePDgAV6+fAlXV1fY2dmpTLmQlpaGvXv3Yvv27Xq35cKFC2pTanKFIXPo1q1bGDBgAKZPn46+ffvCzMxM6bkUFBTg999/h6mpqca0Ej/88AO8vLzg5+ensJ8B5evDtm3b8MMPP6hdA1NSUnD79m00btwYNjY2Sl5xQPm4vH37Ng4ePIijR49qdEBIS0vjxEPu+vXrGDhwIGbMmIHevXujVq1aSmMmKSlJSYHDrI1lZWUKc4srcnJyEBUVhYMHD8LV1RULFizA7Nmz2fcZo+C///6L6dOnw93dXaEgo0wmw5UrV7Bq1aoqSzPBtYx//vx5ZGZmIiAgAI6OjgrGpuLiYpw4cQJr1qxR298lJSWIi4tD06ZNIRKJ0KBBA6VrpFIpYmNjsWHDBgUZTBfKysqwePFivSNmdMHQeXfo0CG8fv0aUVFRaNq0KZycnODk5KR0XWZmpkYD/6tXr+Dv7485c+ZgwIABEIlECufroqIinD17FitXrqxUBvv555/x/PlzzJ07F+3atVNaDx4/fowNGzaw3vNcYsi+KQ+Xa+v7SG5uLoYOHYqpU6fis88+g0gkUlknTCKRIDExUe/0Ynv37sX9+/cxffp0tG3bFkZGRnB2doazszOA8nXs9u3baiO9DZWjgPKaJNHR0fj7778xYcIENGjQAEKhEPXq1WOvKSkpwYMHD2BiYsKZ7GLoGGIUz/oW3Ja/n6r0vVy0UVuqQ5biGkPXZqBq9WQV2blzJzp16oSOHTti1qxZuHjxIp4/f86+r68sxMDlMzRUFqjIvn37MHbsWIjFYkgkEhw5cqTSz3zoazyvfv36VS+h/I9hZ2eHFi1asF5dBQUFePHiBW7dumVQXn+BQIDGjRvDyckJZmZmyMrKwqNHj/D69Wut72FlZYU6derA1tYWIpEIPB4Pubm5ePz4MWdFh983jIyM0KxZM1aB9/r1a/z7778G51wWCoXw9PSEWCyGqakp3r59i+fPn+P58+fVIvgzmJubw8fHB46OjpBIJEhKSsKdO3f0NipUVL7qgo2NDcRiMYRCIUpLS5Genq7zuDIyMsKBAwdgY2ODTZs24fjx4zp/3tXVFbVr14ZAIMDbt2/x4sULvSzatra2sLW1RWlpKfLz8/HmzRut+5XP58PNzQ1WVlasJ0pVKAI0YWtrC09PT5iYmCAzMxMPHjzQSgn9PsJFf3IxPi0sLODi4gKhUIi8vDy8ePGixovD6otYLIa9vT3KysqQmZmJ9PR0rdcuoVCIxo0bw9LSEjk5OXj06BEnAg6TZvD69euwsbHBnj17sGTJEoPuKRAI4OHhATc3N3ZPfvnyJZ48eVKt88HR0REeHh6wsrJiFYMPHjzQ24NVHZcuXYKbm5vayAUuMTMzQ5MmTWBjYwMjIyMUFRXhzZs3SE5OxuupQnS1AAAbhUlEQVTXr5XGk7OzM4qLi3UyxGmLpaUl3NzcWPmGWf+fPXuGpKSkat2XhUIh6tSpAwcHB5iZmcHExITdi549e1atbeECQ+aQsbExGjZsCGdnZ/Yg9OrVKzx+/Fjtfmppacl6vE+dOhWnTp2ClZUVfHx8YGNjA4lEgpcvX+ok6/D5fLi4uMDe3h7m5ubg8/nIy8tjDST6Kkq4QCgUolGjRnB0dISRkRFyc3Px5MkTlcWiv/32W/Tt2xePHj1C7969a6C1inh6esLT0xNCoRBv3rxBQkICGzlaHRgi458+fRqNGzfG/v37sWDBApiamsLHxwdisZhNB3H79m2tzws8Hg8ODg6sDCoSiSCVSpGRkYGHDx9yWtutKqiKeQeUp5jx9PSEtbU1ysrK8O7dO2RkZCA5OVmn/Y9xpGIiIzMyMnDnzh29znNisRhNmzaFlZUVCgoKkJiYiMePH+t8H33Qdd9Uhz5r64eEQCCAt7c3HB0dIRQKUVJSgry8PDYKhivZ29raGo0aNYKNjQ3KyspY/Up1n9lcXV3h4eEBCwsLFBcXIzU1FYmJiXoXRdeGD2EMfQhtrGqqam0Gqk5Ppg+6yEJcwrUsIM/WrVvRrVs3nDp1ik2jrC0f4tgn4wJBEAoYYlzggn79+iEqKgqFhYUYMmRIjRfeJAii+nj27BlsbW0RHx8PAJg8eTLOnDlTw636sKhO4wJBVAWqDtJEOefPn2fTuixatKimm/NBU1Gh8L8OzTuCIIj3D1qbq5aqkgUaNGiAc+fOgc/nY8CAARqzzPxXoILOBEG8Nzg6OiIsLAwAcPz4cTIsEMT/IEwtiYKCAly8eLGGW0MQBPF+4ODgwNbG0VR0miAIgiAIgqgZTE1NsWbNGvD5fPzyyy//E4YFgGouEARRw9jb28PExASNGzfG2LFjYWVlhdTUVOzfv7+mm0YQRA0wcOBAAOUGxppMVUIQBPE+4e/vDwB49OgRrl+/XsOtIQiCIAiC+N/G2dkZdnZ2ePz4Mfh8Pnx8fBAVFYWWLVsiJydHY3Ht/xpkXCAIokaZNm2aQgHmN2/eYOHChXrVSCAI4sOGx+MhPT0dmZmZ+Pbbb2u6OR8kp0+fhq2tLRITE2u6KQRBcEhRURHS0tKwbt26mm4KQRAEQRDE/zwDBw5EdHS00utv3rxBWFjYf7aurSrIuEAQRI3y8OFDWFtbo7S0FAkJCTh69CjnBU4JgvgwkMlkmDdvHhYuXPjeFqt63yHFI/GhU1ZWxsoBJSUlNdya94d9+/bhwIEDtDZyRG5uLt68eYPCwsKabsp7Ac07giCI9w9am6sWQ2WBd+/eISkpCc7OzigpKUFycjJ+//13bN26FdnZ2Ry39v2GCjoTBKGAq6srjI2Na7oZBEH8j1FaWopXr17VdDMIgiAIgiAIgiAIgtASKuhMEIQClOOcIIiagNYegiAIgiAIgiAIgviwIOMCQRAKFBQU1HQTCIL4H4TWHoIgCIIgCIIgCIL4sCDjAkEQChQVFSEvL6+mm0EQxP8QeXl5KCoqqulmEARBEARBEARBEAShA2RcIAhCiaysLEpRQhBEtfDu3TtkZWXVdDMIgiAIgiAIgiAIgtARMi4QBKGStLQ0imAgCKJKycvLQ1paWk03gyAIgiAIgiAIgiAIPTCq6QYQBPH+kpWVhYKCApiZmUEoFMLY2Limm0QQxAdOaWkp3r17h4KCAkqFRBAEQRAEQRAEQRAfMGRcIAhCI0VFRaQAJAiCIAiCIAiCIAiCIAhCAUqLRBAEQRAEQRAEQRAEQRAEQRCETpBxgSAIgiAIgiAIgiAIgiAIgiAInSDjAkEQBEEQBEEQBEEQBEEQBEEQOkHGBYIgCIIgCIIgCIIgCIIgCIIgdIKMCwRBEARBEARBEARBEARBEARB6AQZFwiCIAiCIAiCIAiCIAiCIAiC0AkyLhAEQRAEQRAEQRAEQRAEQRAEoRNkXCAIgiAIgiAIgiAIgiAIgiAIQifIuEAQBEEQBEEQBEEQBEEQBEEQhE6QcYEgCIIgCIIgCIIgCIIgCIIgCJ0g4wJBEARBEARBEARBEARBEARBEDpBxgWCIAiCIAiCIAiCIAiCIAiCIHSCjAsEQRAEQRAEQRAEQRAEQRAEQegEGRcIgiAIgiAIgiAIgiAIgiAIgtAJMi4QBEEQBEEQBEEQBEEQBEEQBKETZFwgCIIgCIIgCIIgCIIgCIIgCEInyLhAEARBEARBEARBEARBEARBEIROkHGBIAiCIAiCIAiCIAiCIAiCIAidIOMCQRAEQRAEQRAEQRAEQRAEQRA6YVTTDSCI/xrGxsZwcXGBg4MDzM3NYWZmBgAoKChASkoKnj9/jqKiIp3v6+7uDiMjIzx79gylpaVaf65WrVpwc3MDALx69QqFhYVqrxWLxfDz84O7uztsbGwgk8mQk5ODhw8fIj4+Hi9fvtS53QRBEMT/a+/Oo6qs8ziOf1gUuCoii8BBuegEQsZoaHlwcJtIzbKaM6JomHo0Q0/aKZMZDTUbN2ZxXNIcVI4YKqN4cgaX3EuncSvKNBzXcQcUEEvvIMJl/vD4jHRBuSw66vv119PzPL/lXuyf53Of7xcAAAAAgEcP4QJQhyZOnKihQ4fK2bnq/7VKS0v17bffatOmTfr0009VVFRUrbnT09Pl7e2tjRs3auzYsbJardUaFxYWprVr10qSBg0apL1799rc4+fnp8TERPXp0+eucx06dEgfffSRtm7dWq21AQAAAAAAADyaCBeAOuTn52cEC4WFhSooKFBxcbEcHR3l4eEhLy8vubq6qmPHjurYsaPeeecdLViwQIsXL652WNCnTx/l5ORo+vTpdbJnX19frVmzRgEBAZKkvLw87d27Vzk5OSovL5ePj4/atWun4OBghYeHKyIignABAAAAAAAAeMwRLgD14NSpU4qOjrY57+TkpKeeekrPPfecBg8erKZNm+o3v/mNunTpopEjR961ZNGdhg8frqNHjyojI6PWe01MTFRAQIBKS0s1ZcoUrVmzRqWlpTb3tW7dWvHx8UpPT6/1mgAAAAAAAAAebjR0Bu6jsrIyHTx4ULNnz1ZUVJQ2bdokSercubMWL14sJyenas0hSdOmTVN4eHit9tO0aVP17t1bkpSamqpVq1ZVGixItwKThIQEnTlzplZrAgAAAAAAAHj4ES4AD8j169f11ltvGW8fREZGavTo0fccl5GRoezsbDVs2FALFy6Uh4dHjfdgNpuNQOOLL76o8TwAAAAAAAAAHi+URaoBV1dX9ejRQ7/4xS8UGhoqHx8fubm56fr167p8+bKysrKUmZmp77//vso5zGazXnvtNf385z9XQECAGjdurNLSUl26dEnfffed0tPTdfDgwSrH9+7dW5GRkXbt+29/+5uysrJszrdq1UqRkZEKDQ1V69at1bRpUzVp0kSSlJ+fr8OHD2vDhg06cOBAtdfy8vJSXFycunTpIrPZLEdHR+Xm5mrfvn1atWqVjh8/Xu25nnrqKQ0YMEAdOnSQr6+vSktLVVBQoNzcXO3fv1+rVq3S1atXjfvj4+Pl7++vAwcOaP369dVe57Zhw4YpKChI33zzjdatW2f3eHuUl5dr0qRJat++vZ544gm9+eabWrlypQoKCqocY7FYNHLkSGVmZiogIECzZ8/W8OHDVV5ebvf6jRo1Mo4dHckaAQAAAAAAAFQP4UINtGvXTgsWLLA57+3tLbPZrI4dO2rkyJFKT0/XpEmTjDI2dwoPD9eIESNsznt5eSksLEz9+/fXH//4R3388ceV7uGZZ57R4MGD7dp3dna2Tbjg7u6u7du3VzkmMDBQERERev311/XFF19o3LhxKiwsvOs6PXv21OzZs2UymSqcb9asmcLCwvT6669r7ty5mj9//l3ncXJy0oQJEzRs2DA5ODhUuObj46PQ0FB1795dGzZsqBAu9O3bV2FhYXJycqpRuNCzZ0916tRJJpOp3sMFSbpx44YWLFigP//5zzKZTHr11Ve1dOnSu465ePGixo4dq2XLlql79+4aM2aM5s2bZ/faOTk5xnHnzp21a9cuu+cAAAAAAAAA8PghXKiBb775RqdPn9b27du1f/9+nT9/Xv/5z3/UvHlzBQUFKTY2Vu3bt1dsbKzOnz+vhQsX2sxx5MgRrVixQnv27NGZM2d07do1NWrUSMHBwYqPj1ebNm00fvx4HT58WLt3765yLwUFBVUGELdNmDChWrX8d+7cqa1bt+rixYuyWCxyc3NTYGCgXnnlFXXs2FHdunXT+vXrNWDAAJ07d67SOWJiYjRr1iw5ODgoLy9Py5cv16FDh1RSUqLg4GC99tprCg0N1TvvvCM/Pz+9//77Ve7no48+Uq9evSRJ33//vdasWaOjR4/KYrHI3d1dbdu2VVhYWJV7eZisX79e06dPl8lkUnR09D3DBUn68ssvNXfuXL377rsaM2aM9uzZY9fbJZJ0+vRpHTt2TCEhIRoyZIj27t2rzz//vIafAgAAAAAAAMDjgnChBkpKSvTLX/7S5vzp06e1f/9+rV27VmlpaerUqZPi4uIqDRdOnjypSZMm2ZzPzs7W9u3blZmZKbPZrFGjRt01XLh69apSUlLuut+EhIRqhQvr1q1TZmamzfkVK1bo1Vdf1axZs+Tn56c5c+aof//+Nm9kmM1mffDBB3JwcFBWVpaGDRumH3/80bh+u4TRtGnTFBsbq4EDB2rXrl3avHmzzZr9+/c3goXFixcrKSlJVqu1wj1ffvnlPT/Tw6KsrExZWVmKiorSk08+We1xCxcu1DPPPKMuXbpozpw56tOnT4W3OKpj6tSpWr58uVxcXLR06VJlZGRowYIFOnv2rL0fAwAAAAAAAMBjgiLr9aCsrEyfffaZJMnPz08NGjSwa/y1a9eUlpYm6Vb5Izc3tzrfo73WrVunpKQkSdLTTz+t2NhYm3vee+89ubm56dq1a4qPj68QLNxmtVqVmJio7OxsSVJiYqJNySMnJyclJCRIkv75z39q5syZNsHCo+jMmTOSpCZNmsjd3b1aY6xWq8aNG6eCggL5+/tr1qxZdq+7Z88evfnmmyoqKpKDg4NiYmK0Y8cOJScnq0uXLjZ/HwAAAAAAAAAgXKgn3t7ekqSioiLdvHnT7vGHDx+WdOtBu4+PT53uraZSU1ONEkQDBgyocM1kMum5556TJKWlpSk/P7/KeaxWq9FvISAgQE8//XSF65GRkfL09JSkSntbPKquXLliHDdu3Lja4/Lz8zV+/HhJUq9evTRw4EC7196xY4eio6OVkpKi4uJiOTo6Kjo6Wqmpqdq2bZtiYmKq9fYLAAAAAAAAgMcD4UI96NGjh4YNGyZJxhsI9rqztE11f8Ve36xWq/FGRtu2bdWkSRPj2rPPPitXV1dJumuD6Nt2796tkpISSVLXrl0rXIuKipIkWSwW7du3r8b7bdiwodq1a6df/epXeuONN/Tuu+/qjTfeULdu3Yy9/j9xdv5flTJ739T4/PPPtWLFCknS+++/rxYtWti9fmFhoaZNm6bOnTsrKSnJKIvUqlUrJSUlaePGjQoPD7d7XgAAAAAAAACPHnou1NKIESPUpk0bOTg4yNvbWz/72c8UEBCgsrIypaSkaO7cuVWODQkJUUxMjCIiIhQQECB3d3dZLBbl5+fr4sWLxn3/T2Vpjh49KunWnoKCgnTo0CFJt8o/3Xby5Ml7zmOxWJSTkyOz2VxhrCT5+/tLkk6dOlWrckj9+vVTv379qlw/JSVF8+bNU2lpaY3XqEseHh7G8Q8//GD3+JkzZyoqKkpms1lJSUmKi4tTeXm53fMUFRXpL3/5i5KTk9WjRw+NHj1aERERCg4O1urVqzVkyBDt37/f7nkBAAAAAAAAPDoIF2opKirK5pf3knTs2DHt2rXLpumxJDk6OmrKlCmKi4urEBxYrVa5uLjI09NTISEh9brvmrqz3NGdby7cLgNltVqr3VC4oKBAZrPZpuyTl5eXpJo9YL9TWVmZTpw4oWPHjhlztWjRQpGRkTKZTHrrrbcUEhKi+Pj4Wq1TV9q0aSNJunTpkiwWi93jLRaLxo0bp9WrVysyMlKDBg0y3maoifLycu3YsUM7duzQoEGDNHXqVLm4uGj+/PmKioqqUbkvAAAAAAAAAI8GwoVamjdvnlauXCnpVvmi4OBgPf/88woLC9OyZcs0b948zZkzp8KYt99+W4MHD5Ykbdu2TZ988omOHz+uy5cvq6ysTD4+PnrhhRf0wQcf3O+Pc0+Ojv+rpHXt2jXj+PbDcEdHRzVs2FA3bty451wmk8lmHkkqLi6WpFo3sv7rX/+qxMREm/NeXl6aNGmSXn75ZfXs2VN9+vTRxo0ba7VWbTVq1MgoOfTdd9/VeJ6srCwlJycrPj5eEyZM0M6dO+tkfytXrlTz5s01duxY+fj4qFevXlq/fn2dzA0AAAAAAADg4UPPhVrKysrSli1btGXLFmVkZGjmzJmKjo7WokWLJEljxoxRu3btjPtdXFw0fPhwSVJmZqZGjhyp3bt3Kzc313jL4fLly9q7d+/9/zDV4OvraxxfvnzZOL506VKl99xN8+bNbea5879vX69rBQUFGjdunNFT4OWXX66XdewxcOBAo+fC5s2bazXXnDlzdOLECZlMJv3ud7+ri+1JktLT043jJ554os7mBQAAAAAAAPDwIVyoB1arVX/6059UUFAgBwcH9erVy7gWGBho/GJ/7dq1D2qLNXY7KLly5UqFQCE7O9s47ty58z3nCQ0NlaenpyTpyJEjFa7961//kiQFBAQoICCg1nuuTFlZmdE3IDAwsF7WqC5vb2+NHDlSkpSXl1frNwJKSkr029/+VlarVT169NDzzz9fF9tUXl6e0QPjzv4QAAAAAAAAAB4/hAv1pKysTDk5OZIqNjt2dXU1jn/88cf7vq/aMJlMRlCyffv2Cv0kTp06ZYQC/fv3v2cT6gEDBki69SB8y5YtFa5t3brVOI6Nja2TvVemQYMGkvRAGzq7ublp/vz5Rs+KGTNmVKuk1L1kZWXpk08+kSTjTZnaat68uVEWKzc3t07mBAAAAAAAAPBwIlyoJ82aNVPr1q0lVWyCfPHiReO4Q4cO931fd3NnP4XKjB8/Xs2aNVN5ebnRZ+JOy5YtkyS1b99eQ4YMqXKeDh06KC4uTpL06aef2oQsFy9eNHoFjBgxQhEREfZ8jGpxc3NTZGSkpFvByIMQEhKijIwMderUSZK0fPlyZWZm1tn8f/jDH3ThwgUjRKmMs7OznJycqjXf7b+ZdCu8+KmIiAi98MILFQI0AAAAAAAAAI8mwoUaaN++vQYNGmT82vxODg4OioyMVGpqqlH+6LPPPjOuFxQU6KuvvpJ0qx/DSy+9VO2Hu/Vt6tSpio+Pt/lcfn5++v3vf28EBunp6fr2229txq9evVq7d++WJE2ePFkJCQkVyuc0bNhQgwYNUmpqqpycnJSbm6sZM2ZUupfJkyfLYrHIxcVFaWlpGjVqlFFG6TaTyaSXXnqpwpsh1fHkk09qyZIlRk+HjIwMu8ZXR4MGDeTl5VXhDQ6TyaTWrVsrJiZGixcv1qZNmxQWFiZJWrp0qaZOnVqne7BYLJoyZcpd7+nbt6+2b9+uESNGVFmCqnnz5kpMTNTo0aMlSV9//bVRUuq2mJgYZWRkaMGCBUbIBAAAAAAAAODR5fygN/Aw6tu3r4YNG6Zp06YpJydH+fn5slgscnd3l7+/f4UH6kuWLLH5lfeHH36oFStWqEmTJpo3b56Kiop05swZFRUVycXFRY0bN1bLli3v98eSu7u7EhISNH78eJ09e1ZFRUXy8PBQYGCg8ZB88+bN+vDDD6ucY+zYsVq4cKEiIyMVHx+v4cOH69y5c7p586ZatmxpBC7nzp3TiBEjqiwNdeHCBQ0dOlSLFi2Sp6enxo8fr/fee08FBQXKz8+Xm5ubWrRoIScnJyUkJFQaEMTGxqpr167Kz8/X9evX5ezsLH9//wo9FlJSUvSPf/yjNl9bpVq2bKkDBw7IarWqpKREzs7ORsPmOx07dkwzZszQrl276nwPkrRjxw5t27ZN0dHRlV7/9a9/rcDAQE2cOFETJ05Ubm6ucnNz9cMPPxjfV1BQkPH3P3nypEaNGmUzT9euXY3jZ599Vi4uLnVS3gkAAAAAAADA/yfChRo4f/68/v3vf6tVq1by9/eXv7+/zT1HjhzRokWLKi1zc/jwYfXr108JCQnq3r27PDw8Km2Qe/36dR05ckRFRUX18jl+Kjk5WSEhIeratavMZrPMZrNxrbCwUEuWLFFycrLR1LcyV69e1ZAhQzRq1CgNHTq0QnkoSbpx44b+/ve/KykpSYWFhXfdz1dffaVXXnlF48aNU+/eveXq6ipvb+8Kb1acPXtW169frzDu66+/lq+vrzw9PdWiRQu1aNHCZu7s7Gx9/PHH2rBhwz2/F3scPHhQ4eHhRvDh6OhYoUxQaWmpTp06pX379mnTpk3at2+fysvL63QPPzV9+nR169at0vJIkydPVlxcnF588UX5+PjIz8+v0jdB8vPzlZaWpiVLlshisdhc37Vrl1588UVJ0v79+wkWAAAAAAAAgEecQ6tWrer3yeYjzMvLSyEhIfL09JSbm5tu3rypwsJCHT9+vNoNbxs1aqS2bdvK09NTzs7OKi4u1pUrV3ThwgXl5eXV+4Nnd3d3o8TR22+/rczMTHl4eKhdu3by9PRUaWmpzp07p0OHDlVo4Fwdzs7OCg8PV8uWLeXk5KS8vDwdPHjQJgyoDjc3N4WGhsrX11fOzs66evWqTp48WaGHxU95eHioZcuW8vLykslkkoODg65evaoTJ07Ue0NiJycnNW3aVI0aNTLChWvXrunSpUt2f4/3S1BQkNq2bSsPDw81adJExcXFKiws1LFjx3T06NF7/luMiIiQr6+vdu7cqeLi4vu0awAAAAAAAAAPAuHCY66ycAEAAAAAAAAAgLuhoTMAAAAAAAAAALAL4QIAAAAAAAAAALAL4QIAAAAAAAAAALCL84PeAB4sq9WqK1euSJJKSkoe8G4AAAAAAAAAAA8DGjoDAAAAAAAAAAC7UBYJAAAAAAAAAADYhXABAAAAAAAAAADYhXABAAAAAAAAAADYhXABAAAAAAAAAADYhXABAAAAAAAAAADYhXABAAAAAAAAAADYhXABAAAAAAAAAADYhXABAAAAAAAAAADYhXABAAAAAAAAAADYhXABAAAAAAAAAADYhXABAAAAAAAAAADYhXABAAAAAAAAAADYhXABAAAAAAAAAADYhXABAAAAAAAAAADYhXABAAAAAAAAAADYhXABAAAAAAAAAADYhXABAAAAAAAAAADYhXABAAAAAAAAAADYhXABAAAAAAAAAADY5b92YqPtRl1KuwAAAABJRU5ErkJggg==;" vertex="1" parent="1">
          <mxGeometry x="20" y="22" width="446.78" height="96" as="geometry" />
        </mxCell>
        <mxCell id="LUPjz9wr3VQtJ9ooE-Ok-14" style="edgeStyle=orthogonalEdgeStyle;rounded=0;orthogonalLoop=1;jettySize=auto;html=1;exitX=1;exitY=0.5;exitDx=0;exitDy=0;entryX=0;entryY=0.5;entryDx=0;entryDy=0;" edge="1" parent="1" source="LUPjz9wr3VQtJ9ooE-Ok-11" target="LUPjz9wr3VQtJ9ooE-Ok-13">
          <mxGeometry relative="1" as="geometry" />
        </mxCell>
        <mxCell id="LUPjz9wr3VQtJ9ooE-Ok-11" value="Пересылка на роутере&lt;br&gt;(кешируется)" style="ellipse;whiteSpace=wrap;html=1;" vertex="1" parent="1">
          <mxGeometry x="421" y="130" width="120" height="80" as="geometry" />
        </mxCell>
        <mxCell id="LUPjz9wr3VQtJ9ooE-Ok-13" value="&amp;nbsp; Сервер имен&lt;div&gt;провайдера&lt;br&gt;&amp;nbsp;Внешний DNS (Cloudflare/Google и т.д.)&lt;/div&gt;" style="ellipse;whiteSpace=wrap;html=1;" vertex="1" parent="1">
          <mxGeometry x="596" y="129" width="221" height="81" as="geometry" />
        </mxCell>
      </root>
    </mxGraphModel>
  </diagram>
</mxfile>
